<svg width="34" height="32" viewBox="0 0 34 32" fill="none" xmlns="http://www.w3.org/2000/svg">
<path d="M17.0667 32H16.9339C16.7247 31.8392 16.4644 31.725 16.3143 31.5031C15.6257 30.4805 14.7093 29.9402 13.6959 29.5784C12.731 29.2335 11.7409 29.1579 10.7441 29.1563C7.50427 29.1531 4.26469 29.1531 1.02533 29.1563C0.534581 29.1563 0.162034 28.9859 0 28.3789V6.91583C0.10426 6.61917 0.203208 6.32893 0.515323 6.25577C1.19135 6.09497 1.281 5.9599 1.28366 5.10929C1.28366 3.81328 1.29561 2.51726 1.27901 1.22205C1.27171 0.620673 1.43042 0.191349 1.92582 0.00160953H13.4143C13.4653 0.0258167 13.5183 0.0433383 13.5724 0.0538702C14.8421 0.125424 15.8754 0.714741 16.6125 2.01317C16.8688 2.46581 17.1119 2.44651 17.3895 1.95528C17.8889 1.0709 18.5968 0.582082 19.4242 0.34732C20.0219 0.178484 20.6408 0.112557 21.2504 0H32.0748C32.5663 0.191347 32.7562 0.61585 32.7203 1.21723C32.7137 1.32335 32.7203 1.43108 32.7203 1.53882C32.7203 2.75283 32.717 3.96604 32.7203 5.18005C32.7203 5.93016 32.8571 6.13196 33.4581 6.24371C33.7317 6.29516 33.8758 6.49696 34 6.75504V28.3821C33.8393 28.9915 33.4648 29.1603 32.9747 29.1595C29.6445 29.1515 26.3142 29.1515 22.9837 29.1595C22.4532 29.1556 21.923 29.1932 21.3965 29.2721C19.9668 29.5012 18.6818 30.0922 17.7255 31.4983C17.5701 31.7291 17.2899 31.8392 17.0667 32ZM31.1339 13.7899C31.1339 10.1725 31.1339 6.55458 31.1339 2.93614C31.1339 2.1 30.9306 1.85237 30.2466 1.85237H21.5825C21.4058 1.85237 21.2278 1.85639 21.0512 1.87328C19.7463 1.99789 18.7183 2.67725 18.2355 4.19918C18.0104 4.91035 17.8904 5.6639 17.8809 6.42541C17.851 11.6103 17.8656 16.7967 17.8636 21.98C17.8686 22.2069 17.8523 22.4337 17.8152 22.6562C17.7302 23.1048 17.509 23.3066 17.1325 23.3283C16.5395 23.362 16.2732 23.116 16.1702 22.4061C16.1427 22.1665 16.1323 21.9244 16.139 21.6825C16.139 16.7252 16.139 11.7673 16.139 6.80891C16.139 4.82871 15.3581 3.45872 13.8998 2.62821C12.7708 1.98503 11.5622 1.85478 10.339 1.84996C8.16946 1.84192 6.00059 1.84996 3.83105 1.84996C3.04678 1.84996 2.86814 2.06382 2.86814 3.00447C2.86814 10.1867 2.86814 17.3689 2.86814 24.5511C2.86368 24.698 2.86923 24.8451 2.88474 24.9909C2.94252 25.4066 3.13975 25.6236 3.4864 25.6606C3.61921 25.6743 3.75203 25.6703 3.88484 25.6711C6.91701 25.688 9.94918 25.6711 12.9827 25.7346C14.4031 25.7659 15.7054 26.2773 16.665 27.673C16.9001 28.0139 17.2235 28.0018 17.4273 27.6625C17.9154 26.8513 18.6127 26.4437 19.3631 26.1269C20.243 25.7563 21.1594 25.6799 22.0779 25.6759C24.7893 25.6638 27.5007 25.6759 30.2121 25.6711C30.9532 25.6711 31.1378 25.4492 31.1378 24.5616L31.1339 13.7899Z" fill="#FFBF00" fill-opacity="0.65"/>
</svg>
