<svg width="32" height="32" viewBox="0 0 32 32" fill="none" xmlns="http://www.w3.org/2000/svg">
<path d="M14.4161 0H17.7491C18.989 0.434888 19.4765 1.34049 19.3898 2.61183C19.3731 2.86176 19.3823 3.1117 19.3898 3.36163C19.4131 4.20059 19.8356 4.77794 20.593 5.09869C21.3504 5.41944 22.062 5.27281 22.667 4.70295C22.9703 4.41719 23.2502 4.10811 23.5535 3.82319C23.9393 3.45413 24.4518 3.24683 24.9857 3.24389C25.5195 3.24094 26.0343 3.44257 26.4241 3.80735C27.079 4.42719 27.7181 5.06536 28.3406 5.71436C28.7114 6.08927 28.9202 6.59482 28.9219 7.12213C28.9236 7.64945 28.7182 8.15634 28.3497 8.53365C28.0839 8.81607 27.7981 9.081 27.5215 9.35343C26.8857 9.97911 26.7066 10.7197 27.0074 11.4754C27.3082 12.231 27.9864 12.6876 28.863 12.7042C29.2796 12.7117 29.6963 12.6926 30.1129 12.7142C31.0611 12.7642 31.7152 13.3374 31.9169 14.2655C31.939 14.344 31.966 14.4211 31.9977 14.4963V17.4955C31.9722 17.527 31.9514 17.5621 31.936 17.5996C31.6619 18.7793 31.0261 19.2925 29.8246 19.3C29.4496 19.3 29.0746 19.2892 28.7005 19.3059C27.8806 19.3417 27.3132 19.7674 27.0065 20.5097C26.6999 21.252 26.8399 21.9535 27.4081 22.5425C27.6781 22.8225 27.9648 23.0857 28.2414 23.3623C29.1221 24.2513 29.1296 25.4776 28.2539 26.3674C27.6795 26.9517 27.0996 27.5301 26.5141 28.1028C25.6175 28.9826 24.3593 28.9826 23.461 28.1028C23.2027 27.8528 22.9544 27.5888 22.6936 27.3396C22.0845 26.7565 21.3804 26.5698 20.5897 26.8989C19.7989 27.228 19.384 27.8462 19.364 28.711C19.354 29.155 19.3756 29.6007 19.3506 30.044C19.3299 30.571 19.1045 31.0691 18.7225 31.4328C18.3404 31.7964 17.8317 31.997 17.3042 31.9918C16.4848 31.999 15.6657 31.999 14.8469 31.9918C14.5755 31.9954 14.3061 31.9455 14.0541 31.8448C13.802 31.7441 13.5724 31.5946 13.3782 31.405C13.1841 31.2154 13.0293 30.9893 12.9227 30.7397C12.8161 30.4901 12.7599 30.222 12.7571 29.9506C12.7438 29.5208 12.7571 29.09 12.7521 28.6593C12.7346 27.8262 12.3172 27.2363 11.5631 26.9098C10.809 26.5832 10.0949 26.7198 9.48747 27.2905C9.18416 27.5754 8.90419 27.8853 8.59839 28.1686C8.20231 28.5473 7.67357 28.7558 7.12556 28.7492C6.57756 28.7427 6.05394 28.5217 5.66702 28.1336C5.06041 27.5432 4.4602 26.9459 3.86637 26.3416C3.00562 25.4643 3.01479 24.2504 3.88137 23.3682C4.12468 23.1182 4.37382 22.8791 4.62212 22.6367C5.2404 22.0335 5.42954 21.3237 5.12207 20.5097C4.83044 19.7399 4.14551 19.2984 3.2681 19.2825C2.80981 19.275 2.35152 19.2975 1.89407 19.2584C0.78918 19.1642 0.0100916 18.3078 0.00259233 17.2047C-0.00324041 16.4416 0.00259233 15.6785 0.00259233 14.9145C0.00259233 13.574 0.823343 12.7359 2.16904 12.6992C2.55733 12.6892 2.94646 12.6992 3.33559 12.6942C4.18634 12.6734 4.79294 12.2618 5.11208 11.4829C5.43121 10.7039 5.25956 9.98327 4.66296 9.38426C4.39882 9.11766 4.12884 8.85772 3.86804 8.58862C3.02229 7.71385 3.01145 6.50583 3.85637 5.64522C4.46742 5.02149 5.09263 4.41053 5.73201 3.81236C6.12496 3.44041 6.64683 3.23528 7.18791 3.24009C7.72899 3.24491 8.24713 3.4593 8.63339 3.83818C8.92419 4.11561 9.19916 4.41053 9.49247 4.68713C10.0966 5.25698 10.7973 5.41028 11.5648 5.08536C12.3322 4.76045 12.7438 4.18643 12.7655 3.34748C12.773 3.08338 12.7813 2.81928 12.7655 2.55601C12.6896 1.3005 13.1863 0.41656 14.4161 0ZM9.40748 16.0051C9.40929 17.3232 9.80197 18.6112 10.5359 19.7062C11.2698 20.8012 12.3119 21.654 13.5306 22.1568C14.7492 22.6597 16.0896 22.7899 17.3823 22.5311C18.675 22.2723 19.8619 21.6361 20.7929 20.7028C21.724 19.7696 22.3573 18.5813 22.6129 17.2882C22.8686 15.9951 22.735 14.6552 22.229 13.438C21.723 12.2208 20.8675 11.181 19.7705 10.4499C18.6735 9.71885 17.3843 9.32946 16.066 9.33094C15.1899 9.33005 14.3223 9.5022 13.513 9.8375C12.7036 10.1728 11.9685 10.6646 11.3498 11.2848C10.7311 11.9049 10.2411 12.6412 9.90773 13.4512C9.57441 14.2612 9.4044 15.1291 9.40748 16.0051Z" fill="#FFBF00" fill-opacity="0.65"/>
</svg>
