<svg width="79" height="108" viewBox="0 0 79 108" fill="none" xmlns="http://www.w3.org/2000/svg">
<g filter="url(#filter0_d)">
<path d="M49.7273 75.2764C46.3566 78.987 43.2428 82.4169 39.8473 86.1524C36.2723 82.2267 33.0966 78.7407 29.7104 75.0207C28.7447 76.2742 28.2092 76.8729 27.779 77.5402C23.328 84.4188 18.8152 91.2599 14.5035 98.2258C13.4356 99.9502 12.1697 100.262 10.5695 99.8192C9.25397 99.4544 7.95707 98.8619 6.78707 98.1416C3.72897 96.2645 3.56801 95.2106 5.5923 92.2141C10.9997 84.2005 16.4009 76.1776 21.8423 68.0985C15.9614 62.2302 10.1764 56.4585 4.37896 50.6713C10.3342 44.725 16.0356 39.0375 21.8454 33.2347C20.4866 31.105 19.4218 29.3932 18.3106 27.7125C13.999 21.1894 9.66873 14.6787 5.35397 8.15872C3.3823 5.1809 3.49372 4.37643 6.15254 2.04718C9.62849 -0.999227 12.4575 -0.578277 14.9275 3.30691C19.0721 9.82692 23.2414 16.3282 27.4107 22.8326C27.9028 23.5997 28.4445 24.3324 29.2771 25.5298C32.7345 21.8317 36.0061 18.3269 39.5316 14.5571C43.0509 18.3051 46.2792 21.7444 49.7954 25.4862C52.64 21.0834 55.1564 17.2075 57.6543 13.3161C59.9138 9.78949 62.1424 6.24107 64.3957 2.71135C66.2931 -0.263347 68.2059 -0.72483 71.3476 1.00573C75.1671 3.10735 75.6283 5.08736 73.1893 8.76675C67.9521 16.6712 62.7243 24.5819 57.4128 32.6111C63.2721 38.4981 69.0386 44.2885 75 50.2753C68.9581 56.2652 63.0926 62.0836 57.0755 68.0486C62.0619 75.451 66.8843 82.6103 71.7098 89.7695C72.2824 90.6176 72.8798 91.4501 73.4524 92.2983C75.3343 95.0984 75.1919 96.1398 72.4217 97.967C71.2733 98.7247 69.9857 99.3484 68.6764 99.7506C66.8719 100.306 65.5038 99.9782 64.3059 98.0325C59.6786 90.5272 54.8097 83.1684 49.7273 75.2764ZM53.9926 37.7809C51.2131 41.9811 48.7276 45.6792 46.335 49.4334C46.01 49.9448 45.8304 50.9488 46.109 51.3884C48.5202 55.2113 51.0552 58.9593 53.6645 62.9037C57.3014 59.2274 60.6876 55.7912 64.0893 52.3675C65.4543 50.9956 65.5131 49.6329 64.1512 48.2329C60.8609 44.8497 57.5707 41.4603 53.9926 37.7809ZM25.3988 62.6948C28.1628 58.5352 30.769 54.6188 33.4371 50.6058C30.6916 46.4743 27.9957 42.4145 25.1759 38.1707C21.5823 41.7659 18.1033 45.0773 14.8842 48.6289C14.3147 49.2588 14.3425 51.3323 14.9275 51.9778C18.2116 55.6135 21.7495 59.0154 25.3988 62.6948ZM39.4697 41.3948C41.9583 37.572 44.2085 34.1171 46.6662 30.3442C44.8833 28.6573 43.2583 27.014 41.5064 25.5205C40.9369 25.0371 39.6678 24.4977 39.3397 24.7627C37.0771 26.59 34.9538 28.598 32.8676 30.6342C32.7159 30.7839 33.1183 31.6476 33.403 32.0903C35.3004 35.0526 37.2381 37.9867 39.4697 41.3948ZM39.4542 59.8074C37.1142 63.3621 34.9847 66.5987 32.4683 70.4246C34.2419 72.0024 35.8947 73.8078 37.8819 75.08C38.7516 75.635 40.5964 75.5446 41.4971 74.9615C43.3295 73.7797 44.8214 72.0647 46.5269 70.5026C44.0476 66.7515 41.8252 63.3901 39.4542 59.8074Z" fill="#FFBF00" fill-opacity="0.58"/>
</g>
<defs>
<filter id="filter0_d" x="0" y="0" width="79" height="108" filterUnits="userSpaceOnUse" color-interpolation-filters="sRGB">
<feFlood flood-opacity="0" result="BackgroundImageFix"/>
<feColorMatrix in="SourceAlpha" type="matrix" values="0 0 0 0 0 0 0 0 0 0 0 0 0 0 0 0 0 0 127 0"/>
<feOffset dy="4"/>
<feGaussianBlur stdDeviation="2"/>
<feColorMatrix type="matrix" values="0 0 0 0 0 0 0 0 0 0 0 0 0 0 0 0 0 0 0.25 0"/>
<feBlend mode="normal" in2="BackgroundImageFix" result="effect1_dropShadow"/>
<feBlend mode="normal" in="SourceGraphic" in2="effect1_dropShadow" result="shape"/>
</filter>
</defs>
</svg>
