<svg width="42" height="51" viewBox="0 0 42 51" fill="none" xmlns="http://www.w3.org/2000/svg">
<path d="M0.16232 26.3806L1.17299 26.3144C0.869108 25.4908 0.494687 24.7239 0.311547 23.9124C0.128406 23.101 0.146043 22.2247 0.0714306 21.3295L1.43617 21.1945C0.327827 19.6094 -0.0058967 17.9081 0.171817 16.0138C0.436354 16.0003 0.699534 15.9774 0.961357 15.976C2.72493 15.976 4.48851 15.9611 6.25208 15.9868C6.75945 15.9868 7.06604 15.9044 7.09588 15.3212C7.1203 14.9161 7.26546 14.511 7.37941 14.0007H0.0537942V9.6436C0.561161 10.0338 1.18248 10.2863 1.3819 10.7237C1.60167 11.2098 1.4321 11.8701 1.4321 12.5681C1.98423 12.5681 2.49431 12.5965 2.9976 12.5492C3.13326 12.5357 3.29877 12.317 3.37203 12.1577C3.65962 11.5231 3.88753 10.8615 4.19412 10.2377C4.38676 9.84613 4.31893 9.6436 3.94994 9.42757C2.78146 8.74167 1.62609 8.03596 0.483833 7.31046C0.283057 7.17544 0.0266608 6.93107 0.022591 6.73394C-0.00996733 4.53313 0.00224286 2.33095 0.00224286 0.0747811H1.43752V3.31524C1.43752 4.14831 1.42395 4.98138 1.45109 5.81175C1.45109 6.00753 1.5474 6.28027 1.69256 6.37884C2.41834 6.86626 3.17396 7.30777 4.08017 7.86405V0.0545249H5.52766V7.63721C5.8139 7.37527 5.95363 7.26726 6.0703 7.13629C6.71468 6.41394 7.37534 5.70238 7.98309 4.95032C8.20444 4.68657 8.3402 4.36219 8.37244 4.02004C8.41585 2.7198 8.39007 1.41687 8.39007 0.158492C8.48775 0.0896325 8.52574 0.0464284 8.55829 0.0423778C9.77923 -0.0629372 9.77923 -0.0629346 9.77923 1.15899C9.77923 1.84489 9.77923 2.53079 9.77923 3.34361C10.7641 2.76033 11.6011 2.281 12.4137 1.76522C12.5494 1.68151 12.6091 1.43038 12.624 1.24946C12.6552 0.874105 12.6335 0.4947 12.6335 0.0666885H13.9996C14.0417 0.336727 14.0837 0.616218 14.1353 0.945665L16.9923 0.1504C17.018 0.410987 17.0234 0.583808 17.0533 0.753932C17.1578 1.36827 16.9176 1.62481 16.2882 1.80574C11.1182 3.29095 7.44996 6.53141 5.20479 11.3921C5.04878 11.731 4.93347 12.0915 4.75983 12.5641C5.83018 12.5641 6.79472 12.5843 7.74434 12.5425C7.88814 12.5357 8.05635 12.2576 8.15132 12.0739C10.3354 7.80598 13.7717 5.18796 18.5035 4.27388C18.57 4.26172 18.6392 4.24283 18.7016 4.23068C19.2211 4.12806 19.9225 4.19017 20.2087 3.87693C20.4801 3.58664 20.3078 2.89534 20.3132 2.38092C20.3227 1.62076 20.3132 0.861948 20.3132 0.062634H21.6901C21.6901 1.12929 21.7241 2.17973 21.6766 3.22613C21.6481 3.84181 21.8285 4.07406 22.4702 4.15372C27.6849 4.79777 31.478 7.47518 33.8656 12.1387C33.9606 12.3224 34.2007 12.5438 34.3825 12.5546C35.2805 12.5978 36.1827 12.5749 37.2015 12.5749C37.1011 12.2576 37.0522 12.0267 36.96 11.8134C34.7772 6.78795 31.0724 3.44217 25.802 1.84084C24.7655 1.52625 24.6679 1.36827 24.988 0.166601L27.8369 0.976717L27.9725 0.0923342C28.0948 0.0623249 28.219 0.0411209 28.3442 0.0288792C29.3034 -0.000825083 29.3318 0.00322348 29.3047 0.955109C29.2884 1.49519 29.4716 1.80843 29.9694 2.05552C30.6694 2.40387 31.326 2.85483 32.14 3.35576V0.0477838H33.5902C33.5902 0.879502 33.6553 1.70852 33.5753 2.52403C33.4396 3.90258 33.7109 5.0543 34.8844 5.95217C35.4189 6.35723 35.7906 6.98102 36.241 7.50489L36.4201 7.45359V0.0599309H37.8567V7.88025C38.8226 7.29157 39.6203 6.83655 40.3745 6.31942C40.5197 6.21951 40.5455 5.87791 40.5468 5.64433C40.5604 4.02409 40.5468 2.40386 40.5468 0.783632V0.06804H41.94C41.955 0.266518 41.9862 0.481186 41.9875 0.695866C41.9875 2.58614 41.9712 4.47641 41.9997 6.36668C42.0079 6.8622 41.8261 7.13899 41.4096 7.38202C40.2796 8.03957 39.1807 8.75113 38.052 9.41542C37.6858 9.6301 37.6057 9.83668 37.7997 10.2255C38.0859 10.7863 38.3308 11.3671 38.5323 11.9632C38.6815 12.4209 38.904 12.6383 39.4019 12.5803C39.7864 12.5611 40.1717 12.5611 40.5563 12.5803C40.6323 11.4461 40.1955 10.0581 41.9618 9.84073V13.9683H34.6361C34.7718 14.6434 34.8573 15.2185 35.0363 15.7573C35.0797 15.8923 35.4433 15.9706 35.6658 15.9719C37.4741 15.9881 39.2838 15.972 41.0922 15.9801C41.3336 15.9801 41.5751 16.003 41.8424 16.0165C41.978 17.8703 41.6837 19.5581 40.5509 21.1688L41.9278 21.3417C41.8519 22.2098 41.8627 23.0713 41.6809 23.8895C41.4992 24.7077 41.1247 25.476 40.8168 26.3198L41.8397 26.3914C41.9943 28.4383 41.6633 30.3447 40.2117 31.8907C38.885 33.303 37.4782 34.6411 36.0985 36.0048C31.2238 40.8249 26.3478 45.6433 21.4704 50.4599C21.3347 50.5949 21.1774 50.73 20.8816 51C19.7787 49.8456 18.7111 48.6831 17.6014 47.5759C12.4924 42.5118 7.37308 37.4571 2.24334 32.4119C0.550306 30.7471 -0.0343862 28.7529 0.16232 26.3806ZM18.2051 24.8292C19.27 25.9431 20.164 26.8774 21.1692 27.9346C21.9832 27.0867 22.7971 26.2537 23.5758 25.3814C23.6708 25.2748 23.6016 24.8414 23.4727 24.7509C22.5367 24.0826 22.3006 23.1874 22.4363 22.1059C22.5 21.5969 22.4363 21.073 22.458 20.5559C22.5462 17.7812 24.3748 15.9963 27.1586 15.9787C29.0334 15.9666 30.9082 15.9787 32.783 15.9787C33.0245 15.9787 33.2646 15.9585 33.5739 15.9436C33.5074 15.5831 33.4681 15.2982 33.4003 15.0201C33.1507 14.0007 33.1466 13.9966 32.1346 13.9953H20.1328C16.63 13.9953 13.1287 13.9885 9.62729 13.9953C9.36546 13.9953 8.93949 14.0709 8.87302 14.2302C8.65597 14.7473 8.5705 15.3185 8.40907 15.9733H9.29086C11.1657 15.9733 13.0405 15.9625 14.9153 15.9733C17.6556 15.9909 19.5006 17.8136 19.5508 20.5343C19.5657 21.3214 19.5399 22.1099 19.5861 22.8944C19.6173 23.4345 19.5372 23.8733 19.0733 24.196C18.7409 24.4323 18.418 24.6699 18.1983 24.8292H18.2051ZM18.3041 46.2541C18.3629 46.0352 18.405 45.8122 18.4302 45.5871C18.4302 42.6167 18.4384 39.6462 18.4194 36.6758C18.4194 36.5003 18.1996 36.3369 18.1481 36.1506C18.0305 35.7789 17.9581 35.3945 17.9324 35.0056C17.9324 34.9233 18.3041 34.7545 18.5062 34.7518C20.1341 34.7302 21.762 34.7518 23.39 34.7275C23.915 34.718 24.1076 34.9179 24.0194 35.4026C23.9258 35.9062 23.6938 36.4004 23.6884 36.9013C23.6545 39.7137 23.6708 42.5262 23.6735 45.34C23.6735 45.5682 23.7074 45.7977 23.7427 46.2298C24.5091 45.4791 25.159 44.8958 25.7369 44.2477C25.9814 43.9728 26.1283 43.6255 26.1547 43.2593C26.1927 41.28 26.0394 39.2871 26.2144 37.3185C26.369 35.5632 25.8373 34.2792 24.4508 33.276C24.4332 33.2625 24.4223 33.2369 24.4033 33.2288C24.1456 33.1248 23.8892 32.9412 23.6274 32.9344C22.4756 32.902 21.3062 33.0384 20.1721 32.8953C18.5198 32.686 17.2893 33.2288 16.3397 34.5344C16.3262 34.5519 16.3004 34.5628 16.2922 34.5817C16.1837 34.8369 15.9857 35.0907 15.9829 35.3472C15.9612 38.0705 15.968 40.7925 15.9748 43.5159C15.9748 43.6887 15.9748 43.9209 16.0738 44.0249C16.7589 44.7473 17.4806 45.4467 18.2946 46.2541H18.3041ZM31.3844 38.4324L31.5797 38.5134C32.1698 37.9355 32.8007 37.386 33.3352 36.7582C33.5922 36.4672 33.7453 36.0998 33.7706 35.7131C33.7964 30.0909 33.7883 24.4674 33.7869 18.8452C33.7869 17.3762 33.7869 17.3762 32.3354 17.3789C31.3328 17.3789 31.3288 17.3788 31.3288 18.3523C31.3288 24.8072 31.3319 31.262 31.3383 37.7168C31.3315 37.9598 31.3613 38.1961 31.3776 38.4324H31.3844ZM10.4507 38.5026L10.6909 38.4189V37.2982C10.6909 31.208 10.6909 25.1177 10.6909 19.0274C10.6909 17.3842 10.6909 17.4153 9.06295 17.3721C8.4145 17.3545 8.21914 17.5436 8.2205 18.1903C8.2422 24.0785 8.23271 29.9667 8.23949 35.8549C8.23949 36.048 8.24627 36.3032 8.36023 36.4233C9.03174 37.1335 9.74803 37.8127 10.444 38.5026H10.4507ZM28.1448 22.0019C26.9388 22.0019 25.8128 21.9844 24.6869 22.0141C24.4155 22.0208 23.9068 22.1666 23.9014 22.2679C23.8838 22.6365 23.9122 23.1226 24.1388 23.3683C25.1006 24.408 26.1452 25.372 27.1477 26.3765C27.4001 26.6304 27.5927 26.6938 27.8708 26.4049C28.465 25.7892 29.0917 25.2086 29.6873 24.5902C29.8382 24.4301 29.9292 24.2232 29.945 24.0042C29.964 21.979 29.9532 19.9618 29.9599 17.9392C29.9599 17.5557 29.846 17.364 29.4173 17.3748C28.5152 17.4005 27.6103 17.3613 26.7041 17.3924C25.2607 17.4423 23.9909 18.6656 23.8553 20.0806C23.8132 20.4978 23.9679 20.6477 24.3803 20.6423C25.3964 20.6301 26.4152 20.6423 27.4272 20.6423C27.6646 20.6423 27.9033 20.6706 28.1435 20.6855L28.1448 22.0019ZM20.9752 48.8424C21.9845 48.2551 22.3074 47.4665 22.2762 46.3526C22.1948 43.5037 22.2477 40.6508 22.2504 37.7992C22.2504 36.1384 22.2504 36.1668 20.5899 36.1344C19.9578 36.1222 19.7855 36.3248 19.7896 36.9337C19.8153 40.1742 19.856 43.4011 19.7746 46.6321C19.7475 47.6988 20.2196 48.2983 20.9752 48.8464V48.8424ZM19.1411 28.0265C18.9417 28.2047 18.8047 28.3181 18.6785 28.441C16.7372 30.3542 14.8176 32.2904 12.8451 34.1685C12.255 34.7302 11.9837 35.3027 12.0515 36.1101C12.132 36.8731 12.132 37.6424 12.0515 38.4054C11.8901 39.6408 12.2645 40.5806 13.2725 41.3164C13.6686 41.6067 13.9928 41.9915 14.3496 42.3345L14.5341 42.2238V41.5743C14.5341 39.3708 14.5436 37.1686 14.5219 34.9665C14.5111 34.7684 14.5454 34.5704 14.6222 34.3874C14.699 34.2043 14.8164 34.0409 14.9655 33.9093C15.9436 32.9763 16.8864 32.0068 17.8605 31.0738C18.5835 30.3771 19.3337 29.7075 20.1151 28.9851L19.1411 28.0265ZM27.6361 42.3898C28.3809 41.6553 29.0103 41.0842 29.576 40.4564C29.79 40.2113 29.9169 39.9028 29.9369 39.5787C29.9762 38.2528 29.9844 36.9242 29.9369 35.5997C29.9118 35.2321 29.7615 34.8839 29.5109 34.6127C27.495 32.5807 25.4493 30.5783 23.4062 28.5693C23.2502 28.4167 23.0766 28.2803 22.907 28.1318L22.0266 28.8703C22.2491 29.112 22.3915 29.2821 22.5489 29.4374C24.0411 30.9118 25.5212 32.3943 27.0324 33.8458C27.2059 34.0003 27.3422 34.1917 27.4312 34.4058C27.5202 34.6199 27.5597 34.8512 27.5466 35.0826C27.5221 37.1956 27.5371 39.31 27.5466 41.4285C27.5506 41.6742 27.5927 41.9267 27.6361 42.3898ZM20.2766 5.47961C17.9093 5.63353 15.8079 6.30052 13.7785 7.68582L20.2766 11.6378V5.47961ZM21.7688 11.5447L28.1231 7.59266C26.0882 6.32483 24.0655 5.60113 21.7688 5.50257V11.5447ZM32.4561 12.5222C31.7599 11.0672 30.7676 9.77203 29.5421 8.71872C29.4336 8.6242 29.108 8.65796 28.9561 8.75112C27.1111 9.87448 25.2783 11.0181 23.4469 12.1617C23.3493 12.2225 23.2869 12.3399 23.1281 12.5222H32.4561ZM9.55268 12.4979H18.6568C18.608 12.3764 18.6039 12.317 18.574 12.2981C16.6567 11.1117 14.7362 9.92984 12.8126 8.75247C12.7477 8.72089 12.6761 8.70527 12.6039 8.70692C12.5316 8.70856 12.4609 8.72742 12.3975 8.76192C11.2128 9.80863 10.2466 11.0772 9.55404 12.4952L9.55268 12.4979ZM40.4071 17.3856H35.252V21.2499C36.3129 21.2499 37.3208 21.2499 38.3301 21.2499C38.4419 21.2445 38.5485 21.2017 38.6327 21.1283C39.7125 20.1508 40.3718 18.9775 40.4071 17.3856ZM6.78793 21.2485C6.78793 20.4087 6.78793 19.6512 6.78793 18.8951C6.78793 17.3856 6.78794 17.3856 5.26855 17.3856H1.59353C1.60303 19.0058 2.29353 20.1737 3.39102 21.154C3.46129 21.21 3.54794 21.2417 3.63792 21.2445C4.66757 21.2499 5.69587 21.2485 6.78793 21.2485ZM6.78793 34.6559C6.78793 33.731 6.81235 32.8818 6.7703 32.0338C6.7608 31.8273 6.56952 31.5991 6.40537 31.4357C5.34452 30.365 4.23482 29.3348 3.20923 28.2398C2.73307 27.7335 2.23927 27.6862 1.59217 27.8347C1.59217 28.8568 1.85128 29.802 2.51059 30.5243C3.78172 31.9164 5.14646 33.2247 6.47728 34.5641C6.5139 34.61 6.5953 34.606 6.78658 34.6559H6.78793ZM40.4207 27.8401C39.7505 27.6808 39.2553 27.7402 38.7805 28.2452C37.7441 29.3402 36.6439 30.3745 35.5749 31.4371C35.4487 31.5613 35.2561 31.7071 35.2507 31.8489C35.2222 32.7724 35.2358 33.6973 35.2358 34.6708C35.4067 34.6127 35.484 34.61 35.5233 34.5695C36.7999 33.3003 38.1009 32.0541 39.3327 30.7431C40.0612 29.968 40.3637 28.9703 40.4193 27.8401H40.4207ZM17.3287 18.3564C17.0856 18.0661 16.7836 17.8303 16.4425 17.6644C16.1014 17.4985 15.7289 17.4062 15.3494 17.3937C14.4283 17.3545 13.5031 17.3748 12.5806 17.3937C12.4232 17.3937 12.1329 17.5017 12.1329 17.5625C12.1329 18.1026 11.981 18.7925 12.2496 19.1746C12.8343 20.005 13.6387 20.6801 14.3672 21.4321L17.3287 18.3564ZM17.8944 26.8099L17.0492 26.0201C15.5217 27.5836 14.0457 29.0999 12.5643 30.6107C11.9946 31.19 11.8752 31.857 12.2008 32.636L17.8944 26.8099ZM29.8786 32.817C29.9871 31.8948 30.1146 31.1387 29.3359 30.473C28.3985 29.6724 27.5547 28.7596 26.6865 27.8793C26.1072 27.2906 25.5564 26.6722 25.007 26.0835L24.0832 26.9153L29.8786 32.817ZM6.30092 26.336L6.38231 26.1483C6.23444 25.9904 6.09065 25.827 5.93735 25.6744C5.10576 24.8481 4.23618 24.0542 3.45071 23.1887C2.90807 22.592 2.32202 22.5636 1.59217 22.7459C1.61795 24.1501 2.17144 25.2815 3.17668 26.2105C3.26047 26.2835 3.36658 26.3263 3.47784 26.332C4.41932 26.3455 5.35944 26.3414 6.30092 26.3414V26.336ZM35.5084 26.336C36.6615 26.336 37.6396 26.3428 38.6164 26.3266C38.7263 26.3266 38.8497 26.2024 38.9406 26.1106C39.757 25.3243 40.2702 24.2779 40.3908 23.1536C40.4085 23.0024 40.2674 22.7 40.1819 22.6932C39.684 22.6554 39.1794 22.5325 38.7425 22.9943C37.8486 23.9394 36.8989 24.8333 35.9765 25.7528C35.8449 25.8878 35.7418 26.0525 35.5084 26.3387V26.336ZM17.2174 24.0677C17.5281 23.718 18.0531 23.3926 18.1019 23.0186C18.2281 22.0411 18.144 21.0365 18.144 20.0239L15.6682 22.5069L17.2174 24.0677ZM15.9707 25.0412L14.5056 23.4993L12.9781 25.0628L14.4703 26.6425L15.9707 25.0412ZM21.0078 30.1193L19.62 31.4695H22.3589L22.4336 31.3263L21.0078 30.1193ZM5.1356 27.8077L6.75402 29.4914V27.8077H5.1356ZM37.0916 27.7672C36.496 27.7672 36.0063 27.7497 35.5233 27.7807C35.4561 27.7975 35.3942 27.8311 35.3436 27.8784C35.293 27.9256 35.2554 27.985 35.2344 28.0508C35.2032 28.5449 35.2195 29.0405 35.2195 29.6494L37.0916 27.7672ZM12.1411 23.4871L12.3201 23.5762C12.6539 23.186 13.2467 22.7972 13.2467 22.407C13.2467 22.0168 12.6362 21.6549 12.2971 21.2782L12.1451 21.3808L12.1411 23.4871ZM13.2793 27.8631C12.9333 27.4135 12.6159 27.0003 12.2998 26.5872C12.2523 26.6236 12.2048 26.6601 12.1641 26.6979V28.9932L13.2793 27.8631ZM29.7036 28.9135L29.8568 28.8312V26.5007L28.5857 27.6687C28.9995 28.1223 29.3522 28.5139 29.7036 28.9068V28.9135ZM6.62786 24.2594L6.80964 24.2149C6.76623 23.7221 6.90053 23.0335 6.63057 22.7891C6.36061 22.5447 5.67146 22.6851 5.19665 22.6622L6.62786 24.2594ZM35.29 24.0947C35.7635 23.6789 36.2803 23.2265 36.8175 22.758C35.1164 22.542 35.039 22.461 35.2954 24.0947H35.29Z" fill="#FFBF00"/>
</svg>
