<svg width="13" height="11" viewBox="0 0 13 11" fill="none" xmlns="http://www.w3.org/2000/svg">
<path d="M6.53472 0.00132883C8.24353 0.00132883 9.95234 0.00132883 11.6612 0.00132883C12.5559 0.00132883 13.0033 0.412047 12.9996 1.25807C12.9941 2.61661 13.0218 3.97867 12.9423 5.33282C12.7898 7.93933 10.8302 10.1351 8.14493 10.8003C4.48452 11.706 0.716881 9.43654 0.119752 5.89274C-0.0531007 4.8633 0.0328633 3.79437 0.00975467 2.74299C-0.0013375 2.21642 -0.00503488 1.68985 0.00975467 1.16329C0.0328633 0.428725 0.495036 0.00396252 1.26779 0.0022073C3.02497 -0.00218077 4.77939 0.00132883 6.53472 0.00132883ZM6.51346 5.59084C5.70003 4.85101 4.92821 4.1384 4.14251 3.43806C3.69697 3.0405 3.15531 3.04401 2.79389 3.41962C2.44911 3.77769 2.48608 4.27442 2.90758 4.66408C3.86829 5.55164 4.83361 6.43393 5.80356 7.31096C6.28977 7.74976 6.73808 7.74976 7.21874 7.31096C8.16527 6.45265 9.10964 5.59201 10.0519 4.72903C10.5418 4.28232 10.6 3.76365 10.2072 3.38803C9.82909 3.02733 9.29759 3.06419 8.82063 3.49334C8.06359 4.17876 7.31025 4.86681 6.51346 5.59084Z" fill="#FFBF00" fill-opacity="0.65"/>
</svg>
