<svg width="32" height="32" viewBox="0 0 32 32" fill="none" xmlns="http://www.w3.org/2000/svg">
<path d="M27.5293 4.68848L32 0.0780277V13.8794H18.4903L24.683 7.74211C22.9515 5.9452 21.1355 4.91169 19.043 4.36586C16.8288 3.78585 14.4947 3.84809 12.3147 4.5453C10.1347 5.24252 8.19927 6.54578 6.73568 8.30205C5.2721 10.0583 4.34107 12.1947 4.0519 14.4605C3.76274 16.7262 4.12743 19.0272 5.10318 21.0934C6.07892 23.1595 7.62521 24.9051 9.56052 26.1251C11.4958 27.3452 13.7398 27.989 16.0291 27.9812C18.3183 27.9733 20.5578 27.314 22.4847 26.0806C24.4115 24.8473 25.9456 23.0911 26.9071 21.0183C27.2718 20.2136 27.6741 19.8797 28.5577 19.9548C29.4846 20.0354 30.4246 19.9735 31.3589 19.9735C31.3589 24.2876 25.5309 30.1435 19.9642 31.5147C16.4714 32.3927 12.7842 32.073 9.49554 30.607C6.20693 29.141 3.50819 26.6139 1.83347 23.4323C-1.59565 16.9218 -0.0991702 8.95942 5.3566 3.99821C10.3085 -0.497829 20.1165 -2.36789 27.5293 4.68848Z" fill="#FFBF00" fill-opacity="0.65"/>
</svg>
