<svg width="34" height="34" viewBox="0 0 34 34" fill="none" xmlns="http://www.w3.org/2000/svg">
<path d="M30.2809 34C29.6965 33.4116 29.1119 32.8234 28.5271 32.2353C26.3999 30.1067 24.272 27.9786 22.1435 25.851C21.6059 25.3131 21.5751 24.6437 22.0598 24.053C22.0668 24.0438 22.0729 24.0341 22.0781 24.0238L19.2226 21.1726C18.8723 21.4127 18.5124 21.6787 18.1342 21.9154C16.6185 22.8707 14.9028 23.4633 13.1205 23.6469C7.17287 24.2758 1.72059 20.4395 0.32041 14.625C0.178633 14.0366 0.124844 13.427 0.0295508 12.8274C0.021914 12.7792 0.00996094 12.7314 0 12.6836V11.0234C0.010293 10.9703 0.0235743 10.9179 0.0298829 10.8644C0.0680665 10.552 0.0906444 10.2365 0.144101 9.92674C0.642148 7.03508 2.00879 4.6335 4.25398 2.74391C5.9334 1.33012 7.86881 0.464844 10.0396 0.128828C10.3663 0.0783595 10.6951 0.0425 11.0231 0H12.6833C13.0113 0.042832 13.34 0.0800186 13.6671 0.129823C15.554 0.41703 17.2762 1.11596 18.8136 2.24553C21.1955 3.99766 22.7707 6.30859 23.4079 9.20158C24.2247 12.9127 23.4328 16.2831 21.1003 19.2874C21.0797 19.3136 21.0591 19.3395 21.0392 19.3657C21.0358 19.37 21.0348 19.3757 21.0392 19.3631C21.9898 20.3133 22.9351 21.2586 23.8614 22.1853C24.0699 22.0897 24.2834 21.9506 24.5165 21.8941C24.9771 21.7822 25.3738 21.9406 25.7065 22.274C26.9536 23.5231 28.2016 24.771 29.4505 26.0176C30.9214 27.4885 32.3925 28.9592 33.8639 30.4297C33.9057 30.4718 33.9538 30.508 33.9993 30.5469V30.9121L30.9114 34H30.2809ZM2.48725 11.8485C2.48725 17.0086 6.67084 21.2145 11.807 21.2181C17.0286 21.2218 21.2155 17.0491 21.2178 11.8392C21.2201 6.6974 17.0269 2.49023 11.897 2.48758C6.68047 2.48525 2.48791 6.6559 2.48725 11.8485Z" fill="#FFBF00" fill-opacity="0.65"/>
</svg>
