<svg width="31" height="21" viewBox="0 0 31 21" fill="none" xmlns="http://www.w3.org/2000/svg">
<path d="M24.3414 0H24.8201C25.3095 0.157892 25.7433 0.39532 26.0132 0.894518C26.1077 0.663023 26.1795 0.487921 26.2782 0.245148C26.4416 0.407195 26.5654 0.514037 26.6695 0.636908C26.7736 0.759778 26.8652 0.904019 26.9567 1.03164C28.1246 0.576364 28.5123 0.510474 28.8594 0.679643C28.6338 0.889176 28.3885 1.10108 28.1665 1.33258C28.1353 1.37217 28.114 1.41849 28.1042 1.46779C28.0945 1.51708 28.0965 1.56796 28.1103 1.61631C28.4902 2.44138 28.9078 3.24984 29.2698 4.08144C29.6797 5.02345 30.0399 5.98623 30.4294 6.93655C30.6148 7.38945 30.4587 7.71948 30.0877 7.98718C30.0153 8.03942 29.9435 8.09343 29.8681 8.14032C29.3572 8.45729 29.2022 8.45017 28.7708 8.04119C28.3101 7.60432 27.8901 7.12056 27.4031 6.71574C26.9657 6.35128 26.4661 6.05865 25.9844 5.74939C25.7702 5.61168 25.5716 5.64908 25.4262 5.88295C25.3167 6.06102 25.1869 6.22247 25.072 6.39639C24.2397 7.65953 23.633 9.00813 23.5391 10.5592C23.5923 10.5722 23.6671 10.5965 23.7437 10.6084C24.5814 10.7343 25.419 10.866 26.2567 10.9788C26.4918 11.0103 26.6157 11.0975 26.6958 11.329C27.0548 12.344 27.4425 13.3472 27.8057 14.3628C27.8506 14.488 27.8614 14.6709 27.8003 14.7783C27.5431 15.2354 27.561 15.6722 27.8093 16.1192C27.8555 16.2069 27.8903 16.3 27.9128 16.3964C27.929 16.4599 27.9481 16.546 27.9188 16.5941C27.7124 16.9377 27.4934 17.2749 27.2888 17.5978C26.7072 17.2642 26.3069 16.854 26.1921 16.1999C26.1508 15.9625 26.1573 15.8046 26.3446 15.6621C26.5319 15.5197 26.5738 15.36 26.5122 15.1214C26.3781 14.6056 26.2896 14.0785 26.1795 13.5567C26.0718 13.048 25.9593 12.5405 25.8444 12.0134L23.1394 12.4414C23.2351 12.6106 23.2998 12.7429 23.3787 12.8646C23.9304 13.6992 24.4767 14.5379 25.0445 15.3618C25.3022 15.7253 25.4574 16.1505 25.4938 16.5935C25.5704 17.4743 25.8612 18.2602 26.6737 18.7576C26.7419 18.7994 26.7948 18.8619 26.8245 18.9357C26.9441 19.2883 27.0453 19.648 27.1536 20.0042H25.5381C25.0852 18.9256 24.7788 17.8079 24.5485 16.6617C24.5221 16.5305 24.4103 16.3994 24.3055 16.3056C23.6737 15.731 23.0329 15.1659 22.3939 14.599C22.1594 14.3913 21.9218 14.1877 21.6759 13.9722C21.6503 14.0156 21.6279 14.0609 21.6089 14.1076C21.2625 15.2621 20.9226 16.4184 20.569 17.5705C20.4194 18.0596 20.5505 18.4947 20.8185 18.8888C20.9107 19.0242 21.1177 19.08 21.2703 19.1791C21.4438 19.2931 21.64 19.391 21.7722 19.5429C21.8746 19.6617 21.8919 19.8486 21.9517 20.0059H19.7942C19.9821 19.556 19.9904 19.1257 19.659 18.7292C19.6213 18.684 19.6027 18.6241 19.5662 18.5778C19.1935 18.1077 19.215 17.6138 19.4035 17.0689C19.8223 15.8556 20.1981 14.6275 20.6067 13.4101C20.6773 13.1982 20.6336 13.0878 20.4482 12.9845C20.219 12.8569 20.1687 13.0534 20.0892 13.1697C19.9916 13.3071 19.9098 13.4548 19.8451 13.6101C19.3066 14.9362 18.7681 16.2622 18.2445 17.5948C18.0441 18.1071 18.2445 18.5659 18.5473 18.9779C18.6301 19.0748 18.7432 19.1414 18.8686 19.1672C19.3473 19.2699 19.5489 19.505 19.5561 20.0059H17.4607C17.6504 19.5554 17.6522 19.1257 17.3237 18.728C17.2681 18.6603 17.24 18.5701 17.1867 18.4994C16.8511 18.0554 16.878 17.5948 17.073 17.0998C17.5074 15.9969 17.9328 14.8893 18.3361 13.7757C18.4456 13.4736 18.4641 13.1388 18.524 12.8207C17.1478 12.8207 15.8471 12.8919 14.5607 12.8005C13.2515 12.7073 12.0842 12.0609 10.9289 11.6098C10.7494 12.7453 10.5836 13.8654 10.3904 14.9813C10.3495 15.2125 10.3832 15.4505 10.4867 15.6615C10.8457 16.454 11.2047 17.2464 11.5326 18.0519C11.6887 18.4359 11.8916 18.7642 12.2817 18.9185C12.8094 19.128 12.9045 19.5121 12.7914 20.0071H11.4177C11.0665 18.8983 10.4005 17.9617 9.7741 16.9995C9.68305 16.8595 9.61744 16.7048 9.58025 16.5424C9.46058 16.0028 9.3481 15.4609 9.25835 14.916C9.14527 14.2328 8.79824 13.6493 8.51045 12.9809C8.46632 13.0427 8.42787 13.1083 8.39557 13.1768C8.2053 13.7894 8.00786 14.4002 7.83853 15.0169C7.79274 15.1975 7.79274 15.3866 7.83853 15.5672C8.0461 16.393 8.40774 17.1729 8.90474 17.8667C9.17399 18.2395 9.4893 18.5564 9.95061 18.7143C10.1036 18.781 10.2238 18.905 10.2851 19.0592C10.3952 19.3625 10.446 19.6866 10.5214 20.0024H8.48592C8.43147 19.854 8.37343 19.7056 8.32198 19.5578C7.91512 18.3783 7.48014 17.2138 6.62693 16.2593C6.5294 16.1495 6.46299 16.0118 6.37623 15.8913C6.17243 15.6197 6.07178 15.2854 6.09203 14.9475C6.11117 14.58 6.09622 14.2108 6.09622 13.8197C5.86347 13.8962 5.64149 13.9841 5.41234 14.0405C5.22865 14.085 5.18617 14.1806 5.19156 14.3557C5.21908 15.2644 5.23045 16.1738 5.26156 17.0826C5.2727 17.2062 5.32416 17.3229 5.40815 17.415C5.87065 17.9195 6.32238 18.4371 6.82438 18.8989C7.1714 19.22 7.29466 19.5578 7.16961 19.9988H5.79347C5.63252 19.6071 5.47755 19.2123 5.30583 18.8253C5.28591 18.782 5.25743 18.7431 5.22208 18.7108C5.18672 18.6786 5.14522 18.6538 5.10001 18.6377C4.677 18.538 4.54896 18.2454 4.53221 17.8596C4.52113 17.7517 4.50234 17.6448 4.47596 17.5396C4.33077 16.7426 4.18518 15.9459 4.03919 15.1493C3.68019 16.3085 3.38702 17.4708 3.12017 18.6389C3.09025 18.7695 3.18478 19.0325 3.2847 19.0699C3.73464 19.2379 3.84772 19.6249 3.9985 19.9988H1.54538C1.96421 18.0275 2.38602 16.0569 2.79767 14.0838C2.88143 13.682 3.05016 13.3418 3.36249 13.0688C3.69096 12.7809 4.00329 12.4752 4.33775 12.1927C4.47118 12.0799 4.48913 11.9891 4.40955 11.8425C4.28988 11.6252 4.18458 11.4014 4.08645 11.1747C3.76336 10.4303 3.40856 9.69075 3.46001 8.85024C3.4995 8.20443 3.55754 7.5598 3.61438 6.82377C3.47736 7.06891 3.3583 7.23928 3.28351 7.42329C3.04837 8.01033 2.80066 8.595 2.61398 9.19748C2.45663 9.70262 2.32021 10.2267 2.27593 10.7515C2.17721 11.9232 2.14909 13.1009 2.07849 14.2749C2.02763 15.1119 1.15348 16.0313 0.321215 16.1376C0.221296 16.1507 0.0723136 16.1376 0.0220546 16.0782C-0.0282044 16.0189 0.0190637 15.8788 0.0489798 15.7814C0.122573 15.544 0.260187 15.3214 0.288309 15.0834C0.442676 13.6998 0.62636 12.3161 0.692774 10.9284C0.738844 9.96498 0.991934 9.10785 1.51128 8.30949C2.30346 7.09681 3.30146 6.05865 4.36288 5.08518C4.86887 4.60988 5.52318 4.32008 6.21768 4.26367C7.25038 4.19244 8.28727 4.16276 9.32237 4.14495C10.342 4.13561 11.3538 4.32206 12.302 4.69401C13.0385 4.97655 13.802 5.13148 14.5822 5.08459C15.7938 5.01158 17.0102 4.93203 18.2074 4.74684C18.9907 4.62812 19.7248 4.65721 20.4667 4.88455C20.6989 4.95578 20.931 5.02523 21.1632 5.09527C20.496 4.44233 19.6338 4.29512 18.7531 4.11527C19.0373 3.88971 19.3209 3.67424 19.635 3.52169C19.9492 3.36914 20.2896 3.27239 20.6366 3.14477C20.2471 2.88301 19.8068 2.90734 19.3036 2.89013C20.006 2.25678 20.8131 2.12797 21.6436 2.05912V1.97305L20.4673 1.79142C21.3271 1.11177 22.285 0.960408 23.3393 1.00077L22.6637 0.484361C23.4757 0.346651 24.15 0.59061 24.8177 0.994242C24.8716 0.538968 24.5646 0.289072 24.3414 0ZM28.0367 3.96806C28.0576 4.27791 28.1887 4.43699 28.4088 4.42453C28.5339 4.41741 28.6482 4.2702 28.7714 4.1871C28.6015 4.07491 28.4399 3.94611 28.2575 3.86004C28.206 3.83511 28.0941 3.9372 28.0367 3.96806Z" fill="#FFBF00" fill-opacity="0.65"/>
</svg>
