<svg width="107" height="104" viewBox="0 0 107 104" fill="none" xmlns="http://www.w3.org/2000/svg">
<path d="M0.832026 103.577C0.00380552 103.577 0.00380626 103.577 0.00380626 102.757C0.00380626 100.426 0.00380626 98.0944 0.00380626 95.7629C-0.0121593 95.5679 0.0222761 95.3721 0.103819 95.1942C0.185363 95.0163 0.311282 94.8623 0.469527 94.7469C4.24813 91.7685 8.01234 88.7709 11.7933 85.7948C11.9971 85.6581 12.162 85.471 12.2718 85.2518C12.3816 85.0326 12.4326 84.7888 12.4199 84.544C12.4087 59.3427 12.4087 34.1414 12.4199 8.94011C12.4199 6.8187 12.4087 4.69809 12.3863 2.57828C12.3863 1.93371 12.3215 1.28674 12.2591 0.644569C12.2135 0.165335 12.3791 0 12.8952 0C19.457 0.0159745 26.0187 0.0159745 32.5805 0H93.115C94.0873 0 94.0753 8.9407e-07 94.0609 0.958468C94.0465 1.65096 94.0297 2.34345 94.0297 3.03595C94.0297 30.0647 94.0249 57.0935 94.0153 84.1223C93.9911 84.437 94.0473 84.7527 94.1787 85.0398C94.3102 85.3269 94.5125 85.5759 94.7667 85.7637C98.3796 88.7158 101.949 91.7205 105.548 94.6918C105.721 94.8207 105.858 94.9905 105.949 95.1858C106.04 95.3812 106.08 95.596 106.066 95.8108C106.042 98.1207 106.066 100.433 106.066 102.743C106.066 103.577 106.066 103.577 105.253 103.577H0.832026ZM105.522 95.5304C70.4818 96.5384 35.4877 96.5384 0.539148 95.5304V103.035H105.522V95.5304ZM24.9561 11.0056L24.9249 11.0967C25.0098 11.1414 25.0971 11.1814 25.1865 11.2165C33.2111 14.0216 41.238 16.8171 49.2673 19.6031C49.8387 19.7995 50.0307 20.0463 50.0283 20.6574C50.0123 40.7133 50.0123 60.7684 50.0283 80.8228V81.6495H56.426V80.7102C56.426 60.675 56.422 40.6414 56.414 20.6094C56.414 20.0631 56.5629 19.8115 57.0982 19.6246C65.0347 16.877 72.9657 14.1126 80.891 11.3315C81.0878 11.262 81.2823 11.1829 81.4791 11.1062L81.4335 10.9936L24.9561 11.0056ZM1.05049 94.9194C35.7733 93.9801 70.3306 93.961 105.037 94.9194L94.0225 85.7757C94.0225 87.1558 93.9985 88.3875 94.0225 89.6095C94.0369 90.163 93.9024 90.3811 93.3023 90.3691C91.3674 90.3308 89.4252 90.2828 87.4951 90.3859C86.8624 90.4438 86.2245 90.3757 85.6183 90.1857C85.0121 89.9957 84.4497 89.6874 83.9638 89.2788C83.5503 88.9706 83.0641 88.7741 82.5522 88.7086C80.7661 88.4378 78.9705 88.2293 77.1772 88.0089C73.3217 87.5296 69.4655 87.0456 65.6085 86.5568C62.7277 86.195 59.847 85.814 56.9782 85.4713C56.4981 85.4162 56.3948 85.2317 56.4092 84.7908C56.4357 83.957 56.4092 83.1135 56.4092 82.2461H50.0932C50.0595 82.3276 50.0307 82.3635 50.0307 82.4018C50.0307 83.032 50.0307 83.6622 50.0115 84.2924C49.9827 85.5312 50.278 85.3611 48.8784 85.5408C45.3567 85.9985 41.8326 86.425 38.3156 86.8683C34.0977 87.4026 29.9014 87.9705 25.6714 88.4498C24.0606 88.6319 22.5338 88.8979 21.2831 90.0456C21.0217 90.2464 20.7006 90.3543 20.3708 90.3523C17.9318 90.3787 15.4903 90.3523 13.0489 90.3835C12.5688 90.3835 12.3647 90.2565 12.3887 89.7461C12.4247 88.9913 12.3887 88.2341 12.3887 87.4793V85.9482L1.05049 94.9194ZM20.4957 89.8467V9.0048C20.4957 8.16614 20.4957 8.16375 21.3119 8.16375H85.0009C85.9419 8.16375 85.9419 8.16375 85.9419 9.07669V89.8276H93.4895V0.642174H12.9385V89.8539L20.4957 89.8467ZM23.3884 11.2213V88.2102C23.5484 88.2189 23.7086 88.2189 23.8686 88.2102L35.2524 86.7725C39.7752 86.2046 44.298 85.6223 48.8256 85.0808C49.3634 85.0161 49.5122 84.8627 49.5122 84.3212C49.4978 63.1726 49.4978 42.0248 49.5122 20.8778C49.5122 20.3555 49.3394 20.159 48.8688 20.008C41.8446 17.5959 34.8235 15.1709 27.8056 12.7332C26.3412 12.2276 24.8768 11.7292 23.3884 11.2213ZM83.0251 11.2213C82.7851 11.2931 82.6386 11.3411 82.485 11.3938C74.174 14.2692 65.8638 17.1382 57.5544 20.0008C57.0526 20.1709 56.8918 20.3914 56.8918 20.9186C56.9062 42.0048 56.9102 63.0911 56.9038 84.1774C56.911 84.3035 56.911 84.4299 56.9038 84.556C56.863 84.9106 57.0406 85.0209 57.3719 85.0616C61.0625 85.5153 64.7523 85.9761 68.4413 86.4442C72.4023 86.941 76.3634 87.4378 80.3244 87.9346C81.2103 88.0448 82.1009 88.1407 83.0275 88.2461L83.0251 11.2213ZM85.4138 89.6287V9.17493L85.2505 9.05033C84.963 9.43073 84.6416 9.7844 84.2903 10.107C83.6877 10.5863 83.5221 11.1446 83.5221 11.8994C83.5413 37.0975 83.5469 62.2956 83.5389 87.4937C83.5248 87.7037 83.5288 87.9146 83.5509 88.1239C83.5739 88.2816 83.6511 88.4265 83.7693 88.5336C84.2807 88.8955 84.8112 89.2309 85.4138 89.6263V89.6287ZM21.0094 89.6287C21.375 89.3495 21.7583 89.0941 22.1569 88.8643C22.7499 88.572 22.8771 88.1335 22.8771 87.5033C22.8547 77.8627 22.8499 68.2237 22.8627 58.5863C22.8627 42.8994 22.8627 27.2125 22.8627 11.5256C22.8627 11.286 22.8987 10.9601 22.7643 10.8067C22.2481 10.2149 21.6696 9.67813 21.0214 9.02637L21.0094 89.6287ZM85.0561 8.71007H21.5375L21.4487 8.85145C21.7405 9.05423 22.0093 9.28802 22.2505 9.54873C22.8507 10.3514 23.6213 10.5072 24.596 10.5072C43.5674 10.48 62.5405 10.4729 81.5151 10.4856C81.9569 10.4856 82.3986 10.5096 82.8379 10.4856C83.0593 10.469 83.2703 10.3854 83.4428 10.246C83.9614 9.79075 84.4463 9.29713 85.0561 8.71007ZM10.1561 95.195C16.4698 95.9282 92.7789 95.8947 95.9982 95.1686C67.3154 94.5552 38.7013 94.564 10.1561 95.195Z" fill="#FFBF00"/>
<path d="M86.991 7.09984H19.437V87.8675C19.437 88.802 19.437 88.802 18.5247 88.802H14.8638C13.9947 88.802 13.9923 88.802 13.9923 87.9585C13.9923 78.1279 13.9923 68.298 13.9923 58.4689C13.9923 39.8395 13.9923 21.2093 13.9923 2.57827C13.9923 1.51437 13.9203 1.63897 14.9526 1.63897H91.5978C92.4477 1.63897 92.45 1.63897 92.45 2.49919C92.45 18.881 92.45 35.2628 92.45 51.6446C92.45 63.7213 92.45 75.7972 92.45 87.8723C92.45 88.802 92.45 88.8044 91.5354 88.8044C90.2943 88.8044 89.0507 88.7708 87.812 88.8188C87.183 88.8427 86.9886 88.675 86.991 88.0208C87.0134 78.1694 87.0182 68.3187 87.0054 58.4689C87.0054 41.5615 87.0054 24.6542 87.0054 7.7468L86.991 7.09984ZM28.6554 4.07108C28.3218 3.46725 28.0697 2.93769 27.748 2.45367C27.3279 1.81629 26.7133 2.25718 26.2764 2.15415C26.6725 2.84185 27.0758 3.496 27.4335 4.17172C27.6736 4.65095 27.4599 4.80431 26.9702 4.79712C25.5298 4.77795 24.4015 3.79073 24.0102 2.16133H23.05L22.8675 2.81069C22.6995 2.71245 22.565 2.67411 22.5026 2.58785C22.2097 2.18529 21.8208 2.10862 21.3479 2.10862C20.339 2.16974 19.3272 2.16974 18.3183 2.10862C17.2812 2.01037 16.6378 2.49919 16.1313 3.27316C15.8789 3.63338 15.6762 4.02588 15.5288 4.44009C15.3583 4.97204 15.1903 5.42731 14.4989 5.31709V6.34025C15.0678 6.2468 15.123 6.5583 15.1446 7.00399C15.2191 8.56869 15.5816 10.0423 16.7819 11.1661C17.3748 11.722 18.0638 12.012 18.9137 11.77V10.7061C18.0014 10.9457 17.3748 10.488 17.0484 9.77396C16.6919 8.93292 16.4194 8.05889 16.2345 7.16453C16.1001 6.60383 16.3186 6.44568 16.8539 6.71645C17.5549 7.06389 18.2175 7.49281 18.8824 7.87859C19.0577 6.68051 19.0121 6.56549 17.9414 6.03115C17.5684 5.83871 17.1797 5.67839 16.7795 5.55191C16.4338 5.44888 16.285 5.25239 16.4674 4.96006C16.8491 4.34664 17.1732 3.63258 17.7133 3.19169C19.4946 1.73002 21.6552 2.42491 22.3442 4.60782C22.4642 4.98881 22.5626 5.3746 22.6659 5.76038C22.9059 6.6877 22.9827 6.71885 23.9646 6.47923C23.847 6.03594 23.7125 5.59504 23.6189 5.14696C23.5916 4.91395 23.586 4.67892 23.6021 4.44488C23.8176 4.52657 24.023 4.6327 24.2143 4.76118C24.8762 5.35408 25.7037 5.73111 26.5861 5.84185C26.915 5.88019 27.2463 5.90175 27.5968 5.9329L27.64 6.54872H28.7083C28.497 5.48242 29.2196 4.97683 29.9302 4.49041C30.1054 4.3682 30.3839 4.39217 30.6144 4.35143C30.6054 4.5642 30.5741 4.77543 30.5207 4.98162C30.3335 5.48722 30.1126 5.98322 29.9182 6.45047C31.1185 7.09984 31.1401 5.83945 31.7043 5.34824C31.9731 5.75079 32.1268 6.17491 32.4245 6.37859C32.7221 6.58226 33.1807 6.56309 33.5696 6.64217L33.6824 6.46964C33.3055 5.87779 32.9334 5.27156 32.5469 4.69169C32.242 4.22683 32.5325 3.4936 33.0846 3.4936C34.3882 3.47443 35.6941 3.46964 36.9929 3.54632C37.6747 3.58705 38.3228 3.86501 38.5941 4.58626C38.6256 4.80328 38.6166 5.02424 38.5677 5.23801L38.0131 4.95527C37.7731 4.83546 37.5186 4.56948 37.3242 4.61261C36.4959 4.79233 35.8598 5.64057 35.7877 6.5631C36.1863 6.49121 36.6664 6.82667 36.9377 6.25878C37.1777 5.73402 37.4178 5.90654 37.7251 6.23482C37.8994 6.40931 38.1246 6.52422 38.3684 6.5631C38.6949 6.61821 39.0406 6.56309 39.3743 6.58226C39.9889 6.63019 40.529 6.53913 40.9755 6.04552C41.0716 5.93769 41.4076 5.98801 41.6117 6.04552C42.1446 6.20127 42.6632 6.52476 43.1961 6.55351C45.047 6.61821 46.8979 6.57987 48.7512 6.57507C48.9213 6.5625 49.0905 6.53929 49.2577 6.50559C48.4391 5.91613 48.4727 5.95207 49.1617 5.3075C49.6128 4.90195 49.982 4.41393 50.2492 3.8698C50.4893 3.35702 50.7629 3.13657 51.3055 3.08146C51.5664 3.04443 51.8323 3.06845 52.0823 3.15162C52.3322 3.23479 52.5594 3.37484 52.7459 3.5607C52.9938 3.80531 53.3012 3.9814 53.6379 4.07171C53.9746 4.16203 54.329 4.16346 54.6664 4.07587C54.9535 4.02592 55.2474 4.02999 55.533 4.08785C55.6482 4.10702 55.7347 4.29872 55.8355 4.41373C55.7323 4.5008 55.6176 4.57336 55.4946 4.62939C54.9263 4.76602 54.3655 4.93157 53.8142 5.12539C53.1073 5.42615 52.5322 5.97039 52.1937 6.65894C52.7226 6.60117 53.2477 6.51236 53.7661 6.39297C54.3783 6.20607 54.9497 5.86341 55.569 5.72444C56.6445 5.48482 56.6877 5.54712 57.0094 6.51757H57.9697C57.7848 5.79872 58.0969 5.66453 58.7379 5.59983C59.5781 5.51118 60.4975 5.36022 61.1985 4.94089C61.9657 4.4737 62.852 4.23819 63.7504 4.26277C64.1705 4.26277 64.5882 4.1837 65.0083 4.1837C65.241 4.20919 65.4703 4.25898 65.6925 4.33226L63.9473 6.50079C64.7179 6.60383 65.2292 6.69728 65.6277 6.07428C65.839 5.74361 66.2495 5.52316 66.588 5.29552C67.0105 5.01996 67.2217 5.25239 67.2361 5.67412C67.2237 5.95857 67.1875 6.24149 67.1281 6.51996C68.1532 6.64456 68.1676 6.64696 68.3044 5.66214C68.3668 5.19967 68.6189 5.34344 68.8902 5.41054C69.5984 5.58066 70.3762 5.9952 71.0075 5.83706C72.1023 5.54388 73.2431 5.46254 74.3684 5.59744C75.2423 5.70766 75.2591 5.56629 74.9254 6.36661C74.9157 6.40677 74.9157 6.44865 74.9254 6.48881C75.9889 7.01597 76.2649 5.98322 76.8459 5.48242C77.3428 6.05031 77.5661 7.00399 78.6728 6.44089C78.4207 5.98801 78.1927 5.50399 77.8878 5.05591C77.6237 4.65335 77.7701 4.44249 78.171 4.41613C78.566 4.38961 78.9627 4.42355 79.3474 4.51677C79.8116 4.65234 80.2684 4.81231 80.7157 4.996C81.0765 5.1459 81.4679 5.20778 81.8574 5.17653C82.2469 5.14528 82.6234 5.02178 82.9555 4.81629C83.0301 4.77186 83.1137 4.74489 83.2002 4.73742C83.2867 4.72995 83.3738 4.74217 83.4548 4.77316C84.8952 5.73162 86.182 5.3099 87.3703 4.32028C87.5083 4.18182 87.6831 4.08567 87.8741 4.04321C88.0651 4.00075 88.2643 4.01375 88.4482 4.08066C89.6053 4.46884 90.76 4.869 91.9003 5.25718C92.0852 4.29872 92.054 4.19808 91.0793 3.77635C90.5562 3.56077 90.0198 3.37908 89.4733 3.23242C88.6138 2.9928 88.6114 2.9928 88.8323 2.09903C88.417 2.17092 87.872 2.09903 87.7064 2.33865C87.3751 2.76756 87.0654 2.75558 86.6813 2.57827C85.6466 2.12299 84.5615 2.13498 83.4669 2.15654C82.6122 2.17332 82.533 2.23801 82.545 3.06469C82.545 3.98961 82.1897 4.29153 81.2799 4.05191C80.1372 3.75239 79.0041 3.42172 77.7917 3.09344C77.8037 2.90415 77.8302 2.56629 77.8542 2.20926H76.8795C76.7685 2.60611 76.6232 2.99255 76.445 3.36421C76.3736 3.45332 76.283 3.52523 76.1799 3.5746C76.0768 3.62396 75.9639 3.64951 75.8496 3.64935C74.7829 3.58431 73.7204 3.46354 72.6664 3.28753C71.8664 3.17076 71.0935 2.9136 70.3834 2.52795C69.9148 2.21776 69.348 2.09145 68.7917 2.17332C69.3751 3.50558 70.585 3.90814 71.8598 4.35622C71.6531 4.59102 71.3753 4.75219 71.0686 4.81532C70.7619 4.87844 70.443 4.84009 70.1601 4.70606C69.0414 4.25798 67.8027 4.15495 66.756 3.47923C66.3431 3.25916 65.8821 3.14473 65.414 3.14616C64.7683 3.10782 64.1129 3.19408 63.4623 3.1821C63.2895 3.1821 62.9942 3.03593 62.9678 2.91373C62.7805 2.01756 62.7853 2.00558 61.8923 2.21884C61.8923 2.31469 61.8923 2.41772 61.8779 2.52076C61.8299 3.17491 61.6162 3.29712 61.0377 2.99999C60.8936 2.92331 60.7064 2.82507 60.6536 2.69089C60.3823 2.01037 59.8566 2.08945 59.1004 2.21165C59.4821 2.76517 59.7701 3.25878 60.135 3.68769C60.4999 4.11661 60.4855 4.25798 59.9742 4.34903C59.2504 4.4664 58.52 4.53843 57.7872 4.56469C57.6989 4.55169 57.6144 4.51993 57.5395 4.47157C57.4645 4.42321 57.4008 4.35936 57.3527 4.28434C56.6469 3.22523 55.6915 2.8107 54.4239 3.01916C54.2631 3.04312 54.0992 3.03423 53.942 2.99304C53.7847 2.95185 53.6375 2.87922 53.5093 2.77955C52.3594 1.66772 50.9478 2.28593 49.6682 2.13737C49.6298 2.13737 49.5626 2.13737 49.553 2.17332C49.2721 2.83226 48.612 2.73402 48.0958 2.83226C47.7934 2.88977 47.2724 2.76996 47.1356 2.5543C46.7755 1.97204 46.341 2.1182 45.8584 2.17811C45.8503 2.25777 45.8503 2.33806 45.8584 2.41772C46.1369 3.51517 46.8523 3.95127 48.2735 3.91773C48.4474 3.93645 48.6179 3.97919 48.78 4.04472C48.708 4.1837 48.672 4.3682 48.5592 4.45447C46.7779 5.82987 44.3604 6.24201 42.3415 5.20447C42.2007 5.12737 42.0835 5.01361 42.0023 4.8753C41.9211 4.73699 41.879 4.5793 41.8805 4.41902C41.882 4.25873 41.927 4.10184 42.0107 3.96504C42.0944 3.82825 42.2137 3.71666 42.3559 3.64217C42.9489 3.31629 43.1697 2.84424 43.0209 2.13258H40.6202C39.6744 2.13258 39.6816 2.13258 39.6216 3.09105C39.5887 3.24169 39.5345 3.38691 39.4607 3.52236L39.0286 3.31868C38.426 3.04552 37.8403 2.72443 37.2185 2.51357C36.0686 2.12299 34.8467 2.69807 33.6392 2.19248C32.955 1.90494 32.05 2.14216 31.1377 2.14216C31.2663 2.30418 31.385 2.47382 31.493 2.65015C31.5842 2.82986 31.6442 3.02635 31.7187 3.21565C31.4978 3.24919 31.2577 3.35942 31.0609 3.3091C30.7573 3.2177 30.4364 3.1987 30.1241 3.25363C29.8118 3.30857 29.5168 3.4359 29.2628 3.62539L28.6554 4.07108ZM87.5335 47.7149C88.6138 47.4753 88.5898 47.4753 88.393 48.5511C88.0377 50.4992 87.8288 52.4545 88.2345 54.4266C88.2718 54.631 88.2595 54.8413 88.1985 55.04C87.6921 56.6397 87.4489 58.3107 87.4783 59.9881C87.5335 61.5815 87.4639 63.1798 87.5071 64.7804C87.5215 65.286 87.5936 65.8874 87.8768 66.2708C88.4434 67.0304 88.2945 67.9098 88.5058 68.7221C88.5298 68.8155 88.441 68.9377 88.369 69.1534L87.5575 68.5064C87.3391 69.393 87.4951 70.0639 88.3306 70.4881C88.6813 70.6788 89.0119 70.9044 89.3172 71.1614C89.4221 71.2872 89.5034 71.4309 89.5573 71.5855C89.3924 71.6082 89.2252 71.6082 89.0603 71.5855C88.5658 71.4513 88.0785 71.286 87.5215 71.1063V72.2253C87.7166 72.2608 87.9097 72.3064 88.1001 72.3619C88.9883 72.659 89.6509 73.1742 89.8742 74.1422C89.9708 74.469 90.0887 74.7892 90.2271 75.1007H90.4047C89.9246 76.4138 88.8779 76.9721 87.5239 77.0727V78.0863C89.1204 78.2085 90.7696 77.1278 91.365 75.6207C91.4346 75.4457 91.4658 75.2157 91.605 75.1151C92.1332 74.7077 92.1116 74.3267 91.6939 73.8427C91.5906 73.7229 91.6938 73.4042 91.7515 73.1814C91.7659 73.1071 91.9123 73.0663 91.9387 72.9873C92.1356 72.429 91.9387 71.643 91.4178 71.3339C90.2535 70.651 89.9174 69.4841 89.5405 68.3315C89.3796 67.8379 89.5621 67.5935 90.0902 67.6941C90.2879 67.7378 90.4781 67.8104 90.6544 67.9098C91.0577 68.1183 91.4514 68.3435 91.9435 68.6286C91.9435 68.1806 92.0515 67.8092 91.9195 67.5743C91.8374 67.4403 91.7926 67.2868 91.7896 67.1297C91.7867 66.9726 91.8257 66.8176 91.9027 66.6806C92.186 65.9617 91.9651 65.135 91.4226 64.917C90.88 64.6989 90.9208 64.4234 91.1081 64.004C91.6194 62.8539 92.0683 61.7085 91.9867 60.3858C91.8931 58.7085 90.8512 57.75 89.1588 57.9657C88.8515 58.0064 88.6474 57.9657 88.7411 57.5799C88.7819 57.4194 88.7891 57.2492 88.8251 57.0839C88.9643 56.4369 89.0651 56.4058 89.5597 56.8323C90.2127 57.4129 91.0594 57.7291 91.9339 57.7189V56.6957C90.9737 56.5903 90.2103 56.1925 89.7181 55.3299C89.4997 54.9465 89.5045 54.6302 89.867 54.4146C90.5103 54.0336 91.1849 53.6957 91.8475 53.3555C91.9627 53.262 91.9675 53.0344 91.9603 52.8043C91.9511 52.728 91.935 52.6526 91.9123 52.5791C91.0793 52.4689 90.712 52.5552 89.7013 53.1398C89.4132 53.3052 89.166 53.3938 89.1516 52.9409C89.094 51.0432 89.2068 49.167 89.8838 47.3627C90.011 47.0272 90.1694 46.9745 90.5031 47.123C90.9448 47.3171 91.4178 47.4345 91.8787 47.5855C92.0948 46.8427 91.9795 46.4162 91.2569 46.2772C90.736 46.1765 90.5367 45.889 90.9256 45.3978C92.2028 43.7828 91.9099 41.8754 91.9387 39.9441C91.3986 40.2029 90.9616 40.2724 90.4119 39.9249C89.2572 39.2061 87.9753 39.7979 87.644 41.1518C87.2863 42.623 87.644 43.9769 88.4218 45.2373C88.8227 45.8818 88.8491 46.0112 88.1601 46.3227C87.4711 46.6342 87.3991 47.0535 87.5335 47.7149ZM91.9123 11.8227C90.904 12.2516 90.3495 12.9609 90.2775 13.9481C90.2613 14.592 90.3226 15.2356 90.4599 15.865C90.5175 16.1909 90.4599 16.3155 90.1406 16.385C89.2572 16.5671 88.4602 15.992 88.5442 14.9952C88.609 14.1446 88.9451 13.3179 89.2044 12.4768C89.3724 11.9353 89.7781 11.6957 90.3591 11.5927C91.9051 11.3171 91.9387 11.2452 91.9315 9.71406C91.9315 9.14856 92.0755 8.48722 91.8355 8.03674C91.2305 6.91533 90.3423 6.00239 89.0675 5.59744C87.944 5.24041 86.8686 5.61661 86.3116 6.55591C86.4677 6.55591 86.6069 6.58945 86.7485 6.58945C87.3439 6.58945 87.9488 6.49361 88.5322 6.58945C89.5981 6.78115 90.2583 7.57428 90.82 8.42971C90.8872 8.53035 90.7936 8.81789 90.6856 8.94009C90.4215 9.23482 90.0878 9.46725 89.8141 9.75719C88.8707 10.754 88.8779 10.7588 87.62 10.1933C87.596 10.1933 87.5503 10.2173 87.4999 10.2388C87.5143 10.7851 87.2599 11.4369 88.1361 11.6214C88.193 11.7925 88.193 11.9774 88.1361 12.1486C87.4039 13.7181 87.063 15.2828 88.1361 16.9074C87.3031 17.2213 87.4327 17.8514 87.5191 18.5439C87.8336 18.3642 88.0833 18.2133 88.3401 18.0767C89.3916 17.516 90.1094 17.8562 90.3711 19.0543C90.4919 19.5255 90.5013 20.0182 90.3983 20.4936C90.2954 20.9689 90.0831 21.4138 89.7781 21.7931C89.1996 22.512 88.4842 23.0991 87.836 23.7532C87.6968 23.8922 87.5023 24.0575 87.4903 24.2324C87.4471 24.8267 87.4735 25.4305 87.4735 26.0967C87.6104 25.9984 87.656 25.9625 87.7136 25.9313L88.5634 25.3658C88.5886 25.6952 88.5886 26.0261 88.5634 26.3554C88.2129 28.615 88.7651 30.8626 90.9641 31.6677C91.6578 31.9074 91.7323 32.48 91.3049 33.1054C91.1001 33.4365 90.8189 33.7139 90.4848 33.9144C90.1507 34.1149 89.7734 34.2327 89.3844 34.258C88.6642 34.3035 87.8456 34.5288 87.5119 33.4673C87.4951 34.2221 87.3295 35.0272 87.6368 35.5615C87.9565 36.1334 88.398 36.6282 88.9302 37.0112C89.4623 37.3942 90.0722 37.6559 90.7168 37.778C91.7971 37.9888 92.0011 37.7924 91.9363 36.7309C91.9363 36.6949 91.8979 36.6614 91.8763 36.6278C90.6304 36.8674 89.3772 36.3331 89.1396 35.4297C89.3796 35.3842 89.6197 35.3363 89.8598 35.2955C91.3122 35.0439 91.9435 34.3107 91.9459 32.8634C91.9243 32.5491 91.9243 32.2337 91.9459 31.9193C92.0539 31.2005 91.7899 30.7428 91.0817 30.4816C90.7439 30.3572 90.4424 30.1511 90.204 29.8818C89.9656 29.6125 89.7978 29.2884 89.7157 28.9385C89.4351 27.9209 89.4609 26.8433 89.7901 25.8403C89.8333 25.6965 90.0014 25.4665 90.0734 25.4808C90.2451 25.5348 90.3966 25.6392 90.5079 25.7804C90.5848 25.8642 90.5655 26.0631 90.6496 26.1158C90.9761 26.3267 91.3289 26.5016 91.6722 26.6909C91.7767 26.4337 91.8571 26.1674 91.9123 25.8954C91.9267 25.7732 91.7659 25.6222 91.6722 25.4928C91.5258 25.2939 91.3481 25.1142 91.2185 24.9034C91.0457 24.623 91.1561 24.4625 91.4802 24.4673C91.621 24.4801 91.7606 24.5033 91.8979 24.5368V23.4082L89.8502 23.5112C90.1118 23.1709 90.2439 22.9888 90.3855 22.8163C90.9632 22.0915 91.3524 21.2355 91.5186 20.3243C91.6386 19.7396 91.1345 19.0016 91.9267 18.5751C91.8571 17.7772 91.8955 16.9481 91.6866 16.1789C91.4298 15.242 90.9424 14.3123 91.569 13.4161C91.9435 12.9129 91.9675 12.4457 91.9123 11.8131V11.8227ZM14.5373 69.2397C14.4365 69.8171 14.4293 70.3275 15.0174 70.7636C15.3079 70.9793 15.4447 71.4633 15.548 71.8515C15.6125 72.2476 15.6438 72.6483 15.6416 73.0496C15.7424 74.1758 16.441 74.8611 17.5477 74.933C18.7624 75.0096 19.0673 74.6742 18.8848 73.4138C18.7648 73.4785 18.6616 73.5384 18.556 73.5935C17.3724 74.2069 16.7099 73.8068 16.6643 72.4865C16.646 71.9652 16.5654 71.4479 16.4242 70.9457C16.2826 70.4473 16.453 70.2724 16.8875 70.4186C17.5813 70.6582 18.2463 70.9673 18.8872 71.2333C19.0145 69.9058 19.1129 70.0208 17.7373 69.4865C17.5168 69.4187 17.2923 69.3643 17.0652 69.3235C16.6763 69.2205 15.9969 67.7924 16.1961 67.4617C16.2609 67.3539 16.4362 67.306 16.5514 67.2365C17.0037 67.0218 17.4387 66.7727 17.8526 66.4913C18.5728 65.9282 19.0529 65.2524 18.9521 64.2437C18.8906 63.4461 18.8906 62.645 18.9521 61.8475C18.9796 61.5963 18.9508 61.3421 18.8678 61.1034C18.7847 60.8647 18.6495 60.6474 18.4719 60.4673C17.1948 59.2117 15.8936 57.9825 14.5589 56.7005C14.3188 57.6901 14.4821 58.3994 15.2983 58.9218C15.7808 59.258 16.2323 59.6365 16.6474 60.0528C16.84 60.2611 17.0143 60.4856 17.1684 60.7237C16.9168 60.833 16.6586 60.9266 16.3954 61.004C15.0462 61.3155 14.2492 62.3914 14.5901 63.4745H15.2167C15.2852 63.293 15.3654 63.1161 15.4567 62.9449C15.6116 62.6683 15.8362 62.4368 16.1082 62.2734C16.3801 62.1099 16.6901 62.0201 17.0075 62.0128C17.5429 61.9961 18.011 62.2524 18.143 62.7437C18.2751 63.2349 18.1863 63.7165 18.143 64.2005C18.1118 64.536 17.903 64.6798 17.5213 64.6486C16.561 64.5743 15.9081 65.0847 15.3775 65.8467C15.1487 66.1153 14.8965 66.3631 14.6237 66.5871L14.4989 66.4937V67.4234C15.3055 67.3994 15.0678 68.1063 15.2623 68.5208C15.3621 68.8039 15.4297 69.0973 15.4639 69.3954L14.5373 69.2397ZM14.6285 36.2971L14.3884 36.4098C14.5229 36.7524 14.5709 37.3011 14.8086 37.4018C16.2489 38.0128 16.8803 39.1654 17.1348 40.6103C17.262 41.3291 17.2764 41.9833 16.4146 42.2876C16.2378 42.3602 16.0807 42.4735 15.9561 42.6182C15.572 43.0328 15.1302 43.2388 14.5445 43.0136V46.3682C14.8837 45.714 15.2613 45.0803 15.6752 44.4705C15.8192 44.2764 16.2681 44.3123 16.5778 44.2309C16.609 44.4489 16.6571 44.6646 16.6667 44.885C16.6556 45.0096 16.6307 45.1326 16.5922 45.2516C16.2826 47.0032 16.6979 48.5032 18.1454 49.6294C18.3754 49.7866 18.616 49.9275 18.8656 50.0512L19.0409 49.9433C18.9257 49.5264 18.9449 48.9561 18.6736 48.7141C17.1684 47.3722 17.4421 45.7069 18.0518 44.0727C18.0748 44.0166 18.1096 43.9662 18.1539 43.9248C18.1983 43.8834 18.2511 43.8521 18.3087 43.8331C19.0145 43.7253 18.9713 43.2173 18.9473 42.7045C18.9329 42.4194 18.9473 42.1318 18.9473 41.8443C18.9473 41.3387 18.9473 40.8355 18.9473 40.3323V38.8946C18.7956 39.1598 18.674 39.4411 18.5848 39.7333C18.5155 39.8495 18.427 39.9532 18.3231 40.04C18.2243 39.9493 18.1357 39.848 18.059 39.738C18.0041 39.6023 17.9584 39.463 17.9222 39.3211C17.3484 37.7325 16.3018 36.6638 14.6165 36.2971H14.6285ZM14.5373 74.9881C14.4197 75.7501 14.4461 76.306 15.1398 76.7732C15.7136 77.159 16.1505 77.7604 16.597 78.3068C16.7339 78.4745 16.7123 78.7716 16.7627 79.0088C16.5486 79.0374 16.3329 79.0518 16.1169 79.052C15.4855 79.0112 14.7509 79.1646 14.5925 79.6989C14.386 80.401 14.5421 81.2181 14.5925 81.9849C14.5925 82.0879 14.8878 82.1981 15.0726 82.2628C15.4484 82.4077 15.8592 82.4358 16.2512 82.3434C16.6432 82.251 16.9981 82.0425 17.2692 81.7453C17.5933 81.429 17.8286 81.4529 17.9606 81.8699C18.2008 82.5576 18.3917 83.2614 18.532 83.9761C18.5944 84.3595 18.4359 84.7788 18.3783 85.1742C18.0398 85.0496 17.6989 84.9346 17.3604 84.8004C17.2236 84.7477 17.094 84.6758 16.9595 84.6207C16.1841 84.3092 15.3991 84.0384 14.5373 84.1798V85.1742C16.2297 85.1742 17.5117 86.1327 18.9521 86.9402C18.9521 85.2317 18.9737 83.6215 18.9377 82.016C18.926 81.6044 18.8068 81.203 18.592 80.8515C18.2661 80.3755 18.0632 79.8265 18.0014 79.2533C17.7757 77.1302 16.1433 76.1071 14.5373 74.9881ZM91.9243 86.0656C91.1105 85.7421 90.3087 85.5216 89.6101 85.1239C87.4495 83.8826 87.3463 83.7293 88.597 81.2277C88.7699 80.8802 89.0027 80.7245 89.4084 80.8587C89.9822 81.048 90.5752 81.1846 91.1489 81.3834C91.7827 81.6015 91.9315 81.5152 91.9363 80.8251C91.9411 80.135 91.9363 79.4833 91.9363 78.8124C91.9363 78.1414 91.7227 77.9162 91.1033 78.1654C90.2723 78.543 89.4629 78.9662 88.6786 79.433C88.4815 79.5736 88.2668 79.688 88.0401 79.7732C87.6176 79.8667 87.4735 80.0584 87.4807 80.4921C87.5071 82.3587 87.4807 84.2253 87.4807 86.0919C87.4807 87.6351 88.7003 88.5767 90.167 88.2245C89.7013 87.7309 89.2068 87.2325 88.7411 86.6957C88.5922 86.464 88.4752 86.2133 88.393 85.9505C88.6546 85.9783 88.9123 86.0353 89.1612 86.1207C90.0278 86.528 90.8872 86.9426 91.9123 86.945L91.9243 86.0656ZM18.9041 57.496C17.7253 57.2684 17.2668 56.7101 17.4373 55.754C17.6269 54.6925 17.8694 54.508 19.0049 54.6829C18.9161 54.2804 18.8464 53.921 18.7648 53.5663C18.7144 53.3627 18.5248 53.1374 18.5824 52.9697C19.0625 51.3499 17.927 49.8355 16.393 49.5096C15.7832 49.4215 15.1678 49.3774 14.5517 49.3778C14.338 50.8898 14.3572 52.3012 15.7784 53.1638C16.7027 53.7269 16.8995 54.2444 16.4986 55.3323C15.8576 57.0096 17.1588 58.5815 18.9209 58.4473L18.9041 57.496ZM18.011 21.9753C17.3292 22.3443 16.7435 22.615 16.2057 22.9601C15.4015 23.48 14.9742 24.2276 15.147 25.2053C15.3199 26.1829 15.9345 26.9305 16.8995 27.1342C17.5283 27.2313 18.1718 27.1482 18.7552 26.8946C18.9473 26.8179 18.8824 26.1086 18.9305 25.6965C18.9305 25.6677 18.892 25.6342 18.8488 25.5719C18.7672 25.6366 18.688 25.6965 18.6088 25.7612C18.1503 26.1566 17.6485 26.377 17.0532 26.0967C16.8064 26.0031 16.5921 25.8401 16.4361 25.6275C16.2802 25.4148 16.1893 25.1617 16.1745 24.8986C16.1529 24.2636 16.6234 23.9401 17.1204 23.6789C17.7109 23.377 18.3207 23.1086 18.9329 22.8187C18.9088 22.5453 18.9088 22.2702 18.9329 21.9968C19.0433 21.4002 18.736 21.0791 18.2655 20.8107C17.4077 20.3201 16.4239 20.0934 15.4375 20.159C14.4461 20.2117 14.3692 20.3051 14.5565 21.357C15.7376 21.1318 16.8947 21.0815 18.011 21.9753ZM22.3754 6.56789C22.1833 5.873 22.0393 5.26437 21.8448 4.67252C21.4103 3.35702 20.7549 2.90654 19.485 2.9952C18.2847 3.08626 17.262 3.94169 17.0604 4.96725C17.8838 5.47044 18.6808 5.95926 19.4802 6.44089C19.5844 6.50669 19.703 6.54617 19.8259 6.55591C20.6397 6.57268 21.4559 6.56789 22.3754 6.56789ZM18.9041 16.9792C18.9809 15.75 18.9713 15.7668 18.011 15.2804C17.9192 15.2133 17.8427 15.1276 17.7864 15.0289C17.7301 14.9302 17.6954 14.8207 17.6845 14.7077C17.5285 13.0304 16.1625 11.4537 14.5373 11.1134C14.3812 11.734 14.4629 12.1605 15.1182 12.5511C15.6545 12.913 16.0865 13.4087 16.3714 13.9888C16.8323 14.8275 16.6811 15.0359 15.7592 15.2276C14.4821 15.4936 14.4821 15.4936 14.4821 16.7612C14.4821 16.9721 14.4965 17.1829 14.4821 17.3914C14.4437 17.8107 14.6669 17.8898 15.0222 17.849C15.761 17.7734 16.4454 17.4267 16.9427 16.8762C17.5429 16.2244 17.6629 16.2005 18.4335 16.6701C18.5728 16.7492 18.7048 16.8451 18.9041 16.9792ZM14.5037 31.4209C15.3703 30.8027 15.7976 30.7021 16.1265 31.0208C16.6643 31.536 16.7651 32.4872 16.3426 33.0384C15.8624 33.6518 15.3391 33.7356 14.5109 33.3043C14.5109 33.4553 14.4869 33.5967 14.4845 33.7404C14.4701 34.5863 14.5997 34.7109 15.4447 34.6725C16.5898 34.6198 17.5669 33.623 17.6821 32.4106C17.7249 32.2246 17.7936 32.0456 17.8862 31.8786C18.0531 31.9819 18.2036 32.1095 18.3327 32.2572C18.5296 32.5639 18.676 32.9066 18.844 33.2348C18.9353 32.8826 18.88 32.516 18.9449 32.1949C19.1369 31.2364 18.6136 30.647 17.843 30.3067C16.7963 29.8443 15.6992 29.4968 14.6213 29.1086C14.5973 29.1086 14.5541 29.1422 14.4965 29.1733L14.5037 31.4209ZM16.9379 21.9273C16.2502 21.6449 15.484 21.6168 14.7774 21.8483C14.6968 21.8969 14.6291 21.964 14.5798 22.044C14.5306 22.124 14.5012 22.2147 14.4941 22.3083C14.4749 24.2253 14.4701 26.1638 14.4941 28.0903C14.5124 28.1989 14.5555 28.3018 14.62 28.3911C14.6846 28.4804 14.7688 28.5538 14.8662 28.6054C16.2033 29.1638 17.5549 29.6837 18.8944 30.2133V27.5176C16.7915 27.9609 15.4183 27.4002 14.7942 25.8546C14.2036 24.3642 14.799 23.2476 16.9379 21.9273ZM91.9075 82.1311C91.5162 82.0041 91.1657 81.9082 90.8296 81.7764C89.0699 81.0863 88.669 81.2972 88.357 83.1686C88.3135 83.3416 88.3393 83.5247 88.429 83.679C89.3853 84.5996 90.5976 85.2109 91.9075 85.433V82.1311ZM87.9272 26.48C87.7952 26.8179 87.6368 27.0551 87.6224 27.2995C87.5551 28.3802 87.4327 29.4729 87.5167 30.5463C87.5936 31.5048 87.9008 32.4633 88.1361 33.405C88.1645 33.4877 88.2122 33.5626 88.2752 33.6234C88.3382 33.6842 88.4148 33.7292 88.4986 33.7548C89.2428 33.8387 89.9582 33.7764 90.5583 33.2324C91.2257 32.631 91.2089 32.274 90.4119 31.9098C89.802 31.6466 89.2705 31.2309 88.8685 30.7029C88.4664 30.1749 88.2076 29.5524 88.1169 28.8954C87.9969 28.1454 87.9969 27.3738 87.9272 26.48ZM14.5181 19.7828C15.2722 19.619 16.0514 19.6069 16.8103 19.7472C17.5691 19.8875 18.2923 20.1774 18.9377 20.5998C18.9377 19.7804 18.9377 19.0951 18.9377 18.4074C18.94 18.0828 18.8393 17.7658 18.65 17.5019C18.4606 17.238 18.1924 17.0408 17.8838 16.9385C17.8204 16.9192 17.7534 16.9147 17.688 16.9255C17.6226 16.9364 17.5606 16.9621 17.5069 17.0008C17.1482 17.4429 16.6915 17.7958 16.1729 18.0316C15.6542 18.2674 15.0877 18.3796 14.5181 18.3594V19.7828ZM18.1671 32.9257C17.4469 34.6534 16.285 35.4225 14.5133 35.1086V35.7652C16.2729 36.1055 17.5117 37.1094 18.3039 38.8946C18.7168 36.8123 18.8824 34.9289 18.1671 32.9257ZM43.585 2.15415C43.6186 3.01197 43.345 3.63977 42.6128 4.09264C42.2719 4.3059 42.3079 4.6869 42.7424 4.86182C44.3964 5.52316 45.9929 5.42731 47.6253 4.46165C46.2401 4.22204 45.4863 3.46725 45.3183 2.15415H43.585ZM89.6245 52.4305L91.8883 51.901V48.0911L90.2895 47.631C89.7741 49.1765 89.5487 50.8035 89.6245 52.4305ZM87.4903 23.2404L87.7424 23.4034C88.2729 22.8115 88.8251 22.2388 89.322 21.6254C89.5651 21.334 89.7469 20.9966 89.8567 20.6335C89.9664 20.2704 90.0017 19.889 89.9606 19.512C89.831 18.2804 89.3196 18.0264 88.2993 18.6925C87.9873 18.8962 87.5455 19.2077 87.5263 19.4952C87.4399 20.7388 87.4903 21.9896 87.4903 23.2404ZM19.0721 88.2868C18.9113 87.9226 18.868 87.5536 18.6712 87.429C17.8626 86.9051 17.0206 86.4345 16.1505 86.02C15.6704 85.7948 15.0966 85.7565 14.5301 85.6247V88.2868H19.0721ZM18.9161 75.1917C18.664 75.254 18.4863 75.3068 18.3039 75.3427C16.5994 75.6878 15.2695 74.7389 15.1374 73.0831C15.1353 72.6824 15.1072 72.2822 15.0534 71.885C14.9576 71.5747 14.8296 71.2752 14.6717 70.9913L14.4893 71.056C14.5229 71.4698 14.5229 71.8857 14.4893 72.2996C14.2492 73.7373 14.7293 74.6957 16.0305 75.4697C16.7887 75.8943 17.4215 76.5107 17.8653 77.2569C18.3091 78.0031 18.5481 78.8528 18.5584 79.7205C18.5584 79.9074 18.736 80.0871 18.832 80.2692L18.9257 80.2237L18.9161 75.1917ZM78.3943 4.76118C78.6344 5.27396 78.8744 5.60942 78.9633 5.98083C79.0905 6.51038 79.3882 6.58466 79.8659 6.57747C81.3735 6.54872 82.8883 6.51277 84.3935 6.57747C85.3009 6.623 85.9611 6.39776 86.374 5.50399C85.3465 5.88977 84.3575 5.89217 83.4116 5.3099C83.3572 5.28444 83.2977 5.27125 83.2376 5.27125C83.1774 5.27125 83.118 5.28444 83.0636 5.3099C81.9977 5.9329 80.963 5.6238 79.9211 5.23562C79.465 5.06309 78.9897 4.94328 78.3943 4.76118ZM14.4917 37.8906C14.4917 39.3738 14.4749 40.79 14.5037 42.2037C14.5037 42.6542 14.931 42.6542 15.2119 42.5511C16.5394 42.0527 16.8923 41.286 16.4506 39.9154C16.3978 39.7348 16.3312 39.5586 16.2513 39.3882C16.0889 39.0232 15.8464 38.6991 15.5419 38.4399C15.2374 38.1808 14.8785 37.993 14.4917 37.8906ZM87.5167 40.0471C88.7363 38.9569 89.4636 38.8658 90.8296 39.5487C90.9924 39.6144 91.1706 39.6327 91.3434 39.6015C92.2508 39.4697 91.8595 38.8035 91.8955 38.4585C91.0529 38.2596 90.2271 38.1853 89.5117 37.8618C88.7963 37.5384 88.1889 36.9609 87.5167 36.4841V40.0471ZM49.457 5.98083C49.5866 6.08146 49.7667 6.34744 49.9803 6.3738C50.5493 6.44808 51.2719 6.63977 51.6776 6.3738C52.3642 5.9353 52.8563 5.17571 53.4012 4.60063L52.2273 3.78354C51.7472 3.44808 51.0822 3.51517 50.8374 3.89856C50.3956 4.58386 49.9419 5.24999 49.457 5.98083ZM87.5167 76.5144C87.9256 76.5492 88.3364 76.4761 88.7081 76.3024C89.0797 76.1287 89.3991 75.8605 89.6341 75.5248C89.3364 74.1973 89.2308 72.8219 87.5167 72.8123V76.5144ZM64.5882 4.69648C63.8872 4.73961 63.1863 4.78035 62.4853 4.83306C62.382 4.84903 62.2855 4.8939 62.2068 4.96245C61.2321 5.74121 60.075 6.00479 58.8723 6.16054C58.7315 6.20272 58.5986 6.26746 58.4786 6.35223C58.6202 6.42651 58.7595 6.56789 58.9011 6.56789C60.3295 6.58466 61.7579 6.58226 63.1862 6.56789C63.2641 6.56922 63.3413 6.55412 63.4129 6.52356C63.4845 6.493 63.5488 6.44768 63.6016 6.39057C63.9449 5.84185 64.2521 5.27875 64.5882 4.69648ZM90.4863 8.46086C89.7997 7.95766 89.2572 7.46405 88.6306 7.13099C88.5231 7.06071 88.3989 7.01983 88.2706 7.01245C88.1422 7.00507 88.0142 7.03144 87.8992 7.08892C87.7843 7.14641 87.6865 7.23299 87.6156 7.34003C87.5447 7.44707 87.5031 7.5708 87.4951 7.69888C87.4663 8.19728 87.3727 8.74121 87.5263 9.18929C87.644 9.53195 88.0761 9.81469 88.4314 9.9992C88.5874 10.0807 88.9499 9.90814 89.1516 9.75958C89.5597 9.40255 89.9294 9 90.4863 8.46086ZM37.0025 4.01597C35.7373 4.01597 34.4746 4.01597 33.2119 4.03753C33.1572 4.10682 33.1174 4.18665 33.0951 4.27201C33.0728 4.35737 33.0684 4.44641 33.0822 4.53354C33.3223 4.9984 33.6824 5.40335 33.8744 5.88019C34.1385 6.53434 34.5538 6.70686 35.2188 6.50319C35.3167 5.98398 35.5271 5.49238 35.8352 5.06277C36.1433 4.63316 36.5416 4.2759 37.0025 4.01597ZM59.5061 3.98721C59.2444 3.40495 59.0547 2.92092 58.8051 2.46804C58.753 2.38288 58.6832 2.30991 58.6003 2.25409C58.5175 2.19827 58.4236 2.16092 58.325 2.14456C57.4655 2.11101 56.6061 2.13018 55.7443 2.13018H53.6437L53.6245 2.38418C53.9309 2.46461 54.2464 2.50488 54.5632 2.50399C55.1366 2.40666 55.7259 2.47337 56.2629 2.69643C56.7999 2.91948 57.2626 3.28974 57.5976 3.76437C57.7032 3.89856 57.876 4.06868 58.0225 4.07108C58.517 4.07827 59.0115 4.02076 59.5061 3.98721ZM91.8979 30.2684V27.3475L90.1574 26.6286C89.7661 28.3059 90.1862 29.8802 91.8979 30.2684ZM14.4917 52.6774C14.4917 53.5208 14.5469 54.2708 14.4773 55.0088C14.3644 56.2429 15.3103 56.7149 16.0329 57.3762C15.5912 56.2668 15.8936 55.2317 16.2729 54.2612L14.4917 52.6774ZM14.5373 65.8395L14.7101 65.9138L15.0534 65.4346C15.5624 64.7157 16.2345 64.1861 17.1252 64.1646C17.8598 64.1502 17.8166 63.7021 17.807 63.2516C17.8054 63.1405 17.7795 63.0311 17.7311 62.931C17.6826 62.8309 17.6129 62.7426 17.5266 62.6723C17.4404 62.602 17.3398 62.5513 17.2319 62.5239C17.124 62.4965 17.0113 62.493 16.9019 62.5136C16.369 62.6023 15.8912 62.8802 15.8168 63.4242C15.7424 63.9681 15.4735 63.9705 15.0966 63.9777C14.9142 63.9777 14.7317 64.004 14.5421 64.0208L14.5373 65.8395ZM17.6581 82.1047C16.5946 82.9433 15.6104 83.0799 14.5373 82.5839V83.4585L18.1238 84.4625L17.6581 82.1047ZM16.7483 67.8235C16.7963 69.1941 18.143 68.8731 18.8848 69.4625V66.3163L16.7483 67.8235ZM63.5103 2.13018C63.3975 2.56868 63.5343 2.69089 63.9305 2.66213C65.066 2.58306 66.1798 2.60463 67.2433 3.14137C67.9155 3.48162 68.6501 3.69728 69.3919 3.98242C68.9862 3.36421 68.6405 2.82507 68.2756 2.3051C68.2396 2.2587 68.1944 2.22026 68.1427 2.19221C68.091 2.16416 68.0341 2.14712 67.9755 2.14216C66.4991 2.12779 65.0131 2.13018 63.5103 2.13018ZM16.8419 49.0112C15.8672 47.6957 15.9057 46.258 16.0929 44.7844C15.6105 45.3353 15.2582 45.9874 15.0621 46.6925C14.866 47.3975 14.831 48.1375 14.9598 48.8579L16.8419 49.0112ZM16.7531 7.28195C16.8371 8.32907 17.0844 9.28275 17.8742 10.0016C17.9696 10.0855 18.0831 10.1465 18.2059 10.1797C18.3287 10.213 18.4575 10.2176 18.5824 10.1933C18.6835 10.1151 18.7664 10.0159 18.8253 9.90252C18.8842 9.78914 18.9176 9.66432 18.9233 9.53674C18.9953 8.61421 18.0542 7.63897 16.7531 7.28195ZM78.3439 2.72923C78.6668 2.76308 78.9874 2.81589 79.3041 2.88737C80.0243 3.09584 80.7445 3.33546 81.4647 3.5607C81.8824 3.69249 82.1081 3.59664 82.0697 3.09824C82.0652 2.78449 82.0804 2.47078 82.1153 2.15894H78.4183C78.3943 2.34344 78.3655 2.52315 78.3439 2.72443V2.72923ZM76.3201 2.16613H70.8659C72.4695 3.15814 74.3348 2.56868 76.0561 3.17012C76.1545 2.79392 76.2337 2.49919 76.3201 2.16133V2.16613ZM18.604 23.492C18.095 23.7436 17.6173 23.9497 17.1636 24.2109C16.7771 24.4313 16.489 24.7332 16.7915 25.2292C16.8459 25.3369 16.9222 25.432 17.0155 25.5086C17.1088 25.5852 17.2171 25.6415 17.3334 25.674C17.4497 25.7065 17.5716 25.7144 17.6911 25.6972C17.8107 25.68 17.9254 25.6382 18.0278 25.5743C18.7168 25.1909 18.9689 24.357 18.604 23.4872V23.492ZM17.2452 12.1581C17.5703 12.8412 17.8502 13.5448 18.083 14.2644C18.2151 14.7604 18.3951 15.0288 18.8969 15.0671V12.4313L17.2452 12.1581ZM17.0748 70.9361C17.1132 71.6286 17.1252 72.29 17.1996 72.9441C17.2164 73.0903 17.4805 73.3467 17.5741 73.3251C17.9198 73.2389 18.3327 73.1358 18.5344 72.889C18.6904 72.7045 18.664 72.2469 18.5536 71.9809C18.3015 71.3555 17.7301 71.0895 17.0748 70.9314V70.9361ZM91.8979 54.127C91.6051 54.0713 91.303 54.0908 91.0199 54.1839C90.7368 54.277 90.4821 54.4405 90.2799 54.659C90.2312 54.7177 90.1955 54.7861 90.1752 54.8596C90.1549 54.9332 90.1505 55.0102 90.1622 55.0855C90.3567 55.7133 91.2185 56.1734 91.8979 56.044V54.127ZM18.9041 44.1015C18.1671 44.5567 18.1839 45.2612 18.0902 45.8674C17.9462 46.742 18.1286 47.5448 18.9041 48.1797V44.1015ZM89.975 68.1542C90.4239 69.3283 90.664 70.4713 91.9315 70.9889C91.9315 70.4378 91.9507 69.9346 91.9315 69.4338C91.9217 69.3497 91.8942 69.2686 91.8508 69.1959C91.8073 69.1232 91.7489 69.0606 91.6795 69.012C91.1633 68.7269 90.6376 68.4825 89.975 68.1542ZM14.5181 2.16852V4.75638C14.6189 4.75638 14.7245 4.79472 14.7365 4.77316C15.2455 3.90814 15.7448 3.04073 16.2489 2.16852H14.5181ZM26.8718 4.23402C26.6317 3.1222 25.5082 2.11341 24.632 2.20207C24.6512 3.30191 25.7003 4.25319 26.8718 4.23402ZM91.8643 7.10942C92.0827 6.40974 91.8379 5.94728 91.3241 5.70766C90.4431 5.29792 89.5189 4.98881 88.6186 4.60782C88.0329 4.3682 87.6584 4.6246 87.2911 5.10862C89.3244 4.65335 90.6568 5.69089 91.8643 7.11421V7.10942ZM91.9075 3.51517V2.13258C91.1465 2.13258 90.4143 2.11101 89.6845 2.14696C89.5261 2.14696 89.3772 2.36022 89.1516 2.52555L91.9075 3.51517ZM90.5055 12.1414L90.3903 12.0335C90.1862 12.1701 89.8862 12.2612 89.7949 12.4505C89.4641 13.053 89.2178 13.698 89.0627 14.3674C88.9883 14.8059 89.2404 15.3043 89.3868 15.7644C89.4108 15.8435 89.6269 15.8626 89.7565 15.9081C89.7925 15.7835 89.879 15.647 89.855 15.532C89.5909 14.3291 89.6941 13.1813 90.5055 12.1558V12.1414ZM16.0857 14.5903C15.979 14.1858 15.7834 13.8101 15.5131 13.4906C15.2428 13.171 14.9045 12.9156 14.5229 12.7428V15.0479L16.0857 14.5903ZM14.5205 61.4162L16.3186 60.3786L14.5205 58.8714V61.4162ZM68.7461 6.54393C70.5394 6.54393 72.2535 6.54393 73.9699 6.54393C74.126 6.54393 74.2796 6.39057 74.4357 6.30431C73.9963 6.13213 73.5376 6.01385 73.0697 5.95207C72.8752 5.92332 72.628 5.85143 72.4815 5.9353C71.3604 6.57987 70.2369 6.45287 69.0966 6.02156C69.0107 5.99454 68.9233 5.97215 68.835 5.95447C68.8085 6.16533 68.7917 6.32348 68.7485 6.56549L68.7461 6.54393ZM14.4917 6.99201C14.4917 8.07268 14.4917 9.14856 14.5037 10.234C14.5193 10.3065 14.5509 10.3747 14.5962 10.4335C14.6414 10.4924 14.6992 10.5404 14.7653 10.5743C15.147 10.7684 15.548 10.9217 16.0785 11.1518C15.0414 9.877 14.7774 8.45607 14.4941 7.01357L14.4917 6.99201ZM28.7683 3.15814L30.8616 2.59025C30.7272 2.45367 30.5784 2.16852 30.4103 2.15415C29.6901 2.10383 28.9699 2.13258 28.1849 2.13258L28.7683 3.15814ZM14.7533 76.8691L14.5541 76.9985V78.9154L16.3018 78.4026C15.7376 77.8395 15.2575 77.3555 14.7533 76.8691ZM14.8494 32.5879C14.9382 32.6861 15.0894 33.0096 15.3511 33.0983C15.6776 33.2157 16.2057 32.619 16.1121 32.2117C16.0401 31.9098 15.8408 31.5096 15.5936 31.4066C15.2575 31.2628 14.8422 31.8331 14.8494 32.5879ZM18.0662 55.0232C18.0446 55.5767 17.9366 56.0703 18.0446 56.5088C18.0998 56.7341 18.5416 56.8635 18.8752 57.0791C19.0577 55.3227 19.0553 55.3179 18.0662 55.0232ZM92.0563 34.8283L90.083 35.8347C90.6136 36.1582 91.1585 36.496 91.6698 36.0456C91.9099 35.8323 91.9051 35.3411 92.0563 34.8283ZM91.9195 87.544L89.9342 87.0815C90.5487 87.5608 90.8536 88.5552 91.9195 88.2533V87.544ZM91.8715 77.5232V75.9681L90.3759 77.7988L91.8715 77.5232ZM27.1022 6.56549L24.2743 5.59265C24.4783 6.56549 24.4783 6.56549 25.4386 6.56549H27.1022ZM91.8835 22.9265V21.2205L91.0529 22.8858L91.8835 22.9265ZM89.0988 78.5033L89.0483 78.4218L87.5167 78.6782V79.5624L89.0988 78.5033ZM87.8984 48.2612L87.7952 48.151C87.692 48.2804 87.5047 48.4074 87.4999 48.5416C87.4735 49.3563 87.4855 50.1734 87.4855 50.9881H87.5431C87.6632 50.0839 87.7824 49.175 87.9008 48.2612H87.8984ZM17.7517 58.881L18.8896 60.0791V59.0248L17.7517 58.881ZM56.402 6.52715C56.2316 6.0623 55.3842 6.08386 54.7888 6.52715H56.402ZM88.1289 45.738L87.5287 44.746V46.0855L88.1289 45.738ZM91.9051 44.8395L91.7971 44.8227C91.6314 45.1222 91.4658 45.4194 91.2713 45.7812L91.9051 45.9273V44.8395ZM87.6536 53.4657H87.5167V55.2269H87.6536V53.4657Z" fill="#FFBF00"/>
<path d="M25.2681 13.9122C25.5538 13.9793 25.7771 14.008 25.9883 14.0799C33.0302 16.5064 40.0721 18.9329 47.114 21.3595C47.5677 21.5152 47.6661 21.75 47.6637 22.1837C47.6509 27.3499 47.6509 32.5152 47.6637 37.6798C47.6637 52.6319 47.6677 67.5839 47.6757 82.536C47.6757 83.1111 47.5749 83.3651 46.9123 83.4442C42.0486 84.0193 37.1945 84.6423 32.338 85.2653C30.2111 85.5336 28.0841 85.7852 25.9595 86.068C25.4146 86.1399 25.2393 86.0081 25.2393 85.421C25.2537 61.8188 25.2585 38.2149 25.2537 14.6094C25.2321 14.4082 25.2537 14.2021 25.2681 13.9122ZM47.1548 82.9003C47.1716 82.6894 47.198 82.5241 47.198 82.3611C47.198 62.393 47.198 42.425 47.198 22.4569C47.2233 22.2949 47.1847 22.1294 47.0902 21.9953C46.9957 21.8612 46.8528 21.769 46.6915 21.738C39.8448 19.3898 33.0014 17.032 26.1612 14.6646C26.0288 14.6318 25.8939 14.6101 25.7579 14.5999V85.5744L47.1548 82.9003Z" fill="#FFBF00"/>
<path d="M81.131 13.8954V86.1159C80.1131 86.0009 79.1385 85.8979 78.1686 85.778L64.2881 84.0336C62.6197 83.8252 60.9536 83.6071 59.2852 83.413C58.8867 83.3651 58.7259 83.1878 58.7571 82.7996C58.7715 82.6319 58.7571 82.4641 58.7571 82.2964C58.7571 62.3459 58.7523 42.397 58.7427 22.4497C58.7427 21.7788 58.9251 21.4912 59.5925 21.2516C66.4631 18.9106 73.3193 16.5264 80.1804 14.1566C80.4709 14.0607 80.7685 13.996 81.131 13.8954ZM59.2324 82.905L80.6725 85.5744V14.5615C80.4877 14.6142 80.346 14.6454 80.2092 14.6909C73.4058 17.0312 66.6 19.3698 59.7917 21.7069C59.3116 21.8698 59.2228 22.1142 59.2228 22.5719C59.2324 42.4362 59.2324 62.302 59.2228 82.1694L59.2324 82.905Z" fill="#FFBF00"/>
<path d="M84.0358 2.6885L86.2084 3.60863C86.0128 3.87095 85.7362 4.06168 85.4211 4.15133C85.1061 4.24098 84.7703 4.22458 84.4655 4.10464C83.779 3.84346 83.9446 3.32349 84.0358 2.6885Z" fill="#FFBF00"/>
<path d="M91.0073 61.0544C90.8968 61.397 90.7168 61.9937 90.5127 62.5831C90.2727 63.2708 90.0182 63.9537 89.7685 64.6391C89.7421 64.7157 89.7421 64.8331 89.6893 64.8787C89.4012 65.0728 89.0988 65.2501 88.8035 65.4322C88.6727 65.1668 88.5713 64.888 88.501 64.6007C88.3186 63.3427 88.1697 62.0799 88.0089 60.8172C87.9296 60.1989 89.0411 58.9745 89.7013 58.9529C90.4215 58.9218 91.0577 59.806 91.0073 61.0544ZM88.9979 64.7277C89.1588 64.6103 89.238 64.5863 89.238 64.5408C89.6437 63.4242 90.083 62.3148 90.4215 61.1862C90.5105 60.7858 90.4753 60.368 90.3207 59.9881C90.0806 59.3555 89.6413 59.3028 89.1612 59.7676C88.681 60.2325 88.4098 60.6878 88.6186 61.421C88.8107 62.0943 88.8011 62.8252 88.8755 63.5296C88.9235 63.8843 88.9571 64.2485 88.9979 64.7277Z" fill="#FFBF00"/>
<path d="M89.154 44.2501C89.0086 44.065 88.8972 43.8557 88.8251 43.6319C88.7152 42.9183 88.663 42.1972 88.6691 41.4753C88.6618 41.3629 88.6808 41.2503 88.7243 41.1464C88.7679 41.0425 88.835 40.95 88.9203 40.8763C89.0056 40.8025 89.1068 40.7494 89.2161 40.7211C89.3253 40.6929 89.4396 40.6902 89.5501 40.7133C90.0806 40.7804 90.1671 41.0128 90.0086 41.5208C89.7998 42.1942 89.6749 42.8962 89.5141 43.5839C89.4637 43.7948 89.4157 44.008 89.3676 44.2189L89.154 44.2501Z" fill="#FFBF00"/>
<path d="M15.6536 81.4123C15.4663 81.2158 15.1206 81.0169 15.123 80.8252C15.1234 80.7243 15.146 80.6248 15.1892 80.5336C15.2324 80.4425 15.2952 80.3619 15.3731 80.2976C15.451 80.2334 15.5421 80.187 15.6399 80.1618C15.7378 80.1366 15.84 80.1332 15.9393 80.1519C16.2512 80.1861 16.5373 80.3409 16.7363 80.5832C16.8779 80.806 16.2177 81.2877 15.6536 81.4123Z" fill="#FFBF00"/>
<path d="M91.6891 79.7685C91.473 79.9817 91.3026 80.2477 91.2281 80.2117C90.9024 80.0797 90.587 79.9236 90.2847 79.7445C90.5579 79.5563 90.8529 79.4018 91.1633 79.2844C91.269 79.2557 91.461 79.5504 91.6891 79.7685Z" fill="#FFBF00"/>
<path d="M17.5765 52.3635L17.4012 52.8427C17.1852 52.7588 16.9211 52.7277 16.7627 52.5767C16.2465 52.0687 15.7616 51.5272 15.2863 50.9785C15.0774 50.7389 15.1038 50.5136 15.4711 50.4441C16.4218 50.2668 17.5885 51.2445 17.5765 52.3635ZM17.0531 52.2676C16.9379 51.4553 16.6162 51.1534 15.8288 51.0959L17.0531 52.2676Z" fill="#FFBF00"/>
<path d="M29.9254 21.357C29.9254 20.4178 29.9254 20.413 30.84 20.7269C34.6667 22.0495 38.4933 23.3794 42.3271 24.6805C42.8072 24.8459 42.9561 25.0759 42.9561 25.5791C42.9417 43.2197 42.9417 60.8603 42.9561 78.5009C42.9561 79.0352 42.8096 79.2197 42.2647 79.2772C38.4045 79.7373 34.5514 80.2357 30.696 80.7317C29.9758 80.8228 29.9254 80.782 29.9254 80.0129V21.357ZM42.4087 78.7501C42.4231 78.5416 42.4423 78.3763 42.4423 78.2133C42.4423 60.7453 42.4423 43.2764 42.4423 25.8067C42.4423 25.3706 42.2983 25.1957 41.895 25.0615C39.3479 24.2037 36.8128 23.3171 34.2729 22.4425L30.4511 21.139V80.2501L42.4087 78.7501Z" fill="#FFBF00"/>
<path d="M76.4738 50.6502V80.0033C76.4738 80.83 76.4594 80.8204 75.6096 80.7102C72.0878 80.2597 68.5661 79.8092 65.0467 79.3899C63.4959 79.2053 63.4935 79.2389 63.4935 77.6862C63.4935 60.3858 63.4871 43.0847 63.4743 25.7828C63.4743 25.0903 63.7 24.8099 64.3289 24.5991C68.1052 23.3243 71.8694 22.0088 75.636 20.7077C76.457 20.4225 76.481 20.4393 76.481 21.2971V50.6502H76.4738ZM75.9697 21.1462C75.7296 21.2253 75.5231 21.2828 75.3263 21.3499C71.7253 22.5863 68.1484 23.8347 64.5498 25.0471C64.0697 25.2077 63.9664 25.4329 63.9664 25.8954C63.9792 43.258 63.9792 60.6215 63.9664 77.9857V78.7477L75.9697 80.2525V21.1462Z" fill="#FFBF00"/>
<path d="M30.7128 50.7149V22.6198C30.7128 21.5128 30.7128 21.5128 31.7307 21.865C34.9643 22.9793 38.1956 24.1055 41.4341 25.1981C41.967 25.3778 42.1807 25.6031 42.1807 26.2117C42.1599 43.3683 42.1599 60.524 42.1807 77.679C42.1807 78.3284 41.979 78.5416 41.3644 78.6135C38.0244 79.0097 34.6883 79.4282 31.3562 79.8691C30.7464 79.9482 30.708 79.6534 30.7104 79.1886C30.7104 73.687 30.7104 68.1854 30.7104 62.6838C30.7136 58.695 30.7144 54.7053 30.7128 50.7149ZM31.2409 22.2724V79.3635L41.6645 78.0576V77.4274C41.6645 60.4162 41.6685 43.4074 41.6765 26.401C41.6765 25.9361 41.5205 25.7492 41.098 25.6079C38.018 24.5631 34.9475 23.4944 31.8723 22.4377C31.6827 22.3706 31.4834 22.3347 31.2409 22.2724Z" fill="#FFBF00"/>
<path d="M75.7176 50.77V79.1191C75.7176 79.917 75.6768 79.9314 74.8894 79.8379C71.6789 79.4258 68.4685 79.0264 65.258 78.6399C64.2689 78.5201 64.2665 78.5392 64.2665 77.5736C64.2665 60.4809 64.2617 43.3882 64.2521 26.2956C64.2521 25.6606 64.4442 25.3994 65.0443 25.1981C68.3476 24.0935 71.6341 22.9385 74.9278 21.8052C75.648 21.5655 75.7152 21.6063 75.7152 22.3754C75.7184 31.8371 75.7192 41.302 75.7176 50.77ZM75.1967 22.2556C74.9278 22.3323 74.7285 22.3778 74.5341 22.4425C71.4781 23.4897 68.4268 24.556 65.3612 25.5743C64.8283 25.7516 64.7179 26.0176 64.7203 26.5328C64.7371 31.7612 64.7203 36.9897 64.7203 42.2181C64.7203 53.9354 64.7203 65.6518 64.7203 77.3675C64.7203 77.909 64.8403 78.1055 65.4404 78.1678C67.6322 78.3955 69.8168 78.707 72.0062 78.9825C73.0601 79.1143 74.114 79.2341 75.2063 79.3635L75.1967 22.2556Z" fill="#FFBF00"/>
</svg>
