<svg width="31" height="35" viewBox="0 0 31 35" fill="none" xmlns="http://www.w3.org/2000/svg">
<path d="M11.2177 17.4949V1.23812C11.2177 0.323194 11.5351 0 12.4337 0C14.5065 0 16.579 0 18.6513 0C19.4377 0 19.7891 0.352578 19.7891 1.14587C19.7891 12.0511 19.7891 22.9569 19.7891 33.863C19.7891 34.6365 19.4336 34.998 18.6744 34.998C16.5572 34.998 14.4396 34.998 12.3216 34.998C11.5807 34.998 11.2184 34.6338 11.2184 33.8863C11.2147 28.4232 11.2145 22.9594 11.2177 17.4949Z" fill="#FFBF00" fill-opacity="0.65"/>
<path d="M22.4279 22.9345C22.4279 19.2903 22.4279 15.6461 22.4279 12.0019C22.4279 11.1642 22.7677 10.8151 23.5997 10.8144C25.6725 10.8144 27.745 10.8144 29.8173 10.8144C30.6493 10.8144 31 11.1663 31 11.9937C31 19.268 31 26.5425 31 33.8172C31 34.6536 30.6601 34.9959 29.8254 34.9966H23.6079C22.7569 34.9966 22.4279 34.6604 22.4279 33.7913C22.4274 30.1735 22.4274 26.5546 22.4279 22.9345Z" fill="#FFBF00" fill-opacity="0.65"/>
<path d="M8.57213 26.2464C8.57213 28.7732 8.57213 31.2998 8.57213 33.8261C8.57213 34.6618 8.23226 34.9993 7.39551 35C5.31099 35 3.22783 35 1.14603 35C0.35482 35 0 34.6495 0 33.8623C0 28.7864 0 23.7105 0 18.6346C0 17.8748 0.368416 17.5058 1.12836 17.5044C3.23418 17.5044 5.34 17.5044 7.44581 17.5044C8.2078 17.5044 8.57145 17.872 8.57213 18.6339C8.57349 21.1712 8.57349 23.7087 8.57213 26.2464Z" fill="#FFBF00" fill-opacity="0.65"/>
</svg>
