<svg width="27" height="27" viewBox="0 0 27 27" fill="none" xmlns="http://www.w3.org/2000/svg">
<path d="M0 25.3415C0.186074 25.1914 0.387155 25.0413 0.558223 24.8701C5.7753 19.655 10.9894 14.4374 16.2005 9.21731C16.3837 9.00352 16.5512 8.77674 16.7017 8.53877L18.2773 10.1901C18.2068 10.2711 18.0852 10.4258 17.9487 10.5639L1.93277 26.5815C1.79172 26.7226 1.64466 26.8562 1.5006 26.9928H0V25.3415Z" fill="#FFBF00" fill-opacity="0.65"/>
<path d="M23.5054 8.10189L20.9708 7.20118L18.8535 9.87929L17.1938 8.09889L19.7974 6.03176L18.897 3.50227L27.0002 0C25.7788 2.82372 24.6443 5.45681 23.5054 8.10189Z" fill="#FFBF00" fill-opacity="0.65"/>
</svg>
