<svg width="103" height="92" viewBox="0 0 103 92" fill="none" xmlns="http://www.w3.org/2000/svg">
<path d="M50.6099 0.769836H51.409C51.6484 0.877089 51.899 0.956971 52.1562 1.00797C54.7893 1.23609 57.0088 2.3407 58.8608 4.19371C72.1447 17.4863 85.4206 30.787 98.6885 44.0956C103.142 48.5741 103.084 55.3978 98.6646 59.9043C96.8426 61.7573 94.9966 63.5863 93.1587 65.4253L70.9833 87.6375C68.9516 89.6746 66.5442 90.9673 63.6394 90.9813C55.1156 91.0214 46.5917 91.0127 38.0678 90.9553C35.4707 90.9353 33.2252 89.8027 31.3952 87.9737C22.035 78.6259 12.688 69.2654 3.35435 59.8923C-1.08872 55.4298 -1.13467 48.566 3.31639 44.0836C16.571 30.7576 29.8483 17.4537 43.1482 4.1717C44.6263 2.66212 46.518 1.62523 48.5842 1.19207L50.6099 0.769836ZM27.058 57.643C28.1548 57.573 29.3235 57.9672 30.3184 56.9667C39.4243 47.8003 48.5475 38.65 57.6881 29.5156C58.6969 28.5051 58.7089 27.6626 57.728 26.664C55.9806 24.8764 54.2166 23.1088 52.4359 21.3611C51.437 20.3746 50.518 20.4026 49.4892 21.4152C48.5642 22.3257 47.6532 23.2522 46.7342 24.1707C38.0292 32.8915 29.3235 41.6116 20.6172 50.331C19.4345 51.5177 19.4065 52.3641 20.5093 53.4968C21.3464 54.3552 22.2554 55.1497 23.0345 56.0562C24.1093 57.3069 25.32 58.0833 27.058 57.643ZM39.1067 69.5836C40.8767 70.1279 42.1033 69.2334 43.2401 67.9547C44.3009 66.754 45.4856 65.6774 46.6143 64.5528C50.2863 60.8748 53.9582 57.1948 57.6301 53.5128C58.7109 52.4242 58.7229 51.5677 57.6701 50.4991C55.9387 48.7422 54.1959 46.9972 52.4419 45.2642C51.443 44.2817 50.5859 44.2937 49.5711 45.2462C49.2794 45.5204 49.0037 45.8105 48.722 46.0927L32.8296 62.0034C31.2314 63.6043 31.2314 64.2386 32.8596 65.8735C33.5648 66.5819 34.324 67.2443 34.9673 68.0047C36.0561 69.2954 37.3087 70.0739 39.1067 69.5836ZM50.9915 81.5902C51.0095 81.7062 51.0254 81.8243 51.0434 81.9424C52.0423 81.6242 53.241 81.5421 54.0241 80.9418C55.4126 79.8772 56.5713 78.5105 57.7979 77.2418C58.663 76.3453 58.6849 75.4908 57.8239 74.6063C56.0112 72.7386 54.176 70.9003 52.318 69.0913C51.4829 68.2729 50.5 68.2709 49.665 69.0913C47.835 70.887 46.0237 72.702 44.231 74.5363C43.298 75.4928 43.334 76.3373 44.2829 77.3218C45.162 78.2323 46.1249 79.0668 46.946 80.0253C48.0248 81.266 49.2454 82.0144 50.9915 81.5842V81.5902Z" fill="#FFBF00" fill-opacity="0.65"/>
</svg>
