<svg width="14" height="12" viewBox="0 0 14 12" fill="none" xmlns="http://www.w3.org/2000/svg">
<path d="M6.94621 0H7.05589C7.08873 0.0142629 7.12313 0.0248859 7.15843 0.0316677C7.51982 0.0620048 7.82445 0.2089 8.07863 0.455322C9.90185 2.22303 11.724 3.99181 13.545 5.76165C14.1562 6.35721 14.1482 7.26467 13.5417 7.86396C13.2916 8.11038 13.0383 8.35361 12.786 8.59817L9.74245 11.552C9.4636 11.8229 9.13319 11.9949 8.73451 11.9967C7.56461 12.002 6.39471 12.0009 5.22481 11.9933C4.86835 11.9906 4.56016 11.84 4.30899 11.5967C3.0243 10.3536 1.74143 9.10884 0.460385 7.86236C-0.149426 7.26892 -0.155733 6.35615 0.455175 5.76005C2.27437 3.98791 4.09668 2.21869 5.92209 0.452395C6.12496 0.251644 6.38459 0.113754 6.66817 0.0561498L6.94621 0ZM3.71372 7.56325C3.86425 7.55393 4.02465 7.60636 4.1612 7.4733C5.41099 6.25432 6.66315 5.03746 7.91768 3.82274C8.05615 3.68835 8.0578 3.57632 7.92317 3.44353C7.68334 3.2058 7.44122 2.97073 7.19682 2.73832C7.05972 2.60713 6.93359 2.61085 6.79238 2.74551C6.66543 2.86659 6.5404 2.9898 6.41427 3.11195C5.21951 4.27167 4.02465 5.43131 2.82971 6.59086C2.66739 6.74867 2.66355 6.86124 2.8149 7.01186C2.92979 7.12602 3.05455 7.23167 3.16149 7.35222C3.309 7.51854 3.47516 7.62179 3.71372 7.56325ZM5.36739 9.15115C5.61033 9.22354 5.77868 9.10458 5.9347 8.93454C6.0803 8.77487 6.2429 8.6317 6.39782 8.48214C6.90179 7.99302 7.40576 7.50364 7.90973 7.01398C8.05807 6.86922 8.05972 6.75532 7.91522 6.61322C7.67758 6.37957 7.43839 6.14752 7.19764 5.91706C7.06055 5.7864 6.94292 5.78799 6.80363 5.91467C6.76359 5.95112 6.72575 5.98971 6.68709 6.02723L4.50587 8.14311C4.28651 8.356 4.28651 8.44036 4.50998 8.65777C4.60677 8.75198 4.71096 8.84006 4.79926 8.94119C4.94869 9.11283 5.12061 9.21635 5.36739 9.15115ZM6.99858 10.7478C7.00105 10.7633 7.00324 10.779 7.00571 10.7947C7.14281 10.7524 7.30732 10.7415 7.41481 10.6616C7.60537 10.52 7.76441 10.3383 7.93276 10.1696C8.05149 10.0504 8.05451 9.93672 7.93633 9.8191C7.68754 9.57073 7.43565 9.32626 7.18064 9.08569C7.06603 8.97685 6.93113 8.97658 6.81651 9.08569C6.56535 9.32448 6.31675 9.56585 6.0707 9.80979C5.94265 9.93699 5.94759 10.0493 6.07783 10.1802C6.19848 10.3013 6.33064 10.4123 6.44333 10.5397C6.5914 10.7047 6.75893 10.8043 6.99858 10.747V10.7478Z" fill="#FFBF00" fill-opacity="0.65"/>
</svg>
