<svg width="414" height="321" viewBox="0 0 414 321" fill="none" xmlns="http://www.w3.org/2000/svg">
<path d="M302.026 234.874L307.035 235.951C307.243 234.592 307.452 233.233 307.715 231.492L299.911 231.099V223.318L295.637 222.13C294.167 209.95 304.884 199.894 315.773 203.528V208.561L322.77 209.568L321.745 218.164L326.772 218.516L324.957 208.923L334.939 212.386L335.474 211.722L331.717 206.789C336.654 206.85 340.701 209.568 342.525 214.007L337.453 209.769C337.449 211.195 337.87 212.582 338.65 213.715C339.34 214.963 339.984 216.241 340.692 217.59L337.607 218.385L352.453 229.71L342.38 213.826C343.968 214.329 345.593 214.742 347.135 215.366C351.246 217.016 355.221 219.241 359.431 220.338C363.451 221.345 367.707 221.295 372.245 221.738L368.342 225.08H383.506L383.751 225.935L375.929 230.072H399.287L399.505 231.22L390.702 235.146L390.893 235.84H396.927L397.063 236.303L383.542 240.994L388.815 242.474C380.53 244.96 372.998 248.181 365.221 249.289C357.444 250.396 349.594 249.369 341.954 249.289C343.378 252.54 346.355 256.456 346.491 260.492C346.618 264.106 343.605 267.851 342.271 270.87L331.781 257.875C330.347 267.398 329.884 276.357 327.516 284.651C325.084 293.177 320.801 301.049 317.325 309.182C317.416 307.431 317.516 305.559 317.607 303.686L316.917 303.394L310.828 316.712C311.037 313.893 311.173 312.122 311.3 310.34L310.592 310.018L304.757 321L303.949 320.728L308.958 294.194L308.051 293.701L304.013 300.264L303.323 300.062C304.231 294.858 305.075 289.654 306.109 283.493L301.526 287.439C303.921 279.45 303.937 270.818 301.572 262.818C299.385 255.369 296.935 248.02 294.603 240.622L295.646 240.108L299.349 245.323L300.129 244.99C299.675 241.497 299.221 237.994 298.65 233.495L302.116 235.025C301.554 236.031 300.301 237.209 300.51 237.914C301.808 242.534 303.414 247.044 304.92 251.584C303.405 258.539 309.013 261.6 311.127 266.572L312.407 265.817L305.274 251.241C304.43 247.477 302.389 243.4 303.114 240.058C303.722 237.39 302.624 236.515 302.026 234.874ZM337.943 244.658L321.128 234.189V255.57L337.943 244.658ZM314.349 204.394C304.131 203.387 297.035 210.111 296.535 220.993L310.374 223.076L310.801 221.264L299.349 217.882C302.071 210.373 305.819 205.803 313.868 208.46C314.031 207.121 314.185 205.863 314.367 204.303L314.349 204.394ZM335.22 225.935C333.787 220.902 327.471 218.597 331.137 212.255L325.846 210.846C328.786 216.805 328.687 223.429 335.275 225.885L335.22 225.935ZM313.659 214.601L311.69 214.661L312.724 225.814L313.723 225.673L313.659 214.601ZM311.681 247.547C310.873 242.343 310.102 237.34 309.331 232.347C310.347 237.27 305.9 243.47 311.735 247.497L311.681 247.547Z" fill="black"/>
<path d="M338.968 110.798L331.781 116.053L331.055 115.046L336.4 108.352L325.456 112.087C325.601 102.021 325.601 102.021 321.763 103.833C322.117 106.369 322.471 108.956 322.888 111.946L315.828 112.63V117.663C309.875 119.606 304.802 118.137 300.682 113.456L314.004 118.66V112.338L309.467 114.1V109.228C308.341 110.909 307.715 111.865 306.944 113.033C303.251 111.503 299.966 108.805 300.365 104.366C300.501 102.886 305.22 101.91 308.314 100.491C308.559 102.776 308.686 104.014 308.822 105.252L309.458 105.363C309.957 102.222 310.465 99.0914 310.9 96.303L300.211 100.33C299.966 96.5849 299.793 93.9475 299.584 90.6962L307.752 89.4983C307.534 88.1192 307.307 86.6496 307.071 85.1799C305.864 85.4316 304.639 85.5826 303.441 85.955C302.243 86.3275 300.955 86.9616 298.84 87.8475C299.33 83.4586 299.748 79.7945 300.265 74.9527C298.305 77.4994 297.025 79.1704 295.728 80.8313L294.82 80.4488C295.574 77.5296 295.9 74.4091 297.143 71.7416C302.806 59.7729 305.066 47.3815 302.525 33.3895L305.465 39.0165C306.418 34.074 302.906 28.3463 309.485 28.5678L303.831 0.281867L304.739 0C306.681 3.70435 308.626 7.39528 310.574 11.0728L311.381 10.8413C311.209 9.05956 311.046 7.27784 310.782 4.43918L316.99 17.9681L317.652 17.7064C317.552 16.0958 317.452 14.4752 317.307 12.0391C321.01 20.6155 325.229 28.2155 327.589 36.4798C329.948 44.7441 330.384 53.5923 331.817 63.1954L342.289 50.2906C343.623 53.4614 346.545 57.3369 346.464 61.1117C346.382 64.8865 343.324 68.7016 341.763 72.0738C349.368 71.9127 357.253 70.7551 364.867 71.8523C372.716 72.9797 380.294 76.3016 388.406 78.7879L383.443 80.1468L397.118 84.9987L391.12 85.4718L390.938 86.3275L403.153 91.1693H376.092L383.842 95.3669H369.195L368.914 96.4339L372.372 99.6752C368.796 99.8463 365.348 99.2021 362.453 100.319C355.293 103.067 348.397 106.621 341.382 109.842C340.701 110.154 339.975 110.365 339.268 110.617L352.126 92.649L351.709 91.9846L339.004 101.809C341.128 107.225 336.373 108.856 335.611 112.53L338.968 110.798ZM338.487 76.7344C332.081 72.7079 326.69 69.366 321.1 65.8327V87.9078C324.331 85.3812 326.627 83.2875 329.168 81.6668C331.708 80.0462 334.712 78.7074 338.487 76.7344ZM311.427 55.4042C305.737 61.5546 298.205 83.5895 301.318 85.3812C301.806 85.2108 302.284 85.0091 302.751 84.7773C303.242 84.5155 303.659 84.133 303.45 84.3042C301.082 72.5167 310.565 65.4804 311.427 55.4042ZM311.681 73.3522C310.32 75.1138 308.242 76.5633 308.223 78.0329C308.178 82.7741 308.886 87.5354 309.294 92.2866H310.746C311.046 86.1664 311.345 80.0764 311.681 73.3522ZM335.674 95.3568C330.62 97.5714 326.854 104.477 327.189 110.295L331.418 108.674C329.213 105.151 329.213 105.151 335.674 95.3568ZM313.75 95.5279C312.815 99.1518 309.349 102.635 313.75 106.44V95.5279Z" fill="black"/>
<path d="M162.087 210.735C162.903 210.222 163.901 209.064 164.519 209.286C177.885 213.876 191.007 210.151 203.975 207.423C253.213 197.065 302.379 186.285 351.555 175.564C365.03 172.635 378.461 169.524 391.909 166.414C393.763 166.049 395.503 165.165 396.964 163.847L307.615 143.312L307.425 141.742C309.748 141.48 312.189 140.564 314.376 141.057C339.685 146.704 364.958 152.563 390.239 158.391C398.226 160.112 406.128 162.282 413.915 164.894C403.189 167.471 392.481 170.158 381.727 172.605C351.128 179.57 320.547 186.697 289.884 193.291C257.043 200.337 224.12 207.041 191.198 213.685C185.986 214.666 180.703 215.111 175.417 215.013C171.787 215.013 168.157 213.916 164.528 213C163.62 212.779 162.94 211.44 162.15 210.614L162.087 210.735Z" fill="black"/>
<path d="M96.0055 194.478C100.225 194.478 103.664 194.649 107.095 194.478C111.205 194.227 112.657 191.076 112.975 186.707C116.351 187.815 118.057 189.486 118.42 193.844C118.937 199.703 120.797 205.41 122.05 211.259C117.984 212.899 116.178 212.064 114.79 206.92L118.175 209.708C117.748 207.695 117.83 206.256 117.267 205.682C116.855 205.378 116.379 205.196 115.885 205.152C115.392 205.108 114.896 205.204 114.445 205.43C114.015 205.834 113.668 206.335 113.426 206.899C113.183 207.463 113.051 208.077 113.039 208.702C113.247 212.094 118.365 215.064 121.432 214.268C127.585 212.668 131.787 208.299 135.326 202.924C136.814 200.659 138.093 200.005 140.099 202.924C134.926 212.215 127.394 217.017 117.412 217.198L117.458 218.416C119.336 218.526 121.215 218.597 123.093 218.778C125.816 219.02 129.99 218.325 130.843 219.875C132.159 222.271 131.188 226.207 131.188 230.082C135.634 232.287 136.632 234.894 134.327 241.518C133.021 245.232 131.333 248.785 129.164 253.929L125.861 246.883C123.647 246.49 121.197 246.883 119.926 245.705C105.824 232.488 97.8749 215.587 96.0055 194.478Z" fill="black"/>
<path d="M183.212 260.432C183.375 257.69 182.784 254.957 181.517 252.595C180.25 250.234 178.366 248.354 176.116 247.205C170.136 244.417 167.395 252.953 162.05 255.077C159.264 252.711 156.161 250.144 153.139 247.477C148.021 242.977 146.923 242.957 141.805 247.477C140.897 248.312 139.881 249.067 138.021 250.587C140.335 244.306 142.268 239.071 144.201 233.857C148.81 235.961 153.039 238.186 157.44 239.806C160.58 240.964 159.845 243.642 160.072 245.947C160.19 247.245 159.745 248.604 160.508 250.164C160.68 247.376 160.852 244.598 161.025 241.669C169.891 242.786 178.384 243.682 186.479 239.373C195.07 234.951 202.093 227.487 206.443 218.154C209.102 212.406 213.149 210.896 218.04 210.564C219.311 210.473 220.672 212.245 222.133 213.252C214.656 222.04 214.538 225.17 221.226 233.253C211.34 246.389 198.08 255.87 183.212 260.432Z" fill="black"/>
<path d="M117.912 123.27C118.474 124.458 119.654 125.767 119.491 126.824C118.81 131.404 117.585 135.883 116.877 140.453C116.659 141.893 117.467 143.534 117.912 145.617H111.269C113.991 137.655 111.75 134.293 104.073 134.474C101.541 134.534 99.0092 134.474 96.0146 134.474C96.9267 119.706 101.874 105.598 110.198 94.0281C113.111 89.8753 116.525 86.1867 120.344 83.066C123.066 80.9018 126.814 80.318 130.326 78.949C137.086 88.3105 137.195 96.9775 129.908 98.9202C130.331 99.7385 130.654 100.615 130.87 101.527C131.133 104.054 132.013 107.064 131.115 109.007C130.516 110.285 127.295 110.275 125.217 110.456C122.621 110.688 120.008 110.516 117.186 111.261C127.676 111.01 134.609 117.019 140.108 126.018C138.493 128.485 137.386 128.988 135.398 126.189C133.121 122.968 130.571 119.516 127.422 117.653C124.25 115.934 120.706 115.237 117.195 115.64C113.91 116.003 112.258 119.053 113.138 123.16C113.656 125.575 113.792 128.092 114.109 130.629C114.318 127.498 113.901 123.844 118.02 123.361L117.912 123.27Z" fill="black"/>
<path d="M213.993 278.934C215.127 279.024 216.253 279.145 217.387 279.195C221.443 279.366 225.554 280.011 229.547 279.568C237.469 278.692 243.912 274.585 246.317 265.777C248.37 258.467 249.693 250.929 250.264 243.299C250.754 235.689 246.988 231.914 240.282 232.559C235.908 232.971 234.284 231.321 233.022 226.932C231.298 220.892 228.721 215.255 226.28 208.813L233.54 207.474C232.36 215.225 232.315 215.315 238.685 219.352C241.934 221.365 245.391 223.086 248.667 224.908C247.95 227.143 247.233 229.398 246.407 232.005C251.852 232.398 250.427 228.049 251.226 225.905H265.809C263.794 231.029 262.034 235.417 260.364 239.837C256.734 249.339 252.605 258.67 249.638 268.424C248.032 273.729 248.277 279.759 247.996 285.487C247.95 286.493 249.493 287.55 250.3 288.587L253.467 285.295C257.016 289.07 256.317 292.865 250.863 295.241C247.714 285.567 240.482 285.96 233.24 286.976C228.767 287.611 224.383 288.99 219.946 289.996C218.131 290.389 216.316 291.063 214.61 290.741C212.653 290.324 210.825 289.357 209.302 287.933C208.839 287.5 209.519 284.198 210.336 283.775C212.087 282.879 214.265 283.01 216.262 282.769L216.625 284.258L214.347 286.403L215.091 287.631L218.53 285.154C217.342 283.644 216.171 282.135 214.901 280.625C214.561 280.336 214.181 280.112 213.775 279.96L213.993 278.934Z" fill="black"/>
<path d="M215.545 88.9447L221.226 95.7393C217.596 99.7054 214.728 104.054 216.806 109.228C217.714 111.543 221.08 113.989 223.394 114.07C232.188 114.352 229.747 106.339 230.364 100.43C228.18 101.288 226.057 102.324 224.011 103.531C223.049 104.195 221.861 106.339 222.196 107.054C222.886 108.614 224.465 109.681 226.734 112.026C224.383 111.825 222.324 112.318 221.489 111.422C220.01 109.822 218.458 107.396 218.403 105.272C218.345 104.208 218.477 103.142 218.792 102.136C219.107 101.129 219.599 100.202 220.24 99.4083C220.881 98.6143 221.657 97.9693 222.524 97.5105C223.391 97.0518 224.331 96.7885 225.291 96.7359C232.264 96.2124 239.26 96.1923 246.235 96.6755C249.665 96.8667 253.005 94.1489 251.571 90.7666C249.221 85.2001 251.153 82.7137 256.444 81.1535C259.466 87.8877 262.578 94.8535 265.31 100.944C257.233 103.108 249.956 104.698 242.905 107.114C239.701 108.211 236.879 110.808 234.03 112.963C233.579 113.318 233.205 113.781 232.937 114.317C232.668 114.854 232.511 115.45 232.478 116.063C233.059 119.928 230.663 120.502 228.476 120.2C222.623 119.49 216.816 118.373 211.089 116.858C208.485 116.123 207.296 113.546 208.576 110.043C210.971 103.4 213.031 96.5949 215.545 88.9447Z" fill="black"/>
<path d="M187.414 53.6829C191.452 48.4787 191.279 47.6432 185.072 41.6639C198.603 42.298 211.661 56.2598 213.539 72.0738C215.354 87.0422 210.899 100.45 204.973 113.436C204.681 113.957 204.283 114.395 203.81 114.714C203.337 115.032 202.802 115.222 202.251 115.268C199.809 114.966 197.385 114.509 194.991 113.899C197.559 105.212 200.88 97.0781 202.296 88.5621C205.182 71.4799 201.107 62.7827 187.414 53.6829Z" fill="black"/>
<path d="M243.522 127.659C241.934 127.911 240.264 128.615 238.749 128.344C220.481 125.042 202.305 120.915 183.956 118.348C163.711 115.519 147.095 124.74 133.792 141.148C127.848 148.496 122.458 146.835 112.993 145.617C90.1978 142.698 66.7128 146.684 43.8449 144.208C41.5843 144.087 39.3326 143.811 37.1025 143.383C36.1134 143.131 35.2876 141.883 34.4618 141.087C35.3693 140.584 36.3856 139.588 37.2931 139.668C41.6489 140.051 45.9865 140.785 50.3333 141.289C57.6655 142.124 65.0068 142.899 72.3482 143.664C87.3666 145.225 101.85 139.074 116.877 140.453C122.413 140.967 126.659 144.902 129.836 140.453C140.135 126.139 153.529 118.459 169.764 115.026C184.283 112.006 197.641 117.351 211.507 119.053C217.042 119.717 222.505 121.166 227.986 122.324C233.077 123.391 238.15 124.539 243.231 125.656L243.522 127.659Z" fill="black"/>
<path d="M164.854 73.3622C167.676 75.9392 170.09 78.194 172.568 80.4085C175.671 83.1465 178.584 83.3378 181.043 79.4019C182.958 76.3821 184.827 73.2515 187.105 69.5572C190.272 71.1275 194.12 72.9495 197.895 74.9527C202.024 77.137 201.144 81.6064 200.971 85.2302C200.762 89.4882 199.565 93.6959 198.73 98.3163C194.991 95.5581 191.842 92.6691 188.258 90.7767C184.615 88.7794 180.715 87.4211 176.697 86.7502C172.758 86.1664 168.638 86.8207 164.627 87.2233C160.916 87.5958 157.014 87.7065 153.62 89.156C150.417 90.515 147.767 93.4744 144.763 95.8198C141.977 88.6326 139.491 82.2406 136.596 74.8822C139.79 77.6605 142.485 79.8146 144.981 82.2305C148.23 85.3812 151.242 85.6027 154.6 82.3714C157.822 79.2509 161.243 76.4626 164.854 73.3622Z" fill="black"/>
<path d="M74.0633 93.2127C72.2483 95.6588 70.5242 97.9338 68.5096 100.642C58.0557 88.0085 50.6509 74.4695 52.0484 56.9041C52.6926 48.8511 56.994 43.0832 63.8453 40.8988C72.5297 38.1306 80.0525 40.5868 85.6243 48.3679L80.3247 52.5454C78.1377 51.3777 76.2321 49.9181 74.1358 49.3242C66.9306 47.311 60.2518 54.2365 60.3788 63.4974C60.5058 72.5569 63.7455 80.318 69.0995 87.0623C70.6331 89.0453 72.2483 90.9982 74.0633 93.2127Z" fill="black"/>
<path d="M72.5659 105.363L78.6368 97.4103C81.4772 99.4235 83.9908 101.165 86.4954 102.906C91.1053 95.226 95.0346 87.5052 99.9893 80.7005C105.171 73.5938 111.269 67.3024 117.149 60.8802C117.921 60.0346 119.872 60.4977 121.959 60.2863C119.236 66.0743 111.224 67.1514 115.334 75.0433C104.209 87.1831 96.2778 101.457 90.461 118.257L72.5659 105.363Z" fill="black"/>
<path d="M279.575 197.387C278.568 213.222 267.833 223.227 255.074 220.228C248.921 218.778 243.195 215.013 237.36 212.094C236.892 211.786 236.501 211.353 236.222 210.834C235.943 210.316 235.785 209.728 235.763 209.125C235.934 208.513 236.238 207.958 236.648 207.507C237.058 207.055 237.561 206.723 238.113 206.538C242.07 206.065 246.081 206.125 250.046 205.763C252.669 205.521 255.863 205.763 257.751 204.232C264.284 198.897 272.061 200.276 279.575 197.387Z" fill="black"/>
<path d="M276.662 121.237H276.59C277.678 124.559 278.649 127.528 280.02 131.736C271.916 128.716 263.921 130.085 257.424 124.408C255.963 123.139 253.467 123.049 251.426 122.948C245.4 122.656 239.366 122.636 233.277 121.609C241.217 112.721 250.219 107.386 261.453 108.382C262.488 108.473 263.404 110.174 263.704 112.036C266.562 112.54 269.775 112.308 272.152 113.758C274.03 114.956 274.902 118.177 276.662 121.237Z" fill="black"/>
<path d="M55.415 249.943C59.435 253.688 61.7672 257.15 60.5875 263.14C59.181 270.186 63.083 275.803 66.9397 280.896C68.1103 282.447 78.6278 278.098 80.243 275.139C82.1305 271.676 83.3647 267.77 84.862 264.066C90.0345 267.287 90.6334 269.652 87.7386 277.031C83.6097 287.53 68.9906 293.137 60.6964 286.433C57.0212 283.413 52.5293 279.88 52.0484 273.407C51.4585 265.465 52.0211 257.815 55.415 249.943Z" fill="black"/>
<path d="M161.524 214.077C159.891 213.966 158.057 214.279 156.651 213.675C145.761 208.984 135.879 202.964 128.973 193.371C124.899 187.724 119.472 185.318 112.104 185.681C85.352 186.999 58.5639 187.976 31.7848 189.053C29.9699 189.133 28.0824 189.053 26.2312 189.053L25.4054 187.875C26.5397 187.16 27.6287 185.862 28.8084 185.811C44.465 184.966 60.1217 184.234 75.7783 183.617C87.5208 183.164 99.3722 183.516 111.015 182.419C120.834 181.493 127.404 185.439 132.667 192.364C138.874 200.518 147.404 205.632 156.596 210.101C158.411 211.007 159.809 212.819 161.415 214.198L161.524 214.077Z" fill="black"/>
<path d="M118.928 267.227C113.674 268.616 102.349 253.99 87.3393 226.72C82.8021 227.083 82.3483 226.63 79.3628 218.214L90.5608 210.977C95.7289 226.46 103.665 240.625 113.892 252.621C107.331 261.217 116.641 262.626 118.928 267.227Z" fill="black"/>
<path d="M214.129 42.8013L216.607 44.2509L216.543 45.7507C214.583 45.7507 212.478 46.2138 210.708 45.5595C209.801 45.2273 208.775 41.8954 209.066 41.6236C210.617 40.2143 212.587 38.4226 214.374 38.4729C218.231 38.5836 222.033 39.9124 225.89 40.4056C231.335 41.1102 236.988 42.4188 242.342 41.7041C245.609 41.2512 248.504 37.4361 252.533 34.3961C252.905 34.8894 254.838 36.3389 255.119 38.1105C255.437 40.1237 254.302 42.4893 253.84 44.5327L250.21 40.2647C249.529 41.9961 248.458 43.667 248.268 45.4588C247.94 48.1975 248.005 50.9765 248.458 53.6929C249.584 59.7327 251.181 65.6516 252.379 71.6812C252.461 72.5018 252.36 73.3323 252.085 74.0995C251.809 74.8666 251.368 75.5468 250.8 76.0801C249.202 71.349 248.077 66.3159 245.872 61.9875C244.057 58.3536 240.981 55.4042 238.259 52.3843C236.678 50.7971 234.995 49.3403 233.222 48.0257L214.356 50.0389L218.412 43.6368L214.846 41.231L214.129 42.8013Z" fill="black"/>
<path d="M186.379 277.041C191.325 272.209 195.88 267.77 200.408 263.301C200.771 262.938 201.243 262.375 201.225 261.932C200.699 252.449 207.886 249.943 213.022 245.292C216.97 265.556 204.066 285.708 181.715 288.265C188.448 280.474 188.448 280.474 186.379 277.041Z" fill="black"/>
<path d="M176.207 58.1019L173.639 61.9673L183.212 70.8256L177.132 79.7442L164.809 69.2653C161.079 72.5066 157.177 75.5969 153.611 79.11C151.007 81.6769 149.074 82.0091 146.351 79.1906C142.976 75.6573 139.146 72.6576 135.162 69.1244L123.002 79.7241C120.87 76.8552 118.828 74.087 116.487 70.9262L126.578 61.7056L112.013 48.6196L126.659 35.5336L116.614 26.474L122.921 17.4145C126.324 20.4343 129.518 23.1421 132.558 26.0412C134.373 27.7424 135.725 27.9336 137.603 26.0915C140.743 23.0213 144.119 20.2431 147.395 17.344L148.42 18.6224C146.188 20.7061 144.028 22.9005 141.705 24.8534C133.747 31.5776 136.723 31.7386 128.483 24.7728C126.814 23.3636 125.162 21.9342 123.229 20.2733L118.982 25.9305L129.318 35.604L114.971 48.6095L129.382 61.8063L119.01 71.2282L123.302 77.0565C126.532 74.2078 129.554 71.7114 132.376 69.0036C134.3 67.1413 135.752 66.9903 137.821 69.0036C140.825 72.0234 144.237 74.5601 147.331 77.4793C149.4 79.4321 150.861 79.7542 153.039 77.3283C155.952 74.1522 159.141 71.3031 162.558 68.8224C163.255 68.4377 164.022 68.2375 164.8 68.2375C165.578 68.2375 166.345 68.4377 167.041 68.8224C170.281 71.1577 173.203 74.0568 176.542 76.9961L180.889 71.4396L170.208 61.3734L176.334 58.2328L176.207 58.1019Z" fill="black"/>
<path d="M166.969 96.4238C165.009 98.5578 162.813 100.45 161.17 102.886C159.769 105.093 158.671 107.519 157.912 110.084C157.812 110.406 160.29 112.54 160.889 112.228C163.128 111.213 165.132 109.651 166.751 107.658C169.219 104.155 170.571 100.178 174.982 98.0646C178.53 96.3634 180.426 97.3096 183.512 99.5141L177.314 108.956C180.19 109.963 181.851 107.809 182.541 105.322C183.684 101.185 186.27 100.672 189.465 100.672C188.666 106.711 183.421 111.211 178.493 112.016C170.635 113.285 162.894 115.499 155.163 117.563C152.976 118.147 150.498 120.049 149.373 116.768C148.466 114.07 148.565 111.221 151.932 109.349C157.377 106.329 158.675 102.765 157.332 96.605L166.225 94.9139C166.47 95.4172 166.715 95.9205 166.969 96.4238Z" fill="black"/>
<path d="M106.659 186.184L104.554 187.875C104.554 187.221 104.409 186.456 104.554 186.345C105.743 185.63 107.276 184.271 108.184 184.614C109.291 185.006 110.715 187.019 110.607 188.177C110.489 189.606 109.146 191.287 107.884 192.103C106.868 192.777 105.234 192.586 103.919 192.415C94.4266 191.146 86.3321 193.784 80.1886 202.39C79.4654 203.272 78.6199 204.019 77.684 204.605L70.5423 187.573L101.387 184.171L104.772 190.039L107.648 187.311L106.659 186.184Z" fill="black"/>
<path d="M101.577 144.913C95.1526 144.228 87.9655 143.614 80.842 142.628C76.704 142.064 73.9816 135.259 75.615 131.031C76.3773 129.018 76.3228 126.653 76.7402 123.784C77.8292 124.619 79.3537 125.294 80.234 126.542C86.2232 135.048 94.2088 137.615 103.519 136.608C105.008 136.447 106.768 136.115 107.966 136.799C109.164 137.484 110.688 139.366 110.688 140.685C110.688 142.003 109.1 143.866 107.848 144.379C106.94 144.762 105.425 143.322 104.173 142.698L104.717 141.369L106.895 142.587L107.666 141.369L104.418 138.913C103.592 140.604 102.811 142.285 101.577 144.913Z" fill="black"/>
<path d="M24.3528 141.631C20.1785 141.228 16.6303 140.524 13.1184 140.705C11.1374 140.847 9.28766 141.853 7.97316 143.503C1.98394 152.412 2.15636 176.893 8.29077 185.781C9.30712 187.261 11.7573 188.247 13.5268 188.227C17.8826 188.167 22.2293 187.281 26.5851 186.989C27.4472 186.929 28.4 187.996 29.3075 188.559C28.518 189.274 27.7829 190.502 26.9118 190.633C22.1386 191.338 17.2927 192.375 12.5377 192.062C9.97864 191.891 6.34881 189.939 5.27801 187.603C-1.66403 172.756 -1.59143 157.405 4.51575 142.195C6.33066 137.755 9.76086 135.642 14.162 136.799C17.5015 137.705 21.9208 135.853 24.3528 141.631Z" fill="black"/>
<path d="M161.633 62.6619C163.72 64.1819 163.611 65.4905 161.633 67.1514C157.785 70.3524 154.083 73.7548 150.217 77.1672L131.342 61.615L118.093 48.9316C123.855 40.9794 130.952 36.3187 133.964 38.9259L123.075 48.8209L138.211 61.3634L138.039 61.1721C141.451 64.4033 144.754 67.7856 148.348 70.735C149.119 71.3691 151.17 70.8859 152.213 70.1712C155.508 67.8963 158.566 65.269 161.778 62.7726L161.633 62.6619Z" fill="black"/>
<path d="M190.499 227.888C186.207 228.613 183.847 227.697 182.45 223.539C181.107 219.513 179.728 219.261 177.749 220.822C179.564 223.62 181.479 226.428 183.348 229.247C178.176 233.485 174.065 232.911 170.462 227.606C167.613 223.429 165.018 219 162.776 215.305C168.493 215.829 174.982 215.809 181.207 217.198C185.853 218.224 187.731 223.429 190.499 227.888Z" fill="black"/>
<path d="M305.637 141.51C304.095 141.621 302.488 142.094 301.018 141.782C283.976 138.178 266.943 134.487 249.919 130.709C248.212 130.344 246.636 129.439 245.382 128.102C246.852 127.659 248.422 126.592 249.774 126.874C262.297 129.501 274.793 132.35 287.288 135.169C292.434 136.326 297.579 137.514 302.715 138.782C303.788 139.155 304.829 139.63 305.828 140.202L305.637 141.51Z" fill="black"/>
<path d="M87.2668 54.6794C94.7805 71.3993 79.6713 98.5075 66.3952 106.017C69.7165 101.658 73.2828 97.672 76.1141 93.1221C82.0126 83.6398 85.0616 73.2314 83.8456 61.4137C83.6188 59.3501 86.0598 56.9242 87.2668 54.6794Z" fill="black"/>
<path d="M73.4099 222.291L78.0288 231.623L63.1738 248.453C61.9591 247.042 60.8542 245.52 59.8706 243.903C59.6221 243.364 59.4925 242.767 59.4925 242.162C59.4925 241.556 59.6221 240.959 59.8706 240.42C64.0812 234.602 68.4098 228.935 73.4099 222.291Z" fill="black"/>
<path d="M97.4575 47.2707C84.5807 53.3104 74.6803 63.8296 64.1175 76.0197C64.2627 73.483 63.936 71.9932 64.4442 71.4295C75.2702 58.4039 86.9673 46.7674 103.837 41.9457C102.149 51.0053 96.9221 56.7631 92.6843 63.1551L91.4955 62.4807L98.8913 48.2874L97.4575 47.2707Z" fill="black"/>
<path d="M178.339 302.881L167.958 293.238L184.129 279.034C184.464 279.507 184.791 279.99 185.118 280.464L170.816 293.278L180.717 302.398L174.537 311.457L162.241 300.827L147.368 313.722C143.738 310.541 139.99 307.682 136.696 304.29C133.674 301.18 131.188 300.697 128.375 304.371C127.803 305.116 126.741 305.377 125.298 305.025C127.317 303.001 129.438 301.106 131.65 299.348C132.277 298.905 133.919 299.499 134.727 300.173C138.121 302.971 141.487 305.83 144.627 308.961C146.732 311.055 148.193 311.105 150.38 308.961C154.164 305.267 158.284 301.995 162.377 298.452L174.174 308.659L178.339 302.881Z" fill="black"/>
<path d="M133.955 227.455C133.447 223.992 132.866 219.976 132.404 216.835L143.211 204.373C143.538 205.622 144.636 207.474 144.3 208.923C142.486 216.976 140.299 224.908 138.175 233.173L133.955 227.455Z" fill="black"/>
<path d="M132.376 111.976H134.355C134.101 108.564 133.819 104.869 133.493 100.491L138.03 95.7595C140.262 104.336 142.422 112.248 144.291 120.24C144.573 121.428 143.438 123.019 142.966 124.428C141.981 123.939 141.064 123.295 140.244 122.515C137.585 119.032 134.926 115.409 132.376 111.976Z" fill="black"/>
<path d="M276.426 291.375C264.974 287.953 257.832 275.098 260.174 260.512C260.682 262.317 261.082 264.156 261.371 266.019C262.097 273.427 264.293 280.051 269.539 285.024C270.845 286.262 272.452 287.097 274.983 288.859C274.187 281.51 271.72 274.506 267.814 268.505C264.33 262.928 260.101 257.915 255.918 252.278C265.627 254.906 278.704 280.131 276.426 291.375Z" fill="black"/>
<path d="M160.499 265.817C157.776 264.176 154.609 263.019 152.386 260.784C148.865 257.221 146.079 256.526 142.622 260.784C140.035 263.945 136.968 266.623 134.11 269.512H134.028C132.213 270.78 130.398 272.169 128.465 273.286C126.865 274.128 125.226 274.877 123.556 275.531L123.647 275.692C124.601 273.681 125.668 271.738 126.841 269.874C128.101 268.315 129.466 266.864 130.925 265.535L130.77 265.717L147.513 251.715C151.388 255.067 155.435 258.409 159.264 262.032C160.063 262.787 160.045 264.599 160.408 265.928L160.499 265.817Z" fill="black"/>
<path d="M277.887 37.4965C276.571 50.2503 271.535 60.7594 264.148 70.1109L262.814 69.3458C264.439 66.5273 266.145 63.7692 267.66 60.8903C269.308 57.9357 270.781 54.8658 272.07 51.6998C273.339 48.3619 274.156 44.8341 274.493 41.231C261.045 48.7203 260.319 62.2593 261.281 76.6237C255.31 61.5244 262.941 39.1473 277.887 37.4965Z" fill="black"/>
<path d="M53.9903 221.727C53.591 223.419 53.5638 225.402 52.7199 226.761C50.0882 230.928 50.179 234.401 53.4458 238.226C62.1302 248.383 70.5968 258.761 79.0996 269.109C79.5875 269.974 79.9432 270.923 80.1523 271.917C79.1632 271.696 77.8927 271.847 77.2121 271.213C66.0698 260.718 56.2967 248.555 48.1735 235.075C47.8478 234.392 47.6538 233.64 47.6038 232.869C47.5539 232.098 47.649 231.324 47.8831 230.596C49.0447 227.365 50.669 224.345 52.1119 221.234L53.9903 221.727Z" fill="black"/>
<path d="M249.393 248.695C241.725 247.024 234.774 243.722 229.293 250.517C225.264 255.55 224.592 261.801 225.445 269.028C233.331 264.7 233.086 256.456 234.121 248.353C238.658 256.275 232.859 268.988 223.912 272.733C220.608 265.807 223.603 251.533 229.356 246.833C234.474 242.625 244.42 243.017 249.393 248.695Z" fill="black"/>
<path d="M81.3229 97.0781C81.7131 95.6085 81.822 93.9375 82.5208 92.6893C90.6153 78.204 98.5192 63.4974 110.525 52.4246C110.779 52.1931 111.795 52.9782 111.841 53.0084C102.016 67.6581 92.2033 82.2809 82.4028 96.8768L81.3229 97.0781Z" fill="black"/>
<path d="M110.97 275.189C109.962 274.847 108.646 274.847 107.975 274.112C97.1943 262.425 88.9183 248.685 81.4953 234.23C81.3281 233.411 81.258 232.572 81.2866 231.733C82.8021 232.79 84.0816 233.203 84.6624 234.149C88.8911 241.085 92.7115 248.332 97.1762 255.057C101.541 261.68 106.514 267.72 111.269 274.011C111.133 274.404 111.051 274.766 110.97 275.189Z" fill="black"/>
<path d="M120.788 251.745L116.487 257.654L126.796 267.216L115.089 277.665L114.064 276.276L124.046 267.216L114.164 257.895L120.407 249.168L132.685 259.667C136.551 256.244 140.317 253.174 143.783 249.732C146.388 247.145 148.511 246.712 151.043 249.732C152.499 251.322 154.048 252.805 155.68 254.171L154.918 255.318L147.386 249.279C143.484 252.681 139.382 256.033 135.516 259.707C133.375 261.72 131.768 261.791 129.681 259.707C126.995 257.08 124.091 254.704 120.788 251.745Z" fill="black"/>
<path d="M162.74 31.8393L182.577 48.4082C178.04 52.4347 174.029 56.2699 169.782 59.7628C169.038 60.3769 167.431 59.7628 166.225 59.642L165.943 58.263L176.606 48.6901C172.631 45.1266 168.756 42.0162 165.326 38.4024C163.911 36.9126 163.43 34.3256 162.522 32.2319L162.74 31.8393Z" fill="black"/>
<path d="M56.141 84.8276C55.5239 86.4482 55.2335 88.5017 54.2081 89.6191C49.9249 94.1388 50.297 98.5176 53.4095 103.631C57.112 109.671 60.4151 116.113 63.7727 122.445C64.3758 123.908 64.841 125.436 65.1611 127.005L63.5549 127.891C60.0158 121.67 56.4828 115.449 52.9558 109.228C52.4023 108.221 52.0484 107.134 51.4948 106.118C45.9865 95.2058 46.3404 93.0315 55.0157 84.3041L56.141 84.8276Z" fill="black"/>
<path d="M164.255 295.402L161.642 294.496C162.114 293.016 162.205 291.063 163.13 290.147C166.479 286.825 170.118 283.846 174.228 280.222L162.74 269.874C164.764 269.421 166.37 268.475 167.059 269.008C171.361 272.501 175.453 276.306 179.546 279.95L164.119 295.573L164.255 295.402Z" fill="black"/>
<path d="M148.829 46.7876C147.195 46.4654 145.199 46.7171 143.992 45.7306C137.077 39.9526 130.317 33.9331 123.638 27.833C122.73 27.0277 122.621 25.2459 122.14 23.9071L123.629 22.9005C131.796 30.1381 140.026 37.3556 148.13 44.6636C148.565 45.0562 148.484 46.1634 148.638 46.9486L148.829 46.7876Z" fill="black"/>
<path d="M131.923 254.412C137.141 238.88 142.358 223.348 147.431 208.229C148.493 209.598 147.431 216.755 143.574 229.176C140.752 238.236 137.776 247.296 133.302 255.449L131.923 254.412Z" fill="black"/>
<path d="M134.028 269.481H134.11C135.698 269.693 137.74 269.3 138.81 270.226C145.29 275.632 151.615 281.299 157.867 287.037C158.956 288.043 159.337 290.057 160.054 291.526L158.829 292.332L146.124 282.577C145.902 282.43 145.69 282.266 145.489 282.084C143.447 279.94 141.369 277.846 139.373 275.652C137.531 273.619 135.77 271.525 134.028 269.481Z" fill="black"/>
<path d="M148.829 46.7876L148.674 46.9486C151.887 44.2005 155.027 41.3116 158.339 38.795C159.41 37.9998 161.061 38.191 162.486 37.9394L162.767 39.4896L150.698 51.2066L150.879 51.0153L138.039 61.0815L138.211 61.2728C137.649 60.3568 137.086 59.4307 136.396 58.3536L148.829 46.7876Z" fill="black"/>
<path d="M176.923 17.4447L183.276 26.3935L172.867 35.9262L178.738 40.164L177.513 41.684L170.707 35.745L180.844 25.9707C179.473 24.1085 178.194 22.367 176.669 20.2733C173.266 23.2226 170.172 26.1318 166.842 28.6584C165.934 29.363 163.883 29.5643 163.067 28.91C158.113 25.034 153.52 20.62 149.355 15.7334C150.287 16.0167 151.181 16.4365 152.014 16.9816C155.498 19.921 159.001 22.8502 162.295 26.0412C164.183 27.8632 165.526 27.7323 167.341 25.9808C170.254 23.1119 173.412 20.535 176.923 17.4447Z" fill="black"/>
<path d="M161.633 62.6619L161.778 62.7223C160.616 61.313 159.518 59.8333 158.275 58.5247C155.852 55.9679 153.348 53.4916 150.879 51.0153L150.698 51.2066C153.094 49.3746 154.927 50.3006 157.05 52.2132C163.402 58.1321 170.09 63.7188 176.488 69.6277C177.314 70.3927 177.286 72.2851 177.649 73.6542L176.034 74.5601L163.702 62.37L161.633 62.6619Z" fill="black"/>
<path d="M162.504 32.2319C161.504 32.6544 160.483 33.014 159.446 33.309C159.137 33.3794 158.693 32.8157 158.339 32.5238C149.89 25.4775 149.927 25.4775 141.741 32.1111C140.453 33.1177 138.602 33.3492 137.014 33.9431L136.26 32.2218C140.344 28.5275 144.373 24.7628 148.556 21.2195C149.001 21.0049 149.487 20.9138 149.971 20.9541C150.454 20.9945 150.922 21.165 151.333 21.451C155.208 24.8131 158.956 28.3564 162.74 31.8393L162.504 32.2319Z" fill="black"/>
<path d="M134.101 295.613C135.689 295.845 137.576 295.543 138.792 296.398C141.678 298.462 144.237 301.069 147.268 303.737L158.03 294.989C156.841 303.173 151.07 304.773 147.567 309.082C143.275 305.327 139.237 301.884 135.317 298.281C134.7 297.707 134.591 296.439 134.255 295.482L134.101 295.613Z" fill="black"/>
<path d="M160.871 228.301C160.499 229.7 160.136 231.089 159.537 233.334C158.629 232.176 157.295 231.089 157.449 230.596C159.41 224.556 155.517 221.727 151.941 219.604C148.665 217.661 148.411 214.993 149.446 212.225C150.816 208.551 153.438 210.624 155.58 211.601C157.395 212.446 159.21 213.433 161.932 214.822C156.233 218.235 157.159 221.758 160.117 225.563C160.626 226.207 160.508 227.455 160.68 228.421L160.871 228.301Z" fill="black"/>
<path d="M160.408 265.898L173.829 254.825L174.963 255.218C174.555 256.677 174.528 258.58 173.657 259.506C171.533 261.791 168.983 263.593 166.651 265.656C161.96 269.814 157.359 274.092 152.558 278.098C151.796 278.732 150.217 278.179 149.019 278.179L148.547 276.437C152.277 273.568 156.025 270.74 159.7 267.8C160.163 267.428 160.254 266.482 160.508 265.787L160.408 265.898Z" fill="black"/>
<path d="M65.5785 142.094C64.4351 140.081 62.5113 138.118 62.8562 137.172C66.3771 127.8 70.2701 118.741 74.0632 109.48L75.8782 110.063C75.742 111.302 75.8782 112.691 75.4426 113.778C72.7202 120.482 69.7891 127.065 67.1575 133.799C66.3589 135.853 66.2863 138.229 65.5785 142.094Z" fill="black"/>
<path d="M88.392 259.053C86.5771 256.969 84.1632 255.208 83.1197 252.731C80.8004 247.099 79.0563 241.198 77.9199 235.136C83.4965 241.486 87.4329 249.381 89.3176 257.996L88.392 259.053Z" fill="black"/>
<path d="M227.169 59.4407C231.271 60.0145 233.004 63.3665 234.039 66.7488C236.888 75.9895 236.761 85.1598 232.169 93.9274C233.603 81.9084 236.598 69.7082 227.169 59.4407Z" fill="black"/>
<path d="M222.305 209.084C227.569 213.242 235.591 237.632 233.676 242.303C229.973 231.482 226.298 220.751 222.305 209.084Z" fill="black"/>
<path d="M199.292 226.378C197.396 222.352 195.871 219.03 194.12 215.245C196.842 214.701 199.265 214.087 201.733 213.755C202.641 213.644 204.066 213.946 204.374 214.58C204.621 215.129 204.759 215.731 204.778 216.344C204.797 216.957 204.696 217.568 204.483 218.134C203.058 220.832 201.271 223.298 199.292 226.378Z" fill="black"/>
<path d="M156.261 293.358C147.476 302.539 146.651 302.529 138.801 293.439C146.469 284.108 147.867 284.087 156.261 293.358ZM153.874 293.358L147.467 287.661L141.115 293.288C143.366 295.361 145.29 297.113 147.467 299.076L153.874 293.358Z" fill="black"/>
<path d="M134.101 295.613L134.255 295.452L129.808 297.465C129.963 295.382 130.081 293.721 130.208 292.06L130.434 291.738C133.883 289.01 137.249 286.161 140.816 283.634C142.132 282.708 143.901 282.547 145.462 282.034C145.663 282.215 145.875 282.38 146.097 282.527C143.992 284.883 141.914 287.268 139.745 289.573C137.921 291.637 135.997 293.61 134.101 295.613Z" fill="black"/>
<path d="M141.097 35.1913C143.529 33.0472 145.87 30.7622 148.429 28.8396C148.911 28.5665 149.445 28.4242 149.986 28.4242C150.527 28.4242 151.06 28.5665 151.542 28.8396C154.11 30.8528 156.46 33.1278 158.91 35.3323C150.389 44.7643 148.729 44.7542 141.097 35.1913ZM143.819 35.7852L149.809 41.1505C151.043 40.1439 152.168 39.3285 153.203 38.3924C154.237 37.4562 155.072 36.4697 156.025 35.4933C149.682 29.0208 149.682 29.0208 143.829 35.7852H143.819Z" fill="black"/>
<path d="M162.767 54.3774L155.507 48.982C157.041 47.462 157.985 46.405 159.038 45.4991C160.934 43.8784 162.885 42.3383 164.999 40.6271L174.011 48.5693C171.599 50.9581 169.059 53.1834 166.406 55.2331C165.644 55.7565 163.92 54.5888 162.631 54.2265L171.787 49.1229L164.709 43.0329L158.965 48.1465L162.767 54.3774Z" fill="black"/>
<path d="M223.512 217.54C221.089 222.18 222.124 225.21 226.48 227.264C227.56 227.767 227.841 230.344 228.54 232.086C223.004 232.76 218.812 229.539 218.204 224.465C217.732 220.58 219.52 218.043 223.512 217.54Z" fill="black"/>
<path d="M18.3 170.833C17.3926 175.302 16.4851 179.772 15.5323 184.634C13.7809 182.389 11.1583 181.161 11.7663 176.742C12.3471 172.484 11.5032 168.075 7.68277 165.337C7.29257 165.055 7.1746 164.33 6.97496 163.746C6.97496 163.686 7.16552 163.515 7.21997 163.454L12.4832 167.481L13.309 166.655C13.8989 169.333 14.4796 172.011 15.1239 175.01L18.3726 170.984L18.3 170.833Z" fill="black"/>
<path d="M59.2082 226.449L49.7071 212.95C49.8432 212.467 49.9703 211.943 50.1064 211.5L65.1248 214.52C65.0159 215.346 64.9161 216.171 64.8072 216.996L54.7616 215.527L60.6964 225.281L59.2082 226.449Z" fill="black"/>
<path d="M143.221 47.8646C138.683 57.8805 134.01 57.9308 126.414 48.5189C137.041 38.3924 133.511 39.2983 143.221 47.8646ZM141.006 48.6397C134.926 41.8954 134.4 41.9155 129.209 48.8209C135.153 55.1324 135.153 55.1324 141.006 48.6397Z" fill="black"/>
<path d="M147.567 273.045L154.691 265.586L155.598 266.462C153.482 269.093 151.221 271.577 148.829 273.9C148.13 274.525 146.034 273.971 145.017 273.216C142.835 271.444 140.742 269.542 138.747 267.518C147.25 257.603 148.584 257.633 151.896 264.851L147.186 261.549L141.061 267.106L147.567 273.045Z" fill="black"/>
<path d="M47.1753 164.23L38.1007 171.276C36.9029 166.716 40.4964 166.313 42.1661 164.179C39.1534 160.686 34.4074 158.582 33.0099 153.6L33.9173 152.704L47.1753 164.23Z" fill="black"/>
<path d="M18.3908 170.934L21.1131 165.518C24.1168 168.598 26.8936 170.43 29.8247 165.468L33.4546 171.417L36.7033 171.085C36.6397 171.809 36.7668 173.027 36.4764 173.158C35.4321 173.779 34.2571 174.078 33.0734 174.024C28.1278 173.098 23.2184 171.92 18.2909 170.833L18.3908 170.934Z" fill="black"/>
<path d="M226.516 57.3369C223.285 67.5138 226.162 75.3553 232.796 83.1365C224.629 80.1166 220.69 67.1011 223.612 56.2195L226.516 57.3369Z" fill="black"/>
<path d="M98.2197 281.631C97.0763 278.611 96.4048 275.229 94.6897 272.753C90.8512 267.237 86.4682 262.193 82.5117 256.728C90.3975 262.526 97.1943 269.451 100.969 279.507L98.2197 281.631Z" fill="black"/>
<path d="M129.636 193.23L112.993 184.171C119.509 181.151 124.953 184.221 129.636 193.23Z" fill="black"/>
<path d="M58.0103 210.343L70.1703 190.704C70.4697 193.27 71.0777 194.629 70.6784 195.505C67.8381 202.34 61.1138 210.564 58.0103 210.343Z" fill="black"/>
<path d="M17.8917 155.17L15.3599 153.58C13.2546 155.422 15.7138 161.32 10.3144 160.807C12.338 154.767 10.9496 147.882 15.378 143.372C16.231 147.53 17.0296 151.425 17.8191 155.261L17.8917 155.17Z" fill="black"/>
<path d="M124.164 287.349C121.769 285.782 119.471 284.04 117.285 282.134C116.705 281.571 116.941 278.531 117.467 278.269C119.463 277.262 120.189 272.169 123.647 275.662L123.556 275.501L121.65 280.423L125.389 286.211L124.164 287.349Z" fill="black"/>
<path d="M131.324 61.615L133.91 65.3194L123.874 74.2279C121.632 72.7784 121.151 71.5 123.429 69.4566C126.151 67.0105 128.701 64.2523 131.324 61.6251V61.615Z" fill="black"/>
<path d="M164.255 295.402L164.119 295.573C165.299 295.573 166.787 295.11 167.604 295.724C170.435 297.848 173.049 300.354 176.678 303.525C174.864 304.24 173.321 305.377 172.785 304.954C169.736 302.569 166.896 299.841 164.065 297.133C163.829 296.912 164.174 295.996 164.255 295.402Z" fill="black"/>
<path d="M98.2197 281.631L100.942 279.507L104.027 285.829C103.719 286.262 103.419 286.705 103.12 287.147L88.7913 280.695C88.9818 280.091 89.1724 279.487 89.3539 278.883L98.2197 281.631Z" fill="black"/>
<path d="M166.143 31.8594C168.938 29.363 171.669 26.7659 174.582 24.4608C175.281 23.9172 176.615 24.3601 177.649 24.3501C177.314 25.4271 177.25 26.8465 176.579 27.531C174.499 29.7074 172.252 31.6778 169.863 33.4197C169.02 34.0237 167.54 33.5203 166.343 33.5203L166.143 31.8594Z" fill="black"/>
<path d="M139.591 92.6893C135.607 88.4816 134.763 82.2003 132.204 77.0666C132.004 76.6539 133.111 75.4459 134.064 73.8253C136.533 80.4287 138.665 86.1362 140.789 91.8337L139.591 92.6893Z" fill="black"/>
<path d="M130.925 265.505C129.808 265.445 127.839 265.676 127.73 265.284C126.451 260.653 121.097 261.751 119.373 257.231L121.015 254.654C123.937 257.1 126.75 259.224 129.273 261.7C130.18 262.556 130.289 264.317 130.77 265.656L130.925 265.505Z" fill="black"/>
<path d="M17.8009 155.261C20.0333 155.945 22.2384 157.042 24.4889 157.193C26.3038 157.324 28.2548 156.328 30.8411 155.653C30.714 158.009 30.6142 159.972 30.587 160.576H21.4307L20.605 162.428C19.6975 160.022 18.79 157.616 17.8826 155.19L17.8009 155.261Z" fill="black"/>
<path d="M146.914 121.932C145.099 114.593 143.357 107.698 141.533 100.38C145.271 102.433 149.065 117.734 146.914 121.932Z" fill="black"/>
<path d="M161.179 286.926L168.883 279.99L160.78 274.283C162.695 271.736 164.101 272.421 171.234 280.665L162.087 288.194L161.179 286.926Z" fill="black"/>
<path d="M121.759 146.473C118.501 141.057 120.852 139.94 130.534 137.021L121.759 146.473Z" fill="black"/>
<path d="M73.2647 213.856C74.3627 215.154 75.8147 216.272 76.5043 217.802C78.3918 221.979 79.9617 226.338 81.6496 230.616L79.998 231.361L72.0669 214.943L73.2647 213.856Z" fill="black"/>
<path d="M123.81 294.898L116.814 303.273L120.552 308.538L124.082 306.253L125.189 307.531L120.262 311.055C119.4 309.827 118.447 308.447 117.449 307.078L113.91 302.136L123.973 294.979L123.81 294.898Z" fill="black"/>
<path d="M129.001 294.898C129.999 301.945 123.402 301.884 121.351 305.911C118.756 302.619 121.097 299.378 129.001 294.898Z" fill="black"/>
<path d="M162.35 259.667L174.927 248.795C174.845 250.607 175.118 251.946 174.718 252.258C170.617 255.499 166.406 258.57 161.832 261.982L156.723 256.899L157.431 255.892L162.35 259.667Z" fill="black"/>
<path d="M123.973 294.979C120.625 291.395 117.204 287.872 113.991 284.178C112.724 282.747 111.809 280.979 111.333 279.044C115.516 282.859 119.726 286.644 123.855 290.52C125.262 291.838 127.485 293.399 123.855 294.848L123.973 294.979Z" fill="black"/>
<path d="M176.297 58.2026C177.767 56.3001 179.156 54.3271 180.717 52.5353C181.974 51.2413 183.291 50.0216 184.664 48.8813L182.051 45.4991L182.65 44.6032L188.33 48.7404C183.92 52.1327 180.045 55.1123 176.179 58.1019L176.297 58.2026Z" fill="black"/>
<path d="M171.923 269.995C168.176 267.599 168.094 267.176 171.016 264.418C172.159 263.341 173.357 262.344 174.582 261.398C176.869 259.637 178.875 257.784 177.631 253.949L180.544 257.513C178.584 262.687 170.716 262.455 171.923 269.995Z" fill="black"/>
<path d="M252.569 78.5765C249.738 83.1365 241.262 85.9651 236.97 83.7304L252.569 78.5765Z" fill="black"/>
<path d="M51.4857 201.011C51.9939 197.166 52.4658 193.653 53.0829 189.012C54.199 190.442 55.8052 191.589 56.1864 193.129C57.3116 197.528 53.9631 198.968 51.4857 201.011Z" fill="black"/>
<path d="M51.5402 128.102C53.9903 129.793 57.1755 131.323 56.141 135.732C55.7598 137.333 54.3261 138.641 53.0647 140.614C52.4476 135.561 52.003 131.907 51.5402 128.102Z" fill="black"/>
<path d="M118.03 123.401C118.03 122.395 118.03 121.388 117.966 120.381L115.334 121.579C115.461 117.553 117.222 116.486 122.848 117.603C121.369 119.878 122.549 124.347 117.921 123.27C117.954 123.316 117.991 123.36 118.03 123.401Z" fill="black"/>
<path d="M19.1258 163.968L15.986 168.528L14.5341 168.065V160.062L15.8499 159.539L19.1258 163.968Z" fill="black"/>
<path d="M270.074 239.434C267.225 244.115 264.575 248.493 261.979 252.772C260.092 249.711 263.422 243.954 270.074 239.434Z" fill="black"/>
<path d="M69.8164 132.058L75.8782 141.118C71.722 141.973 68.8908 138.178 69.8164 132.058Z" fill="black"/>
<path d="M34.2531 139.084C32.9373 140.926 32.2113 142.577 31.7485 142.487C29.5121 141.963 27.3061 141.29 25.1422 140.473L25.478 139.104L34.2531 139.084Z" fill="black"/>
<path d="M37.8829 163.666L33.8992 168.447C33.0734 166.686 32.0299 165.226 31.8574 163.656C31.7848 163.052 33.6723 161.643 34.7431 161.572C35.6325 161.492 36.6216 162.76 37.8829 163.666Z" fill="black"/>
<path d="M160.753 228.462C165.009 226.247 164.827 231.079 167.559 233.364H160.626C160.716 231.512 160.789 229.911 160.871 228.331L160.753 228.462Z" fill="black"/>
<path d="M124.164 287.349L125.389 286.211C128.111 286.876 131.514 286.805 130.434 291.748L130.208 292.07L124.164 287.349Z" fill="black"/>
<path d="M73.301 210.343C67.9924 207.816 67.0849 205.501 69.5714 201.494L73.301 210.343Z" fill="black"/>
<path d="M269.902 90.7062L261.408 81.9084L263.286 79.8247L270.836 89.5184L269.902 90.7062Z" fill="black"/>
<path d="M156.478 280.151L158.575 283.705L157.985 284.44L153.221 280.333L158.502 275.39L159.273 276.236C158.348 277.544 157.413 278.843 156.478 280.151Z" fill="black"/>
<path d="M49.1536 198.434C48.2461 195.737 47.5564 193.401 46.6581 190.593C51.522 192.012 52.0121 193.764 49.1536 198.434Z" fill="black"/>
<path d="M158.847 61.8465C147.885 71.6208 151.696 71.6711 141.605 62.1284C147.204 52.6763 150.562 52.5756 158.847 61.8465ZM149.863 56.0082L143.611 61.7761C145.834 63.7893 147.794 65.5308 149.963 67.4433L156.315 61.6956L149.863 56.0082Z" fill="black"/>
<path d="M141.878 280.625C137.994 282.819 135.87 287.48 131.106 286.554L139.337 280.333C136.769 278.319 134.872 275.722 132.758 275.471C130.943 275.259 128.865 277.715 126.405 279.296C130.099 270.991 132.975 271.273 141.878 280.625Z" fill="black"/>
</svg>
