<svg width="100" height="89" viewBox="0 0 100 89" fill="none" xmlns="http://www.w3.org/2000/svg">
<path d="M50.267 0.0107514C63.4117 0.0107514 76.5564 0.0107514 89.701 0.0107514C96.5839 0.0107514 100.025 3.33383 99.9968 10.1789C99.9542 21.1708 100.167 32.1911 99.556 43.1474C98.3828 64.2365 83.3088 82.0023 62.6532 87.3846C34.4962 94.7126 5.51446 76.3502 0.92117 47.6777C-0.408466 39.3486 0.252795 30.6999 0.0750358 22.1933C-0.0102884 17.9329 -0.0387298 13.6725 0.0750358 9.41205C0.252795 3.46878 3.80796 0.0320604 9.75222 0.017859C23.269 -0.0176444 36.7645 0.0107514 50.267 0.0107514ZM50.1035 45.235C43.8464 39.2491 37.9092 33.4834 31.8654 27.8171C28.4382 24.6005 24.2716 24.6288 21.4914 27.6679C18.8393 30.565 19.1237 34.584 22.366 37.7367C29.756 44.9179 37.1816 52.0564 44.6427 59.1523C48.3828 62.7027 51.8313 62.7027 55.5287 59.1523C62.8097 52.2078 70.0741 45.2445 77.3219 38.2621C81.0904 34.6479 81.5383 30.4514 78.5164 27.4123C75.6083 24.4939 71.5198 24.7921 67.8509 28.2643C62.0275 33.81 56.2326 39.3769 50.1035 45.235V45.235Z" fill="white" fill-opacity="0.6"/>
</svg>
