<svg width="106" height="96" viewBox="0 0 106 96" fill="none" xmlns="http://www.w3.org/2000/svg">
<path d="M67.0162 7.91401C65.5229 7.63722 64.5159 8.21573 63.5157 8.84662C58.3224 12.1107 57.8797 15.0407 59.0128 20.7012C59.6505 23.8955 60.6851 26.9975 60.903 30.2866C61.0003 31.6138 61.0218 32.9463 60.9672 34.2764C60.8434 36.8149 59.3822 38.1514 57.0676 38.2811C54.5191 38.4232 52.5326 37.0916 50.5346 35.7027C50.3213 35.5556 50.007 35.3636 50.1584 35.0269C50.3373 34.623 50.6929 34.8075 50.959 34.9222C51.8765 35.3162 52.8285 35.3037 53.785 35.2763C55.9046 35.2165 57.2924 34.1118 57.9026 31.9124C58.5527 29.5686 58.515 27.0628 57.7948 24.7433C57.2282 25.5288 57.3865 26.3218 57.352 27.0773C57.2947 28.2319 57.4484 29.3964 57.0653 30.531C56.4391 32.3862 55.3472 33.1567 53.5534 33.2889C50.7732 33.4959 48.4334 32.4685 46.4606 30.4612C44.1667 28.1271 41.6962 27.2718 38.7463 28.8229C38.5352 28.9326 38.3058 29.0099 38.1108 28.7929C37.8448 28.4987 38.042 28.2518 38.2141 28.0449C39.2211 26.7631 40.2442 25.7607 42.038 25.7408C44.4842 25.7276 46.9034 26.2961 49.1261 27.4065C49.6211 27.6214 50.1312 27.7924 50.6516 27.9177C51.0874 28.0374 51.6219 28.2743 51.9545 27.8703C52.3559 27.3716 52.138 26.7457 51.888 26.2345C51.0255 24.474 49.5161 23.4317 48.0136 22.4941C45.7028 21.0706 43.0429 20.4608 40.4002 20.7486C38.4825 20.9256 36.9593 21.746 36.0142 23.6187C35.8926 23.8681 35.8812 24.2471 35.5187 24.1848C35.2664 24.1399 35.2526 23.8232 35.1586 23.6013C34.0621 21.0229 34.5324 18.7936 36.5349 17.6765C37.7415 17.0007 39.0789 17.2775 40.3543 17.5069C42.6803 17.9283 44.9879 18.5043 47.3759 18.3522C48.0641 18.3048 48.8188 18.3048 49.0757 17.4196C49.3211 16.5793 48.8761 15.9434 48.2912 15.5045C44.6209 12.7616 40.6479 11.8664 36.3468 13.3326C35.1035 13.7565 34.2365 14.7864 33.562 15.9883C33.4244 16.2376 33.3005 16.5693 32.9886 16.502C32.6766 16.4346 32.7018 16.0606 32.6583 15.7863C32.0618 12.1058 34.1057 9.55231 37.5374 9.30294C40.8543 9.07104 43.8915 9.88894 46.8185 11.4624C47.7068 11.9374 48.6484 12.2845 49.6193 12.4948C50.1332 12.6045 50.7502 12.7566 51.0782 12.1432C51.4063 11.5297 51.2526 10.8964 50.9268 10.3652C50.182 9.14913 49.1527 8.17054 47.9448 7.52999C45.6876 6.30813 43.3203 5.87424 40.8337 6.66222C40.469 6.77693 40.0033 6.99138 39.7693 6.63479C39.5354 6.27821 39.8932 5.85429 40.0859 5.51516C41.2994 3.38314 43.6093 2.59017 46.2427 3.19362C49.6514 3.97412 52.6152 5.91663 55.7807 7.32801C56.5033 7.65218 57.3268 8.30052 57.9622 7.39534C58.6642 6.3979 58.0104 5.50768 57.3796 4.75462C55.9597 3.05897 54.1681 2.29343 52.0738 2.28844C51.7527 2.28844 51.2801 2.49541 51.1333 2.1089C50.9658 1.67252 51.42 1.39823 51.6747 1.11146C52.7207 -0.0380867 54.0397 0.196313 55.2325 0.535442C57.4975 1.17803 59.5936 2.38523 61.3549 4.06139C61.6082 4.3128 61.8858 4.53354 62.183 4.71971C62.7634 5.05634 63.4102 5.4229 63.9608 4.74714C64.5113 4.07137 64.4195 3.22853 63.9608 2.56025C63.5593 1.96926 62.9905 1.51293 62.4881 1.00673C62.3092 0.8247 61.9307 0.772334 62.0981 0.373358C62.1665 0.244976 62.2684 0.141581 62.3909 0.0763124C62.5135 0.0110435 62.6511 -0.013153 62.7863 0.00679813C63.8874 0.00679813 64.7545 0.637679 65.539 1.37828C66.3614 2.18513 67.2666 2.8863 68.2366 3.46792C68.5002 3.63011 68.7775 3.76454 69.0647 3.86939C69.8377 4.11875 70.6979 4.42546 71.3196 3.67489C71.9412 2.92431 71.5788 2.0316 71.2898 1.20373C71.1751 0.874572 70.8058 0.48557 71.0604 0.206287C71.393 -0.160272 71.7761 0.256159 72.072 0.455647C72.9873 1.0782 73.6836 2.01698 74.0493 3.12131C74.5494 4.67233 75.311 5.90167 76.9052 6.40538C77.7677 6.67968 78.2953 7.51503 78.5798 8.48504C78.9147 9.62961 79.2175 10.7916 80.0502 11.6769C80.3897 12.0384 80.8301 12.4249 80.4057 13.0583C79.9813 13.6917 79.4652 13.946 78.8137 13.7091C78.2841 13.477 77.7685 13.2089 77.27 12.9062C76.7102 12.612 76.5543 12.9062 76.6598 13.4523C76.8639 14.4797 77.536 14.8786 78.4353 14.8338C79.1074 14.7988 79.6418 14.9135 79.885 15.7015C80.5732 17.9657 82.1789 19.2649 84.0691 20.21C86.0693 21.2074 86.9938 24.4665 85.8055 26.5337C85.0096 27.9152 84.0966 28.0972 82.8235 27.0474C82.1904 26.5238 81.5664 26.0849 80.7383 26.3168C80.5178 26.3537 80.3176 26.4781 80.1763 26.6659C80.0525 26.9327 80.3392 27.0998 80.5181 27.227C81.0297 27.591 81.5595 27.9177 82.0757 28.2693C82.2752 28.4064 82.4748 28.6059 82.3486 28.8727C82.2973 28.9582 82.2299 29.0309 82.1508 29.0859C82.0717 29.1409 81.9828 29.1771 81.8899 29.1919C79.9997 29.4413 77.8733 28.6932 77.0887 26.4814C76.3042 24.2695 75.5794 23.686 73.3795 23.7858C70.9067 23.898 68.6885 23.4417 66.9222 21.362C65.4908 19.6738 65.188 17.7089 66.0046 15.714C66.8213 13.7191 68.2389 12.3925 70.4181 12.3227C71.9917 12.2728 73.4713 12.3676 74.5471 13.8862C75.4348 15.133 75.4876 16.9433 74.593 18.1477C73.6754 19.3945 72.2991 19.6314 70.8838 18.7986C69.5716 18.0256 69.418 16.9309 70.4731 15.8063C70.9572 15.2561 71.5907 14.889 72.2807 14.7589C71.042 13.8363 69.3514 13.9086 68.3169 14.9011C67.3213 15.8536 67.0575 17.8311 67.7296 19.2749C69.2184 22.4717 73.4437 22.8756 75.3798 19.9706C76.4763 18.3298 77.1231 16.5144 76.3776 14.4846C75.522 12.1606 73.9553 10.8515 71.6017 10.6694C68.8605 10.46 66.429 11.1482 64.9357 13.8039C63.4423 16.4596 63.6694 19.1951 65.1146 21.8208C66.6309 24.5638 69.0899 25.9702 71.7095 27.1098C74.8568 28.4787 78.0591 29.7305 80.9081 31.7753C83.1063 33.3791 84.9906 35.4403 86.4524 37.8397C88.3564 40.9118 89.7442 44.2882 90.2718 48.0111C91.0219 53.2826 88.9482 58.2773 84.3879 60.8806C81.2935 62.6461 78.1783 64.0225 74.6274 64.0001C72.4528 63.9876 70.3584 63.6535 68.4499 62.4665C67.6539 61.9678 67.2066 62.1523 66.6561 62.9378C65.7465 64.1745 65.0629 65.5888 64.6421 67.1046C63.8905 70.0234 62.7588 72.8104 61.2815 75.3809C59.5129 78.463 58.8431 82.0837 57.3498 85.3104C56.9047 86.2729 56.5056 87.2654 56.0285 88.208C55.1683 89.9111 53.9318 91.128 52.1678 91.6791C51.4682 91.896 51.037 91.7414 50.8741 90.9659C50.062 87.1357 50.0322 85.1359 53.4364 83.8068C53.847 83.6472 54.2232 83.4976 54.2117 82.8966C54.2199 82.6879 54.2945 82.4887 54.4227 82.3331C57.0905 79.0265 57.6594 74.8298 58.5518 70.7802C58.9715 68.8876 59.3179 66.9775 59.7194 65.0798C59.9258 64.1098 60.1529 63.1448 60.6369 62.2745C61.6921 60.3594 61.4444 58.4593 60.5474 56.5866C60.0887 55.6341 59.5313 54.7314 59.1092 53.7589C57.703 50.5172 58.0838 47.2207 59.7973 44.3854C61.8412 40.9891 64.4792 37.8871 68.3306 37.1016C73.1478 36.1191 77.9122 36.2264 81.2957 41.1562C82.3555 42.6973 83.0575 44.343 83.0529 46.2955C83.0529 46.9189 83.0529 47.5423 83.0529 48.1657C83.0529 52.739 79.9148 56.0904 75.7124 56.2226C72.907 56.3123 70.5144 55.6066 68.7367 53.0806C65.8349 48.9612 68.6105 43.9665 71.9779 43.0264C72.7191 42.8008 73.5066 42.8321 74.2306 43.1159C74.9547 43.3998 75.5793 43.922 76.0175 44.6099C76.8616 45.9963 76.4212 47.5872 74.9806 48.1308C73.9897 48.5049 73.1341 48.9761 72.9551 50.2229C72.902 50.4705 72.9266 50.7302 73.0251 50.9608C73.1237 51.1913 73.2904 51.3793 73.4988 51.4947C74.5632 52.0582 75.6711 52.0732 76.6827 51.4099C77.22 51.0801 77.6762 50.6145 78.0129 50.0523C78.3495 49.4902 78.5565 48.8482 78.6165 48.1807C78.8963 45.0063 77.6645 41.2684 73.3772 41.1662C69.8561 41.0839 66.9543 42.7372 65.8074 45.6023C65.1256 47.3301 64.9436 49.2425 65.2853 51.0855C65.627 52.9285 66.4763 54.6149 67.7205 55.9208C71.6729 60.0752 79.2404 59.9654 83.0483 55.6715C84.8054 53.6891 85.5372 51.2204 85.5716 48.5198C85.6496 40.6725 82.0275 35.376 75.7766 31.9448C74.2443 31.1045 72.5652 30.698 70.9159 30.1644C65.961 28.556 62.0889 25.449 60.208 20.0155C59.1482 16.9608 59.9969 14.2153 61.91 11.829C62.8168 10.6994 63.9249 9.78153 65.1674 9.13089C65.7408 8.83415 66.2593 8.42021 67.0162 7.91401ZM72.3748 1.70993C72.9414 3.41805 71.916 4.65487 71.2278 6.10864C72.2257 5.96651 73.1226 5.78946 73.3635 4.78205C73.6525 3.61255 73.3107 2.52035 72.3748 1.70993ZM85.5372 22.8382C85.4484 22.5942 85.2965 22.3834 85.0999 22.2312C84.9033 22.079 84.6704 21.9919 84.4292 21.9804C84.0966 21.9505 83.7686 22.0153 83.7548 22.4367C83.7548 22.8208 84.0622 22.8407 84.3397 22.8382H85.5372Z" fill="#FFBF00" fill-opacity="0.65"/>
<path d="M0.75473 27.798C2.06913 25.5138 3.7368 24.5139 5.76231 24.3518C7.63319 24.2118 9.51281 24.3207 11.3594 24.676C11.9621 24.7816 12.5734 24.8175 13.1831 24.7832C14.6443 24.7184 15.0985 23.7858 14.3942 22.3544C13.6327 20.8184 12.2173 20.3596 10.8502 19.8409C9.38437 19.2724 7.8681 19.225 6.33119 19.2773C6.11557 19.2773 5.81736 19.3796 5.71872 19.1003C5.58338 18.7163 5.94811 18.6016 6.15227 18.4943C6.87477 18.1257 7.65118 17.8979 8.44617 17.8211C11.3112 17.4944 13.963 18.2774 16.5505 19.5092C17.3097 19.9102 18.1153 20.1979 18.9453 20.3645C19.9776 20.5316 20.6612 20.1725 21.0098 19.1028C21.3585 18.033 21.1177 17.1578 20.2345 16.502C18.8903 15.5045 17.3671 15.2053 15.7889 15.0856C15.5595 15.0681 15.3416 15.0307 14.8714 14.9709C15.7889 14.3026 16.6468 14.5968 17.4107 14.4722C19.0025 14.1574 20.6454 14.4267 22.0811 15.2377C22.6839 15.5562 23.2046 16.0322 23.5965 16.6232C23.9885 17.2142 24.2394 17.9017 24.3268 18.624C24.4883 19.7234 24.7291 20.8074 25.0471 21.8657C25.3912 23.0252 26.4418 23.5638 27.6461 23.2746C28.699 23.0252 28.6669 22.0776 28.676 21.2024C28.6875 19.7935 28.1049 18.5517 27.6874 17.265C27.575 16.9184 27.4396 16.5818 27.2745 16.1279C27.942 16.078 28.3388 16.4621 28.7609 16.7688C31.2704 18.6016 32.8165 20.9705 32.5711 24.4491C32.422 26.5337 32.5504 28.5909 33.718 30.4187C34.8856 32.2466 36.34 33.4111 38.4802 33.2764C41.5861 33.0869 44.5842 33.5258 47.3323 35.2139C50.7227 37.3061 53.3813 40.1812 54.6728 44.2408C55.7027 47.4825 55.1086 50.6493 53.5832 53.5693C51.6838 57.2075 48.9793 59.8906 45.1669 60.908C42.967 61.494 40.6984 61.2746 38.4618 60.9753C35.5463 60.5863 32.8876 59.357 30.2542 58.0229C28.5545 57.1601 27.2722 57.7736 26.5955 59.6812C25.8454 61.7957 26.0633 64.0175 26.0679 66.2094C26.0679 70.3612 26.0954 74.5156 26.1665 78.6774C26.1895 80.0763 25.3981 80.999 24.7305 81.9789C23.4611 83.823 21.6985 85.1956 19.684 85.9089C18.2205 86.4599 17.9062 86.2181 17.9223 84.5748C17.9337 83.2956 17.8121 82.0039 18.2847 80.7621C18.7228 79.615 19.3399 78.832 20.5671 78.6176C22.2623 78.3233 22.2623 78.2261 22.2715 76.3733C22.2875 73.189 21.5971 70.1194 20.9525 67.0547C20.0166 62.6161 18.943 58.2149 18.1448 53.7439C17.8626 52.1704 18.3902 51.173 19.8239 50.7865C20.5194 50.5683 21.232 50.4205 21.9526 50.3451C25.0815 50.1381 27.0795 48.2879 28.348 45.3055C28.7632 44.3305 29.2656 43.388 29.5064 42.3382C29.9652 40.3682 30.775 38.6127 32.188 37.2263C32.6261 36.7949 32.8326 36.2114 32.4174 35.6678C29.7679 32.1169 26.6826 29.2941 22.2302 29.0747C19.333 28.9301 16.7065 30.9923 15.727 33.9671C15.2779 35.3324 14.6074 36.5992 13.7474 37.7075C11.9122 40.079 9.50595 40.1064 7.12717 39.5827C4.60389 39.0242 2.69766 37.3859 2.01867 34.4783C1.93838 34.1317 1.69294 33.6779 2.06455 33.4659C2.43616 33.254 2.50268 33.8026 2.68619 34.027C4.24833 35.9496 5.96188 37.5031 8.5448 37.3136C10.6093 37.1614 11.8457 35.9246 12.043 33.6704C12.3917 29.6806 10.4992 27.1322 6.84273 26.6883C4.83787 26.4115 2.91787 26.8305 0.75473 27.798ZM42.3224 35.7775C43.3478 36.8722 44.4236 37.9195 45.3871 39.0765C47.681 41.8195 48.4311 45.2382 47.502 48.5971C45.7702 54.8585 40.8933 55.9308 36.1037 54.083C33.179 52.9509 31.7453 50.0135 32.1031 46.3155C32.3325 43.8642 33.835 41.5252 36.3193 40.9143C38.5627 40.3657 40.407 40.6874 42.0357 43.1935C42.8202 44.4029 42.7766 45.3055 42.0357 46.3828C41.2948 47.46 40.469 47.2456 39.4941 46.8316C37.8883 46.1459 36.512 46.5623 36.2413 47.6969C35.927 49.0335 36.8882 50.2653 38.5559 50.6468C38.7823 50.6989 39.0126 50.7281 39.244 50.7341C41.0424 50.8014 42.4715 50.0209 43.3616 48.3353C44.4145 46.3404 44.5085 44.1834 43.5497 42.1462C42.4325 39.7947 38.8678 37.6178 35.2297 39.1912C30.3208 41.3158 28.4673 45.8516 30.3781 50.9436C31.9563 55.1503 35.3398 57.19 39.5537 57.402C41.6343 57.5067 43.6689 57.3596 45.5522 56.2126C50.7112 53.0706 51.1264 46.0187 49.2638 41.7871C47.8714 38.6177 45.6348 36.4632 42.3224 35.78V35.7775Z" fill="#FFBF00" fill-opacity="0.65"/>
<path d="M35.6908 69.9897C35.7045 70.4061 35.7573 70.7677 36.0486 70.9298C37.9525 71.9971 38.3999 74.2114 39.3656 75.9868C40.7763 78.5901 42.0196 81.2982 43.3409 83.9663C45.176 87.6768 44.7172 91.492 43.7607 95.3222C43.6712 95.6763 43.5519 96.1625 42.9693 95.8708C41.4072 95.0903 40.0813 94.0081 39.1155 92.4521C38.5214 91.4945 38.5123 90.4223 39.1155 89.5395C41.0585 86.7018 40.0744 84.2456 38.3999 81.8468C35.7894 78.1064 32.7936 74.7201 30.0478 71.1068C29.878 70.8824 29.6922 70.6705 29.5385 70.4336C27.997 68.0248 28.1851 66.9251 30.4836 65.3815C30.8275 65.1608 31.1183 64.8544 31.3321 64.4877C31.5458 64.1209 31.6764 63.7043 31.7132 63.272C31.9425 61.5938 32.383 61.2347 33.8327 61.5963C36.7735 62.3294 39.7234 62.9802 42.7789 62.7533C43.4304 62.7059 43.4854 63.0026 43.2927 63.5612C42.405 66.1321 41.0768 68.3739 39.0972 70.1144C38.7793 70.4217 38.38 70.6113 37.9566 70.6561C37.5333 70.701 37.1078 70.5986 36.7414 70.3638C36.4317 70.1867 36.1495 69.9548 35.6908 69.9897Z" fill="#FFBF00" fill-opacity="0.65"/>
<path d="M21.9411 40.4231C22.2095 41.6474 21.7003 42.3531 20.9984 43.0289C19.2596 44.7021 18.4246 47.0187 17.4199 49.1906C16.0435 52.153 14.8714 55.2301 12.2701 57.2723C10.451 58.7012 8.41175 59.5739 6.29219 60.2871C5.87011 60.4292 5.60402 60.317 5.58796 59.8133C5.55126 58.2872 5.3081 56.7312 5.93434 55.2725C6.50093 53.9559 7.38408 52.8462 8.78795 52.9659C11.8388 53.2302 13.2014 51.2328 14.1511 48.5921C15.4448 45.0013 16.3624 41.2734 17.4313 37.6028C17.7318 36.5755 18.0209 35.5456 18.3099 34.5132C18.4968 33.8564 18.8025 33.2468 19.209 32.7202C19.6155 32.1935 20.1147 31.7603 20.6772 31.4461C21.6934 30.8352 22.5789 31.0172 23.0262 32.0346C23.9804 34.204 25.4485 35.2563 27.6897 34.982C28.344 34.9404 28.9948 35.1142 29.5569 35.4808C31.1626 36.3934 31.1764 36.6079 30.2451 38.2487C29.5606 39.3887 28.9666 40.5899 28.4696 41.8394C27.653 44.0139 26.1757 44.4029 24.4828 42.9192C23.5905 42.1362 22.783 41.2535 21.9411 40.4231Z" fill="#FFBF00" fill-opacity="0.65"/>
<path d="M50.085 71.623C50.4084 71.8325 50.7089 72.1567 51.053 72.2315C53.4754 72.7451 54.3172 75.2886 55.9918 76.7574C56.4735 77.1813 55.7417 79.226 54.9939 80.0888C54.2461 80.9516 53.7414 80.2135 53.2161 79.8395C50.6493 78.0441 48.1031 76.2138 45.5454 74.4009C44.6274 73.7241 43.7999 72.9127 43.0863 71.9896C42.5656 71.3462 42.4417 70.5258 42.99 69.9573C44.2883 68.6058 44.2906 66.8179 44.5131 65.1272C44.7425 63.3817 45.5224 62.2895 47.0043 61.5987C49.117 60.6163 51.1815 59.5166 53.5717 59.7435C54.9068 59.8707 56.2303 60.0078 57.3429 60.9903C58.0976 61.6536 58.343 62.459 58.0104 63.4141C57.0878 66.1565 55.5344 68.5963 53.4983 70.5009C52.5486 71.3861 51.4361 71.9148 50.085 71.623Z" fill="#FFBF00" fill-opacity="0.65"/>
<path d="M91.9394 63.6485C90.8888 64.9177 90.1043 64.3143 89.2624 63.8106C88.2026 63.1533 87.0853 62.612 85.9271 62.1947C85.31 61.9803 84.9843 61.696 85.6977 61.1773C87.0231 60.2732 88.2332 59.1832 89.2968 57.9356C89.6272 57.5342 89.9598 57.599 90.2694 57.9681C91.2925 59.1974 92.6482 59.8856 93.9397 60.6936C96.1418 62.075 96.6923 63.4365 96.0042 66.0598C94.8962 70.2341 93.7103 74.3834 92.5633 78.5403C92.3064 79.4679 91.7857 80.1536 90.8934 80.4229C90.2052 80.6349 89.7074 81.1361 89.2395 81.6947C88.5995 82.4627 87.9182 83.1908 87.2897 83.9713C85.8445 85.7618 83.9658 85.7792 82.0137 85.5373C81.5549 85.48 81.3554 85.2132 81.4448 84.6895C81.7109 83.1385 81.9816 81.5825 82.8372 80.2634C83.5437 79.1736 84.6471 78.9442 85.7711 78.9068C89.1386 78.7996 89.4528 78.4854 90.2075 74.8772C90.7764 72.1616 91.2237 69.4386 91.0792 66.6483C91.0241 65.6459 91.7077 64.9202 91.9394 63.6485Z" fill="#FFBF00" fill-opacity="0.65"/>
<path d="M80.6649 68.7055C78.6004 70.0496 76.7171 68.516 74.7719 68.4187C73.1937 68.3414 71.8036 67.7006 70.7576 66.3491C70.5102 66.0365 70.2863 65.7029 70.0878 65.3516C69.9386 65.0798 69.6404 64.7881 69.8217 64.4539C70.0763 63.9801 70.4502 64.3716 70.7392 64.4539C73.2032 65.0709 75.763 65.0811 78.2311 64.4838C78.8642 64.3342 79.323 64.3442 79.8208 64.9402C80.7613 66.0648 82.0619 66.6333 83.3281 67.2143C84.7343 67.8602 84.9178 68.4038 84.3053 69.9049C83.1882 72.6479 81.4219 74.9944 80.3506 77.7573C79.8643 79.0166 79.3941 80.2858 78.9537 81.565C78.7449 82.171 78.4742 82.8118 77.9719 83.0487C75.7996 84.0935 74.1938 86.1308 71.9389 87.021C70.6443 87.5566 69.2129 87.5503 67.9223 87.0036C67.202 86.7093 66.9451 86.2954 67.3121 85.5074C67.6792 84.7194 67.9751 83.9215 68.3536 83.1534C69.3354 81.1586 70.4456 80.6174 72.5055 81.0588C75.1045 81.6149 75.9922 81.0962 77.013 78.4056C77.6793 76.5919 78.2056 74.7211 78.5866 72.8125C78.9261 71.2365 79.4629 69.8152 80.6649 68.7055Z" fill="#FFBF00" fill-opacity="0.65"/>
<path d="M97.6397 48.2829C97.5663 49.5995 96.924 49.8589 95.8849 49.8664C94.9276 49.8438 93.9714 49.9502 93.0382 50.183C92.35 50.3775 91.9463 50.1157 91.9899 49.233C92.0412 47.9042 91.9751 46.5732 91.7926 45.2582C91.6963 44.4827 91.9807 44.1735 92.6872 44.2857C94.8549 44.6298 97.0296 44.5076 99.2042 44.3929C100.099 44.3455 100.748 44.8592 101.216 45.6073C101.55 46.112 101.802 46.6755 101.961 47.273C102.801 50.9461 104.338 54.3499 105.375 57.9456C105.581 58.6136 105.749 59.2949 105.877 59.9854C105.96 60.4667 106.107 61.1499 105.877 61.4417C104.535 63.2096 104.996 65.4065 104.563 67.3789C104.129 69.3514 103.021 70.7578 101.351 71.658C100.686 72.017 100.172 71.9322 99.8373 71.1742C99.3298 70.1064 98.9446 68.975 98.6904 67.8053C98.4839 66.7181 98.711 65.7481 99.5276 64.9975C100.285 64.2993 101.03 63.5862 101.787 62.8904C102.134 62.5935 102.398 62.1978 102.549 61.7474C102.701 61.297 102.735 60.8096 102.647 60.3395C102.262 57.6788 101.468 55.2176 99.9451 53.0382C98.9714 51.5811 98.1951 49.9797 97.6397 48.2829V48.2829Z" fill="#FFBF00" fill-opacity="0.65"/>
<path d="M64.5939 94.2201C62.9881 93.8186 61.4054 93.487 60.0359 92.3898C58.7421 91.3524 58.4508 89.9909 58.889 88.4324C59.2147 87.2754 59.3477 86.1882 58.8155 85.0661C58.3981 84.1833 59.0564 83.4851 59.3408 82.752C60.0451 80.9267 60.0703 80.9392 61.2563 82.5026C64.0984 86.2256 65.1306 89.8288 64.5939 94.2201Z" fill="#FFBF00" fill-opacity="0.65"/>
</svg>
