<svg width="356" height="373" viewBox="0 0 356 373" fill="none" xmlns="http://www.w3.org/2000/svg">
<path d="M165.274 351.739C165.274 328.11 165.282 304.481 165.298 280.852C165.298 278.008 165.298 278.008 168.131 278.008C183.413 278.008 198.695 278.03 213.975 277.977C215.446 277.977 215.859 278.353 215.856 279.842C215.806 303.01 215.796 326.179 215.825 349.348C215.825 350.062 215.877 350.776 215.905 351.502C215.957 351.71 215.93 351.929 215.828 352.118C215.231 352.992 214.289 352.822 213.448 352.835C209.446 352.887 205.462 352.856 201.469 352.856C190.312 352.856 179.152 352.881 167.992 352.829C167.007 352.804 165.742 353.192 165.274 351.739Z" fill="#F69900"/>
<path d="M165.274 351.739C165.89 352.109 166.552 352.047 167.213 352.047H213.892C214.557 352.047 215.225 352.087 215.837 351.739C219.205 351.521 222.58 351.696 225.951 351.65C226.665 351.659 227.379 351.598 228.081 351.468C244.124 351.856 260.167 351.548 276.209 351.632C277.133 351.632 278.056 351.472 278.98 351.579C279.182 351.582 279.378 351.639 279.55 351.745L291.532 351.822C292.147 351.515 292.843 351.65 293.499 351.65C308.543 351.65 323.589 351.65 338.638 351.65C339.712 351.65 340.793 351.65 341.861 351.585C342.06 351.616 342.252 351.685 342.425 351.788C346.014 351.81 349.604 351.813 353.2 351.865C353.96 351.865 355.047 351.428 355.004 352.97C354.961 354.512 353.855 353.995 353.135 353.995C307.625 354.02 262.114 354.029 216.604 354.023C154.058 354.023 91.514 354.023 28.9706 354.023C27.7823 354.023 26.557 354.3 25.6488 353.019C25.3933 352.656 25.1008 352.389 25.0885 351.927C25.0762 351.465 25.0885 351.004 25.0885 350.542C25.0885 234.632 25.0885 118.729 25.0885 2.83108C25.0885 2.21563 25.1131 1.60018 25.0885 0.984725C25.0885 0.270802 25.3963 0.00923176 26.1137 0C26.8802 0 27.2774 0.227712 27.2558 1.03395C27.2558 1.69864 27.2558 2.3664 27.2558 3.03109C27.2558 118.424 27.2558 233.816 27.2558 349.207C27.2558 352.124 26.8679 351.865 29.8511 351.865C53.0948 351.865 76.3374 351.865 99.579 351.865C100.244 351.865 100.909 351.807 101.574 351.776C101.688 351.678 101.821 351.604 101.964 351.558C102.107 351.513 102.259 351.497 102.408 351.512C103.374 351.636 104.347 351.686 105.321 351.662H149.123C150.251 351.696 151.378 351.632 152.495 351.472C152.798 351.471 153.091 351.58 153.32 351.779C157.31 351.893 161.29 351.961 165.274 351.739Z" fill="#979797"/>
<path d="M153.307 351.779L152.691 351.853C152.224 351.496 152.22 350.973 152.208 350.459C152.208 349.742 152.208 349.022 152.208 348.305V68.7827C152.208 64.2376 152.208 64.2376 147.679 64.2376C134.189 64.2376 120.696 64.2376 107.202 64.2376C102.892 64.2376 102.642 64.49 102.642 68.7089C102.642 162.14 102.635 255.572 102.621 349.004C102.621 349.964 103.064 351.078 102.063 351.875L101.558 351.764C101.558 256.714 101.558 161.662 101.558 66.6102C101.558 63.2929 102.15 62.8098 105.456 63.3483C106.068 63.434 106.686 63.47 107.303 63.456C121.356 63.456 135.415 63.456 149.48 63.456C150.65 63.456 151.823 63.1483 152.993 63.456C153.191 63.6559 153.341 63.8984 153.432 64.1651C153.522 64.4318 153.55 64.7155 153.513 64.9946C153.393 66.5825 153.464 68.1704 153.464 69.7582C153.464 162.802 153.464 255.845 153.464 348.887C153.464 349.542 153.618 350.219 153.326 350.856C153.307 351.191 153.307 351.478 153.307 351.779Z" fill="#24180E"/>
<path d="M279.531 351.755L279.223 351.933C278.491 351.764 278.484 351.173 278.46 350.604C278.432 349.884 278.46 349.167 278.46 348.45C278.46 243.913 278.46 139.377 278.46 34.8407C278.46 29.4709 278.152 29.2001 272.801 29.1755C259.723 29.1201 246.633 29.157 233.564 29.157C232.117 29.157 230.698 29.2924 229.393 29.9786C229.129 30.1849 228.92 30.4527 228.783 30.7584C228.647 31.0642 228.588 31.3987 228.611 31.7327C228.611 32.502 228.611 33.2713 228.611 34.0406C228.611 138.911 228.611 243.783 228.611 348.656C228.611 349.601 228.918 350.613 228.229 351.478C227.906 351.576 227.745 351.438 227.721 351.124C227.678 350.61 227.699 350.099 227.699 349.585C227.699 243.227 227.699 136.869 227.699 30.511C227.699 29.8956 227.552 29.2801 227.847 28.6954C228.771 27.843 229.894 28.04 231.027 28.0553C234.974 28.1077 238.924 28.0769 242.874 28.0769H276.739C279.577 28.0769 279.58 28.0769 279.58 30.8833C279.548 137.842 279.531 244.8 279.531 351.755Z" fill="#221B11"/>
<path d="M342.061 351.807C341.535 352.247 340.894 352.115 340.294 352.115C324.636 352.115 308.978 352.115 293.32 352.115C292.704 352.154 292.087 352.048 291.519 351.807C291.541 350.782 291.581 349.761 291.581 348.73C291.581 265.568 291.581 182.405 291.581 99.2415C291.581 96.2196 291.119 96.6227 294.155 96.6197C309.49 96.6032 324.827 96.6032 340.165 96.6197C340.78 96.6197 341.396 96.6689 342.012 96.6935C342.569 97.4844 342.32 98.3891 342.32 99.2353C342.332 168.508 342.332 237.781 342.32 307.055C342.32 321.21 342.32 335.365 342.32 349.521C342.335 350.302 342.437 351.084 342.061 351.807Z" fill="#E99B29"/>
<path d="M227.81 28.6954C227.81 135.443 227.81 242.192 227.81 348.942C227.81 349.797 227.61 350.69 228.069 351.505C228.117 351.504 228.164 351.521 228.2 351.554C228.236 351.587 228.257 351.632 228.26 351.681C228.271 351.727 228.271 351.775 228.257 351.821C228.243 351.866 228.218 351.907 228.183 351.939C224.669 351.915 221.157 351.888 217.647 351.859C217.032 351.859 216.435 351.789 215.828 351.748C215.824 351.658 215.847 351.569 215.896 351.493C219.23 351.493 222.564 351.459 225.898 351.515C227.096 351.536 227.613 351.115 227.502 349.911C227.45 349.351 227.502 348.782 227.502 348.219C227.502 242.567 227.502 136.914 227.502 31.2618C227.502 30.394 227.287 29.4955 227.81 28.6954Z" fill="#1E1F23"/>
<path d="M153.307 350.884C153.307 256.104 153.307 161.318 153.307 66.5241C153.307 65.4993 153.329 64.4746 152.999 63.4837C153.024 63.1514 152.692 62.6129 153.135 62.5298C153.751 62.4159 153.547 63.056 153.621 63.4068C153.929 64.8347 153.606 66.2625 153.606 67.6903C153.624 161.288 153.624 254.887 153.606 348.487C153.615 349.284 153.815 350.13 153.307 350.884Z" fill="#211E23"/>
<path d="M342.061 351.807C342.061 350.832 342.027 349.859 342.027 348.884V100.568C342.027 99.2876 342.027 98.0044 342.027 96.7212H342.357C342.618 97.2566 342.492 97.8321 342.492 98.386C342.492 182.231 342.492 266.078 342.492 349.927C342.524 350.44 342.507 350.956 342.44 351.465C342.44 351.579 342.44 351.693 342.418 351.807H342.061Z" fill="#7E591A"/>
<path d="M342.434 351.45C342.4 350.89 342.338 350.327 342.338 349.767C342.338 265.672 342.338 181.576 342.338 97.4812C342.338 97.2227 342.338 96.9673 342.338 96.7119C342.745 97.2535 342.646 97.8874 342.646 98.4936C342.646 182.259 342.646 266.025 342.646 349.794C342.643 350.351 342.723 350.927 342.434 351.45Z" fill="#281D00"/>
<path d="M261.795 372.425C259.809 372.335 258.87 370.692 259.948 369.018C260.342 368.403 260.222 368.095 259.929 367.556C259.44 366.667 259.501 365.71 260.354 365.095C260.795 364.732 261.348 364.534 261.918 364.534C262.489 364.534 263.041 364.732 263.482 365.095C264.353 365.744 264.36 366.689 263.932 367.575C263.673 368.104 263.377 368.473 263.907 369.027C264.541 369.689 264.563 370.526 264.126 371.304C263.633 372.188 262.793 372.501 261.795 372.425Z" fill="#929292"/>
<path d="M11.9765 349.299C12.0289 348.253 11.9334 347.49 12.1859 346.739C12.543 345.662 13.3342 345.2 14.3933 345.2C15.4523 345.2 16.2866 345.643 16.6068 346.739C16.9989 348.17 17.0306 349.677 16.6992 351.124C16.4436 352.398 15.6771 353.106 14.3563 353.081C13.0356 353.056 12.3213 352.238 12.0904 351.01C12.0111 350.443 11.973 349.871 11.9765 349.299V349.299Z" fill="#939393"/>
<path d="M15.3845 4.022C16.1357 4.04662 16.1603 4.47743 16.1696 4.88979C16.188 5.75757 16.1696 6.62228 16.188 7.49007C16.188 7.79779 16.0864 8.28398 16.2311 8.3763C17.832 9.41641 15.9941 10.2934 16.1203 11.2535C16.1542 11.5151 15.8925 11.6844 15.5908 11.672C15.2891 11.6597 15.0951 11.472 15.1198 11.192C15.2706 9.52412 14.0453 10.0073 13.1741 9.92417C12.6907 9.87493 12.0688 10.158 11.7764 9.61644C11.4839 9.07485 12.0196 8.69327 12.2813 8.27476C13.0222 7.11772 13.7693 5.96066 14.5225 4.80361C14.7688 4.42511 14.9874 3.97892 15.3845 4.022Z" fill="#909090"/>
<path d="M134.546 367.43C137.317 367.156 138.517 368.129 138.207 370.301C138.049 371.403 137.483 372.218 136.31 372.418C135.137 372.618 134.321 372.148 133.767 371.135C132.613 369.021 133.696 365.445 135.694 364.836C136.15 364.698 136.827 364.365 137.037 364.984C137.261 365.648 136.486 365.522 136.113 365.67C135.724 365.807 135.376 366.04 135.102 366.348C134.828 366.656 134.637 367.028 134.546 367.43V367.43Z" fill="#919191"/>
<path d="M7.07231 172.2C8.39305 171.775 9.51675 171.646 10.2926 172.769C10.608 173.214 10.7906 173.74 10.8189 174.285C10.8473 174.83 10.7202 175.371 10.4526 175.847C10.2864 176.165 10.0475 176.44 9.75508 176.649C9.4627 176.858 9.12516 176.995 8.76983 177.05C8.4145 177.104 8.05138 177.074 7.70991 176.961C7.36844 176.849 7.05825 176.658 6.80447 176.404C5.26516 174.896 5.68077 170.92 7.50024 169.784C7.89562 169.554 8.32786 169.394 8.77787 169.31C9.08574 169.246 9.56908 169.172 9.63681 169.677C9.68607 170.077 9.31356 170.12 9.00569 170.181C8.01745 170.384 7.38018 170.938 7.07231 172.2Z" fill="#929292"/>
<path d="M73.1981 364.658C73.6876 364.919 74.8391 364.168 74.876 365.156C74.9068 366.005 73.8016 365.562 73.2105 365.599C72.4377 365.648 71.7758 365.639 71.7573 366.685C71.7389 367.895 72.5978 367.252 73.0658 367.301C74.3249 367.455 75.0022 368.135 75.1469 369.366C75.2916 370.597 75.1192 371.689 73.8724 372.206C72.761 372.668 71.6527 372.572 70.8184 371.541C70.5659 371.234 70.2488 370.797 70.6244 370.455C71.077 370.046 71.2956 370.51 71.5265 370.867C71.6112 371.028 71.7283 371.169 71.8704 371.282C72.0126 371.396 72.1766 371.478 72.3522 371.525C72.5278 371.571 72.7111 371.581 72.8906 371.553C73.0701 371.525 73.2419 371.46 73.3952 371.363C74.171 370.941 74.3188 370.172 74.0848 369.36C73.8508 368.547 73.272 368.267 72.447 368.289C71.8312 368.307 70.7845 369.403 70.7229 367.707C70.6244 365.058 70.8676 364.661 72.6255 364.648L73.1981 364.658Z" fill="#909090"/>
<path d="M9.43054 86.0861C6.74598 86.6646 5.33288 85.4337 5.83778 83.0673C6.07483 81.9503 6.6998 81.2456 7.9097 81.1718C9.07034 81.101 9.8985 81.5472 10.2741 82.6796C10.752 84.0978 10.7172 85.6387 10.1756 87.0339C9.99638 87.5446 9.67141 87.9917 9.24081 88.3198C8.81021 88.648 8.29286 88.8428 7.75269 88.8803C7.42635 88.9141 6.94917 89.0588 6.86912 88.5725C6.78908 88.0863 7.27858 88.0894 7.61107 88.0217C8.61163 87.8155 9.29508 87.3139 9.43054 86.0861Z" fill="#939393"/>
<path d="M14.2793 89.0526C13.4758 89.0311 12.7616 88.8003 12.2597 88.1294C12.0104 87.7971 11.7579 87.3601 12.1304 87.0339C12.5984 86.6247 12.8108 87.0893 13.0325 87.4463C13.485 88.1756 14.1839 88.2587 14.9228 88.0279C15.56 87.8309 15.7201 87.274 15.6832 86.6739C15.6308 85.8307 14.9966 85.6276 14.3132 85.4738C13.9868 85.403 13.5004 85.4738 13.5004 84.9722C13.5004 84.5506 13.9345 84.6183 14.2116 84.5783C14.9474 84.4706 15.4923 84.1229 15.5785 83.3474C15.631 83.0887 15.5858 82.8198 15.4516 82.5925C15.3174 82.3652 15.1038 82.1956 14.8519 82.1165C14.0854 81.8765 13.4327 82.0396 13.0356 82.812C12.8508 83.1689 12.5861 83.4428 12.1982 83.1474C11.8103 82.852 12.0473 82.5104 12.229 82.1904C12.7585 81.2487 14.4333 80.7748 15.5046 81.3503C16.6376 81.9657 16.9269 82.9781 16.382 84.0859C16.0742 84.7014 16.0187 85.0491 16.382 85.6953C17.3641 87.3724 16.2404 89.0557 14.2793 89.0526Z" fill="#919191"/>
<path d="M10.4587 259.489C9.43967 260.413 10.2709 261.53 10.5172 262.702C10.745 263.782 10.1293 264.576 9.061 264.905C7.89112 265.265 6.82591 265.105 6.04086 264.059C5.77917 263.711 5.60369 263.262 6.04086 262.982C6.40414 262.748 6.69353 263.056 6.86901 263.416C6.9416 263.551 7.0363 263.673 7.14917 263.776C7.65714 264.284 8.25747 264.238 8.85781 263.998C9.45814 263.758 9.54434 263.287 9.53203 262.742C9.51356 262.062 9.06715 261.779 8.49453 261.582C8.10354 261.447 7.42009 261.696 7.40161 261.037C7.40161 260.453 8.01734 260.671 8.37138 260.56C9.0456 260.339 9.43043 259.92 9.4058 259.228C9.42417 258.995 9.36211 258.762 9.22993 258.569C9.09775 258.376 8.90342 258.234 8.67925 258.166C8.04197 257.985 7.44779 258.025 7.03218 258.609C6.77973 258.954 6.60117 259.64 6.05625 259.182C5.51133 258.723 6.01007 258.228 6.36411 257.886C7.17072 257.086 8.1528 256.963 9.19954 257.351C10.0708 257.662 10.4587 258.326 10.4587 259.489Z" fill="#909090"/>
<path d="M311.521 364.556C313.19 364.584 314.227 366.039 313.473 367.498C313.1 368.218 313.224 368.618 313.572 369.249C313.707 369.497 313.792 369.769 313.821 370.05C313.851 370.331 313.824 370.615 313.743 370.886C313.661 371.156 313.527 371.408 313.348 371.626C313.168 371.844 312.947 372.025 312.697 372.157C311.589 372.757 309.994 372.465 309.351 371.541C309.114 371.2 308.843 370.772 309.221 370.446C309.662 370.067 309.926 370.446 310.145 370.846C310.576 371.631 311.287 371.624 312.02 371.437C312.753 371.249 312.799 370.686 312.771 370.098C312.728 369.273 312.155 368.997 311.432 368.898C311.102 368.852 310.607 368.898 310.598 368.427C310.598 367.892 311.124 368.055 311.426 367.987C312.165 367.821 312.657 367.458 312.657 366.655C312.657 366.172 312.522 365.732 311.986 365.565C311.299 365.368 310.662 365.427 310.219 366.092C310.003 366.399 309.834 366.981 309.338 366.618C308.843 366.255 309.234 365.781 309.492 365.418C309.893 364.833 310.625 364.541 311.521 364.556Z" fill="#909090"/>
<path d="M128.589 371.501H131.612C131.898 371.501 132.145 371.624 132.139 371.926C132.132 372.228 131.886 372.338 131.603 372.341C130.322 372.341 129.038 372.397 127.761 372.341C126.859 372.305 127.093 371.751 127.453 371.311C128.139 370.483 128.884 369.707 129.577 368.886C129.937 368.454 130.263 367.995 130.553 367.513C130.987 366.79 130.895 366.061 130.171 365.636C129.448 365.211 128.783 365.399 128.275 366.082C128.007 366.445 127.878 367.267 127.234 366.735C126.766 366.344 127.234 365.781 127.542 365.387C128.219 364.507 129.913 364.291 130.929 364.922C131.88 365.516 132.188 366.802 131.452 367.901C130.67 369.061 129.71 370.101 128.589 371.501Z" fill="#919191"/>
<path d="M191.744 371.501C192.917 371.501 193.773 371.501 194.629 371.501C194.887 371.501 195.177 371.551 195.21 371.874C195.253 372.295 194.936 372.369 194.595 372.372C193.723 372.372 192.849 372.418 191.981 372.372C191.414 372.332 190.596 372.714 190.337 372.003C190.106 371.366 190.854 370.957 191.23 370.495C191.975 369.572 192.815 368.747 193.517 367.806C194.062 367.076 194.154 366.205 193.259 365.652C192.498 365.193 191.762 365.427 191.297 366.227C191.091 366.581 190.925 367.119 190.439 366.842C189.952 366.566 190.257 366.018 190.485 365.633C191.076 364.621 192.788 364.251 193.917 364.87C194.936 365.427 195.186 366.559 194.589 367.818C193.979 369.12 192.732 369.963 191.744 371.501Z" fill="#909090"/>
<path d="M13.6482 176.096H16.4498C16.7391 176.096 16.9762 176.231 16.9731 176.53C16.97 176.828 16.7176 176.948 16.4374 176.948C15.1537 176.948 13.8699 177.004 12.5922 176.924C11.6687 176.865 11.9981 176.262 12.3275 175.856C12.9432 175.096 13.6174 174.397 14.2547 173.659C14.6431 173.251 14.9954 172.81 15.3076 172.342C15.7324 171.637 15.9387 170.831 15.0982 170.304C14.2578 169.778 13.4943 169.966 13.0263 170.871C12.8231 171.261 12.6538 171.717 12.1674 171.418C11.7364 171.154 11.9611 170.683 12.1674 170.317C12.7092 169.289 14.3902 168.834 15.5723 169.394C16.616 169.877 17.0131 171.08 16.4221 172.286C16.0706 172.908 15.6581 173.494 15.1906 174.034C14.7073 174.613 14.07 175.077 13.6482 176.096Z" fill="#919191"/>
<path d="M55.0497 371.501C56.2442 371.501 57.1093 371.501 57.9744 371.501C58.236 371.501 58.5224 371.566 58.547 371.883C58.5809 372.304 58.2391 372.36 57.9313 372.36C56.7532 372.36 55.5761 372.36 54.4001 372.36C53.3533 372.36 53.4211 371.831 53.9321 371.212C54.5848 370.427 55.3021 369.695 55.964 368.916C56.3288 368.491 56.6592 368.037 56.9523 367.559C57.371 366.858 57.3494 366.122 56.6198 365.673C55.8901 365.224 55.1451 365.411 54.6433 366.178C54.4093 366.535 54.2831 367.218 53.6981 366.762C53.2548 366.421 53.6181 365.907 53.8644 365.531C54.5047 364.556 56.2442 364.254 57.3248 364.916C58.2853 365.501 58.5131 366.698 57.8974 367.901C57.254 369.166 56.004 369.99 55.0497 371.501Z" fill="#909090"/>
<path d="M118.211 371.477C119.264 371.477 120.018 371.477 120.772 371.477C121.111 371.477 121.588 371.384 121.619 371.889C121.65 372.394 121.179 372.338 120.837 372.354C120.427 372.391 120.015 372.391 119.605 372.354C118.639 372.209 117.192 372.883 116.813 371.957C116.435 371.031 117.866 370.381 118.457 369.581C118.971 368.889 119.689 368.35 120.073 367.556C120.427 366.809 120.437 366.119 119.71 365.667C118.984 365.215 118.239 365.399 117.734 366.165C117.5 366.519 117.352 367.224 116.81 366.809C116.314 366.433 116.733 365.861 117.023 365.455C117.654 364.562 119.338 364.291 120.372 364.879C121.357 365.442 121.628 366.627 121.031 367.833C120.403 369.126 119.15 369.963 118.211 371.477Z" fill="#929292"/>
<path d="M181.249 371.477C182.4 371.477 183.204 371.477 184.02 371.477C184.361 371.477 184.82 371.44 184.777 371.972C184.743 372.366 184.361 372.357 184.054 372.357C182.927 372.357 181.8 372.357 180.667 372.357C179.71 372.357 179.574 371.914 180.135 371.227C180.784 370.437 181.495 369.689 182.16 368.923C182.532 368.503 182.871 368.054 183.173 367.581C183.583 366.901 183.647 366.141 182.899 365.688C182.742 365.574 182.562 365.494 182.371 365.455C182.181 365.415 181.984 365.417 181.794 365.46C181.604 365.502 181.425 365.585 181.27 365.701C181.114 365.818 180.985 365.967 180.892 366.138C180.658 366.492 180.541 367.199 179.968 366.793C179.439 366.418 179.827 365.87 180.138 365.455C180.843 364.531 182.65 364.242 183.629 364.953C184.771 365.778 184.731 366.916 184.066 367.941C183.315 369.089 182.36 370.098 181.249 371.477Z" fill="#909090"/>
<path d="M254.819 371.501C256.026 371.501 256.875 371.501 257.725 371.501C258.048 371.501 258.372 371.578 258.341 371.994C258.31 372.301 258.033 372.36 257.762 372.36C256.531 372.36 255.299 372.4 254.086 372.36C253.32 372.338 253.215 371.889 253.652 371.351C254.268 370.597 254.945 369.904 255.57 369.163C256.001 368.662 256.4 368.136 256.768 367.587C257.217 366.898 257.199 366.172 256.478 365.701C255.758 365.23 255.01 365.393 254.496 366.15C254.252 366.51 254.089 367.196 253.551 366.821C253.012 366.445 253.424 365.898 253.714 365.47C254.382 364.519 256.177 364.239 257.189 364.962C258.332 365.765 258.338 366.904 257.676 367.932C256.925 369.07 255.964 370.074 254.819 371.501Z" fill="#919191"/>
<path d="M8.15591 11.6966C7.52171 11.5335 6.37031 12.149 6.00087 11.4197C5.56986 10.5365 6.78284 10.0349 7.26927 9.37021C7.88499 8.55167 8.70391 7.91158 9.19341 6.99148C9.60595 6.22525 9.71678 5.47132 8.88555 4.99127C8.13128 4.56661 7.38933 4.72972 6.90291 5.52365C6.67817 5.88676 6.57965 6.57299 5.97932 6.12372C5.52368 5.78522 5.89004 5.27747 6.14249 4.89281C6.80131 3.90502 8.52843 3.59113 9.59363 4.24966C10.5665 4.86511 10.8251 6.04985 10.1786 7.22536C9.60902 8.2747 8.71622 9.07171 7.93117 9.93642C7.76493 10.118 7.53711 10.3118 7.66025 10.595C7.7834 10.8781 8.09742 10.8011 8.33447 10.8073C8.9502 10.8258 9.56592 10.8073 10.1817 10.8288C10.4372 10.8288 10.7296 10.8811 10.7604 11.2012C10.8005 11.6258 10.4526 11.6781 10.1447 11.6874C9.53514 11.7089 8.91941 11.6966 8.15591 11.6966Z" fill="#929292"/>
<path d="M65.5016 371.501C66.6931 371.501 67.5489 371.501 68.4017 371.501C68.6603 371.501 68.9405 371.585 68.9497 371.902C68.9589 372.218 68.7096 372.335 68.4356 372.338C67.1579 372.338 65.8772 372.382 64.6027 372.32C63.8422 372.283 63.9869 371.754 64.2948 371.354C64.8643 370.631 65.5047 369.966 66.0989 369.264C66.5425 368.772 66.9538 368.252 67.3303 367.707C67.786 367.006 67.9461 366.193 67.1302 365.679C66.3144 365.165 65.5355 365.399 65.0521 366.261C64.8428 366.633 64.6827 367.11 64.1932 366.796C63.7653 366.522 64.0054 366.058 64.1932 365.695C64.7443 364.673 66.4191 364.233 67.5797 364.793C68.6757 365.316 69.0944 366.609 68.337 367.809C67.5797 369.009 66.6346 370.061 65.5016 371.501Z" fill="#909090"/>
<path d="M244.321 371.501C245.552 371.501 246.427 371.501 247.285 371.501C247.544 371.501 247.827 371.529 247.867 371.858C247.917 372.289 247.6 372.351 247.279 372.354C246.103 372.354 244.927 372.354 243.751 372.354C242.708 372.354 242.763 371.84 243.277 371.215C243.93 370.431 244.641 369.695 245.303 368.917C245.67 368.492 246.002 368.039 246.297 367.563C246.716 366.864 246.701 366.122 245.989 365.667C245.278 365.212 244.509 365.412 244.001 366.156C243.757 366.513 243.625 367.203 243.062 366.772C242.498 366.341 242.985 365.83 243.277 365.43C243.893 364.562 245.629 364.307 246.642 364.898C247.655 365.488 247.873 366.664 247.258 367.864C246.59 369.135 245.392 370.006 244.321 371.501Z" fill="#929292"/>
<path d="M198.846 364.667C201.617 364.667 201.617 364.667 200.558 367.129C199.942 368.538 199.311 369.935 198.674 371.335C198.474 371.778 198.351 372.52 197.695 372.258C196.888 371.951 197.596 371.378 197.756 371.003C198.397 369.495 199.099 368.012 199.813 366.538C200.176 365.79 199.958 365.507 199.163 365.522C198.369 365.538 197.624 365.522 196.858 365.522C196.55 365.522 196.217 365.433 196.26 365.015C196.291 364.676 196.599 364.673 196.845 364.667C197.513 364.658 198.178 364.667 198.846 364.667Z" fill="#8F8F8F"/>
<path d="M322.844 368.578C322.844 369.55 322.844 370.523 322.844 371.495C322.844 371.926 322.783 372.372 322.204 372.332C321.696 372.295 321.754 371.852 321.751 371.504C321.751 370.07 321.705 368.636 321.751 367.196C321.782 366.316 321.57 365.916 320.631 366.304C320.378 366.409 320.04 366.645 319.889 366.172C319.772 365.808 319.978 365.596 320.295 365.464C320.391 365.424 320.483 365.381 320.575 365.335C322.678 364.319 322.863 364.433 322.86 366.725V368.572L322.844 368.578Z" fill="#8B8B8B"/>
<path d="M15.3014 261.151C15.3014 262.019 15.326 262.887 15.3014 263.754C15.2829 264.216 15.48 264.93 14.6857 264.899C14.0176 264.875 14.2023 264.225 14.1931 263.81C14.1654 262.481 14.1531 261.151 14.1931 259.809C14.2146 258.966 14.0576 258.489 13.0848 258.908C12.8262 259.019 12.469 259.216 12.3336 258.76C12.2135 258.4 12.466 258.197 12.7554 258.049C12.8908 257.982 13.0355 257.932 13.1771 257.871C15.2675 256.948 15.3322 256.994 15.3137 259.296V261.142L15.3014 261.151Z" fill="#898989"/>
<path d="M2.98991 7.81929C2.98991 8.74247 3.01454 9.66564 2.98991 10.5888C2.97144 11.0042 3.13153 11.6412 2.45115 11.6566C1.77078 11.672 1.88468 11.0412 1.87853 10.6227C1.85698 9.241 1.84774 7.85314 1.87853 6.47453C1.87853 5.72984 1.79233 5.24363 0.865658 5.62829C0.594738 5.74215 0.166809 6.09295 0.0190343 5.47442C-0.094875 5.00053 0.326897 4.88667 0.63476 4.72973C0.8164 4.64049 1.01651 4.58204 1.20739 4.50818C2.98376 3.83426 2.99915 3.84349 3.00531 5.67445C2.9971 6.38838 2.99197 7.10332 2.98991 7.81929Z" fill="#898989"/>
<path d="M126.123 365.347C125.71 366.43 125.261 367.621 124.805 368.809C124.334 370.04 123.86 371.271 123.374 372.52C123.26 372.828 123.066 373.089 122.69 372.972C122.315 372.855 122.435 372.554 122.518 372.332C123.425 369.953 124.343 367.577 125.273 365.205C125.39 364.898 125.581 364.651 125.95 364.75C126.188 364.802 126.215 365.008 126.123 365.347Z" fill="#8D8D8D"/>
<path d="M186.107 372.954C185.547 372.929 185.547 372.603 185.661 372.305C186.582 369.878 187.517 367.456 188.465 365.039C188.483 364.978 188.514 364.921 188.556 364.872C188.598 364.823 188.65 364.785 188.709 364.758C188.767 364.731 188.831 364.718 188.895 364.718C188.959 364.718 189.023 364.732 189.081 364.759C189.367 364.898 189.296 365.181 189.204 365.424C188.308 367.753 187.418 370.086 186.507 372.412C186.4 372.611 186.265 372.793 186.107 372.954Z" fill="#8F8F8F"/>
<path d="M59.6767 372.963C59.2549 372.865 59.3442 372.523 59.4489 372.252C60.3325 369.913 61.2345 367.578 62.1335 365.242C62.2474 364.935 62.4413 364.648 62.7923 364.744C63.2418 364.864 63.054 365.218 62.9524 365.485C62.078 367.775 61.1986 370.063 60.314 372.351C60.2032 372.64 60.0862 372.929 59.6767 372.963Z" fill="#8E8E8E"/>
<path d="M318.599 365.138C318.55 365.288 318.51 365.445 318.454 365.578C317.592 367.818 316.728 370.056 315.862 372.292C315.733 372.621 315.606 373.08 315.157 372.908C314.707 372.735 314.929 372.292 315.043 371.984C315.899 369.744 316.766 367.509 317.645 365.279C317.755 364.993 317.878 364.698 318.26 364.707C318.528 364.731 318.577 364.925 318.599 365.138Z" fill="#8D8D8D"/>
<path d="M252.239 365.655C251.426 367.753 250.472 370.227 249.502 372.695C249.468 372.794 249.396 372.876 249.302 372.922C249.208 372.968 249.099 372.975 249 372.942C248.94 372.922 248.885 372.89 248.838 372.847C248.792 372.803 248.756 372.75 248.733 372.691C248.71 372.632 248.701 372.569 248.705 372.506C248.71 372.442 248.729 372.381 248.76 372.326C249.684 369.895 250.621 367.469 251.571 365.048C251.591 364.988 251.623 364.933 251.666 364.886C251.708 364.838 251.76 364.801 251.818 364.774C251.876 364.748 251.938 364.734 252.002 364.733C252.065 364.732 252.128 364.744 252.187 364.768C252.418 364.848 252.439 365.067 252.239 365.655Z" fill="#8E8E8E"/>
<path d="M228.426 28.7324C229.041 28.6862 229.657 28.6031 230.254 28.6C245.853 28.6 261.451 28.6 277.05 28.6C279.02 28.6 279.023 28.6 279.023 30.5879C279.023 136.843 279.023 243.099 279.023 349.354C279.023 350.216 278.866 351.099 279.232 351.936C278.706 352.207 278.136 352.155 277.573 352.155C261.671 352.155 245.765 352.155 229.854 352.155C229.295 352.121 228.739 352.052 228.189 351.949C228.189 351.884 228.155 351.822 228.136 351.761C228.398 351.115 228.263 350.441 228.263 349.782C228.263 243.426 228.263 137.071 228.263 30.7172C228.278 30.0494 228.133 29.3755 228.426 28.7324Z" fill="#BF8F41"/>
<path d="M102.085 351.878C102.1 350.955 102.125 350.031 102.125 349.108C102.125 254.813 102.125 160.516 102.125 66.2164C102.125 65.7025 102.125 65.1886 102.125 64.6777C102.125 64.0807 102.396 63.933 102.99 63.9361C106.318 63.9546 109.643 63.9084 112.968 63.9053C125.535 63.9053 138.103 63.9053 150.672 63.9053C152.67 63.9053 152.673 63.9053 152.673 65.884C152.673 160.386 152.673 254.89 152.673 349.394C152.673 350.213 152.698 351.035 152.713 351.856C152.196 352.082 151.632 352.182 151.069 352.149C135.497 352.149 119.925 352.141 104.351 352.127C103.597 352.115 102.818 352.222 102.085 351.878Z" fill="#E3A036"/>
<path d="M228.426 28.7323C228.426 29.9109 228.426 31.0926 228.426 32.2711C228.426 138.129 228.426 243.986 228.426 349.844C228.426 350.459 228.709 351.179 228.155 351.742C228.13 351.661 228.109 351.579 228.093 351.496C228.093 350.831 228.13 350.164 228.13 349.499C228.13 243.268 228.13 137.039 228.13 30.8125C228.118 30.1201 227.942 29.3754 228.426 28.7323Z" fill="#341D00"/>
<path d="M292.769 97.0258C308.519 97.0258 324.271 97.0156 340.023 96.9951C341.255 96.9951 341.87 97.3366 341.719 98.6445C341.695 99.0544 341.695 99.4654 341.719 99.8754C341.719 183.01 341.711 266.144 341.695 349.277C341.695 350.059 342.286 351.247 340.802 351.502C340.011 351.81 339.186 351.644 338.379 351.641C333.681 351.641 328.977 351.668 324.282 351.598C319.486 351.524 314.683 351.567 309.889 351.576C305.096 351.585 300.293 351.318 295.497 351.641C295.001 351.675 294.472 351.779 293.994 351.502H293.379C292.852 351.865 292.541 351.382 292.147 351.195C292.147 351.093 292.129 350.995 292.126 350.887C291.849 350.351 291.984 349.779 291.984 349.222C291.984 266.171 291.984 183.117 291.984 100.06C291.996 98.9829 292.012 97.9121 292.769 97.0258Z" fill="#F79800"/>
<path d="M292.769 97.0258C291.689 100.475 292.172 104.027 292.169 107.532C292.14 188.652 292.131 269.773 292.141 350.893C291.71 350.299 291.833 349.613 291.833 348.958C291.833 265.607 291.833 182.259 291.833 98.9122C291.861 98.1952 291.43 97.1458 292.769 97.0258Z" fill="#EF9803"/>
<path d="M294.001 351.499C309.603 351.192 325.206 351.284 340.796 351.499C340.245 351.881 339.614 351.779 339.007 351.779H295.786C295.177 351.782 294.546 351.887 294.001 351.499Z" fill="#EF9803"/>
<path d="M292.169 351.192L293.4 351.499C292.855 351.912 292.48 351.687 292.169 351.192Z" fill="#EF9803"/>
<path d="M263.3 370.197C263.3 371.08 262.836 371.514 261.986 371.532C261.136 371.551 260.554 371.2 260.539 370.32C260.524 369.44 260.973 368.843 261.934 368.88C262.746 368.907 263.285 369.301 263.3 370.197Z" fill="#1F1F1F"/>
<path d="M261.918 367.941C261.127 367.849 260.714 367.418 260.736 366.618C260.758 365.818 261.29 365.418 262.044 365.452C262.202 365.45 262.357 365.482 262.501 365.545C262.645 365.608 262.774 365.701 262.88 365.817C262.986 365.933 263.066 366.07 263.115 366.219C263.164 366.368 263.181 366.526 263.165 366.682C263.175 366.849 263.15 367.016 263.091 367.173C263.032 367.329 262.941 367.472 262.823 367.591C262.706 367.709 262.564 367.802 262.408 367.862C262.252 367.923 262.085 367.95 261.918 367.941V367.941Z" fill="#212121"/>
<path d="M15.8125 349.219C15.7694 349.742 15.7571 350.413 15.6524 351.065C15.6183 351.376 15.4674 351.662 15.2301 351.865C14.9929 352.069 14.6871 352.174 14.3748 352.161C13.7098 352.161 13.3311 351.767 13.1834 351.17C12.8735 349.82 12.8651 348.418 13.1587 347.065C13.1768 346.911 13.2264 346.762 13.3043 346.627C13.3822 346.493 13.4869 346.376 13.6118 346.284C13.7368 346.192 13.8793 346.126 14.0307 346.091C14.182 346.056 14.339 346.052 14.4918 346.08C14.8032 346.081 15.1022 346.202 15.3261 346.418C15.55 346.635 15.6813 346.929 15.6924 347.24C15.7663 347.85 15.7725 348.465 15.8125 349.219Z" fill="#202020"/>
<path d="M15.0983 6.23146C15.0983 6.84691 15.0983 7.46236 15.0983 8.05319C15.0983 8.45016 15.1444 8.91482 14.5656 8.97637C14.1162 9.03484 13.5497 9.19794 13.2572 8.84713C12.9648 8.49632 13.4266 8.11474 13.6328 7.78855C13.9992 7.20387 14.3994 6.64073 14.7873 6.06836L15.0983 6.23146Z" fill="#222222"/>
<path d="M137.243 369.867C137.098 370.791 136.83 371.6 135.771 371.501C134.712 371.403 134.469 370.507 134.457 369.6C134.444 368.692 135.008 368.196 135.894 368.215C136.99 368.24 137.083 369.12 137.243 369.867Z" fill="#212121"/>
<path d="M9.78769 174.517C9.65839 175.311 9.47983 176.117 8.4762 176.114C7.26629 176.114 6.9923 175.191 6.97075 174.206C6.9492 173.222 7.58647 172.785 8.43617 172.797C9.50754 172.812 9.67071 173.674 9.78769 174.517Z" fill="#222222"/>
<path d="M9.53517 83.4428C9.64292 84.8183 9.07337 85.4369 8.17441 85.483C7.17078 85.5322 6.8075 84.7199 6.78595 83.8213C6.7644 82.9227 7.00761 82.1042 8.05435 82.0611C9.16573 82.0149 9.39971 82.9196 9.53517 83.4428Z" fill="#202020"/>
<path d="M278.635 190.457C278.635 243.277 278.635 296.104 278.635 348.936C278.635 349.45 278.608 349.964 278.635 350.475C278.688 351.367 278.327 351.832 277.404 351.798C276.893 351.779 276.379 351.819 275.864 351.819H231.067C228.777 351.819 228.771 351.819 228.771 349.505C228.771 243.395 228.771 137.288 228.771 31.1819C228.771 29.0093 228.795 28.9878 231.049 28.9878H276.305C278.635 28.9878 278.641 28.9878 278.641 31.3819L278.635 190.457Z" fill="#F99800"/>
<path d="M152.076 350.284C152.076 350.715 152.162 351.17 151.768 351.515C148.104 351.278 144.432 351.361 140.762 351.361C129.5 351.361 118.235 351.361 106.974 351.333C105.973 351.333 104.951 351.798 103.96 351.268C103.529 350.268 103.914 349.25 103.911 348.244C103.877 337.473 103.889 326.703 103.889 315.932C103.889 234.8 103.889 153.669 103.889 72.54C103.889 70.1829 104.412 67.8595 104.218 65.4993C104.205 65.293 104.237 65.0862 104.315 64.8943C104.392 64.7025 104.512 64.5306 104.665 64.3915C105.096 64.1453 105.567 64.253 106.019 64.253C120.518 64.253 135.015 64.253 149.511 64.253C149.964 64.253 150.435 64.1484 150.866 64.3884C151.389 64.3669 151.836 64.4961 152.097 65.0039C152.359 65.5116 152.233 66.1148 152.233 66.6687C152.233 160.656 152.233 254.644 152.233 348.631C152.224 349.173 152.353 349.748 152.076 350.284Z" fill="#F79900"/>
<path d="M104.049 351.191C106.589 350.724 109.153 350.884 111.712 350.884C123.503 350.884 135.297 350.884 147.088 350.865C148.689 350.865 150.262 350.915 151.774 351.481C151.284 351.878 150.7 351.755 150.145 351.755C135.269 351.755 120.389 351.755 105.505 351.755H105.351C102.519 351.736 102.504 351.724 102.504 348.939V114.695C102.504 98.5952 102.504 82.4909 102.504 66.3825C102.504 65.3055 102.442 64.2284 104.043 64.3823C104.124 64.5665 104.145 64.7717 104.102 64.9685C104.06 65.1653 103.956 65.3436 103.806 65.4778C102.882 66.561 103.082 67.8842 103.458 68.9766C103.761 69.8901 103.905 70.8487 103.883 71.8108C103.883 92.1678 103.883 112.524 103.883 132.879C103.883 204.411 103.883 275.94 103.883 347.468C103.929 348.441 103.898 349.417 103.79 350.385C103.769 350.53 103.781 350.679 103.826 350.818C103.871 350.958 103.947 351.086 104.049 351.191V351.191Z" fill="#F49901"/>
<path d="M103.741 65.007C103.843 64.8008 103.948 64.5977 104.049 64.3915H104.665C103.966 159.236 104.557 254.083 104.357 348.927C104.355 349.694 104.252 350.458 104.049 351.198H103.433C103.104 350.228 103.618 349.314 103.618 348.351C103.583 256.009 103.577 163.668 103.6 71.3277C103.6 69.789 103.107 68.3058 103.261 66.7549C103.323 66.124 103.372 65.5301 103.741 65.007Z" fill="#FA9800"/>
<path d="M152.076 350.284C152.076 348.745 152.076 347.206 152.076 345.668C152.076 252.93 152.076 160.197 152.076 67.4688C152.076 66.6471 152.076 65.8286 152.076 65.007C152.439 65.5639 152.344 66.1948 152.344 66.8041C152.344 160.703 152.344 254.603 152.344 348.502C152.353 349.096 152.448 349.727 152.076 350.284Z" fill="#F09407"/>
<path d="M150.86 64.3916H104.665C105.21 63.9977 105.844 64.0838 106.45 64.0838C120.661 64.0838 134.87 64.0838 149.077 64.0838C149.681 64.0838 150.312 63.9946 150.86 64.3916Z" fill="#F09407"/>
<path d="M293.708 98.7614C294.139 99.4292 293.994 99.9923 293.994 100.552C293.994 182.998 293.988 265.445 293.976 347.893C293.976 348.508 294.432 349.631 293.465 349.637C292.797 349.637 293.092 348.511 293.092 347.893C293.078 265.755 293.078 183.616 293.092 101.476C293.077 100.583 292.917 99.6323 293.708 98.7614Z" fill="#FB9700"/>
<path d="M103.741 65.007C103.741 159.335 103.741 253.662 103.741 347.988C103.727 349.063 103.624 350.134 103.433 351.191C103.314 351.055 103.232 350.89 103.196 350.713C103.159 350.535 103.17 350.351 103.227 350.179C103.507 349.277 103.43 348.333 103.43 347.431C103.43 255.686 103.441 163.942 103.461 72.1985C103.461 70.1921 102.473 68.3488 102.784 66.3086C102.892 65.6224 102.993 65.13 103.741 65.007Z" fill="#F79900"/>
</svg>
