<svg width="23" height="31" viewBox="0 0 23 31" fill="none" xmlns="http://www.w3.org/2000/svg">
<path d="M8.8 30.008H0C0.00533333 24.9307 0.0102203 19.8529 0.0146647 14.7747C0.0146647 9.85289 0.00977778 4.93067 0 0.00799967H8.8C8.78933 0.184 8.76933 0.361333 8.76933 0.541333C8.76933 10.1884 8.76933 19.8356 8.76933 29.4827C8.76933 29.6547 8.78933 29.832 8.8 30.008Z" fill="#FFBF00" fill-opacity="0.65"/>
<path d="M22.5333 30.008H13.7333C13.744 29.832 13.764 29.6547 13.764 29.4747C13.764 19.8276 13.764 10.1804 13.764 0.533333C13.764 0.357333 13.744 0.18 13.7333 0H22.5333C22.528 5.07733 22.5231 10.1551 22.5187 15.2333C22.5187 20.1604 22.5236 25.0853 22.5333 30.008Z" fill="#FFBF00" fill-opacity="0.65"/>
</svg>
