<svg xmlns="http://www.w3.org/2000/svg" viewBox="0 0 441.82 432.27"><title>valhalla-icon</title><g id="Layer_1_Image" data-name="Layer 1 Image"><path d="M356.09,496.13H138.91c-3.45,0-3.45,0-3.45-3.42,0-9.73,0-19.46,0-29.19a4.77,4.77,0,0,1,1.94-4.24c15.74-12.43,31.42-24.94,47.17-37.36a5.92,5.92,0,0,0,2.61-5.22q-.07-157.76,0-315.52,0-13.28-.14-26.55c0-2.69-.27-5.39-.53-8.07-.19-2,.5-2.69,2.65-2.69q41,.1,82,0l252.16,0c4.05,0,4,0,3.94,4-.06,2.89-.13,5.78-.13,8.67q0,169.2-.06,338.4a7.78,7.78,0,0,0,3.13,6.85c15.05,12.32,29.92,24.86,44.91,37.26a5.41,5.41,0,0,1,2.16,4.67c-.1,9.64,0,19.29,0,28.93,0,3.48,0,3.48-3.39,3.48ZM575,462.55q-218.94,6.31-437.31,0v31.32H575ZM239.4,109.8l-.13.38a10.73,10.73,0,0,0,1.09.5q50.14,17.56,100.31,35c2.38.82,3.18,1.85,3.17,4.4q-.1,125.55,0,251.09v3.45h26.65v-3.92q0-125.42-.05-250.82c0-2.28.62-3.33,2.85-4.11q49.59-17.2,99.11-34.61c.82-.29,1.63-.62,2.45-.94l-.19-.47ZM139.82,460c144.64-3.92,288.59-4,433.16,0L527.1,421.84c0,5.76-.1,10.9,0,16,.06,2.31-.5,3.22-3,3.17-8.06-.16-16.15-.36-24.19.07a20,20,0,0,1-14.71-4.62,12.48,12.48,0,0,0-5.88-2.38c-7.44-1.13-14.92-2-22.39-2.92q-24.09-3-48.19-6.06c-12-1.51-24-3.1-35.95-4.53-2-.23-2.43-1-2.37-2.84.11-3.48,0-7,0-10.62H344.11c-.14.34-.26.49-.26.65,0,2.63,0,5.26-.08,7.89-.12,5.17,1.11,4.46-4.72,5.21-14.67,1.91-29.35,3.69-44,5.54C277.48,428.63,260,431,242.38,433c-6.71.76-13.07,1.87-18.28,6.66a6.17,6.17,0,0,1-3.8,1.28c-10.16.11-20.33,0-30.5.13-2,0-2.85-.53-2.75-2.66.15-3.15,0-6.31,0-9.46v-6.39Zm81-21.17V101.45c0-3.5,0-3.51,3.4-3.51H489.52c3.92,0,3.92,0,3.92,3.81v337h31.44V66.55H189.34V438.86ZM232.87,110.7V432a18.38,18.38,0,0,0,2,0l47.42-6c18.84-2.37,37.68-4.8,56.54-7.06,2.24-.27,2.86-.91,2.86-3.17q-.09-132.39,0-264.77c0-2.18-.72-3-2.68-3.63q-43.89-15.1-87.74-30.36C245.17,114.9,239.07,112.82,232.87,110.7Zm248.42,0c-1,.3-1.61.5-2.25.72q-51.93,18-103.85,35.92c-2.09.71-2.76,1.63-2.76,3.83q.09,132,.05,264a13.87,13.87,0,0,1,0,1.58c-.17,1.48.57,1.94,1.95,2.11q23.06,2.84,46.11,5.77,24.75,3.11,49.5,6.22c3.69.46,7.4.86,11.26,1.3Zm9.95,327.22V102.16l-.68-.52a33,33,0,0,1-4,4.41c-2.51,2-3.2,4.33-3.2,7.48q.12,157.74.07,315.48a15.35,15.35,0,0,0,.05,2.63,2.87,2.87,0,0,0,.91,1.71C486.52,434.86,488.73,436.26,491.24,437.91Zm-268.28,0a44.46,44.46,0,0,1,4.78-3.19c2.47-1.22,3-3.05,3-5.68q-.14-60.35-.06-120.68,0-98.2,0-196.4c0-1,.15-2.36-.41-3-2.15-2.47-4.56-4.71-7.26-7.43ZM489.75,100.22H225.16l-.37.59a20.46,20.46,0,0,1,3.34,2.91c2.5,3.35,5.71,4,9.77,4q118.54-.17,237.1-.09c1.84,0,3.68.1,5.51,0a4.55,4.55,0,0,0,2.52-1C485.19,104.73,487.21,102.67,489.75,100.22Zm-312,360.93c26.3,3.06,344.17,2.92,357.58-.11Q356.11,457.2,177.75,461.15Z" transform="translate(-135.42 -63.87)"/><path d="M497.81,93.5H216.41V430.57c0,3.9,0,3.9-3.8,3.9H197.36c-3.62,0-3.63,0-3.63-3.52q0-61.54,0-123.07,0-116.62,0-233.25c0-4.44-.3-3.92,4-3.92H517c3.54,0,3.55,0,3.55,3.59q0,102.55,0,205.1,0,75.6,0,151.19c0,3.88,0,3.89-3.81,3.89-5.17,0-10.35-.14-15.51.06-2.62.1-3.43-.6-3.42-3.33q.14-61.67.06-123.33,0-105.84,0-211.68Zm-243-12.64c-1.39-2.52-2.44-4.73-3.78-6.75-1.75-2.66-4.31-.82-6.13-1.25,1.65,2.87,3.33,5.6,4.82,8.42,1,2,.11,2.64-1.93,2.61-6-.08-10.7-4.2-12.33-11h-4l-.76,2.71c-.7-.41-1.26-.57-1.52-.93-1.22-1.68-2.84-2-4.81-2a104.16,104.16,0,0,1-12.62,0c-4.32-.41-7,1.63-9.11,4.86a20.44,20.44,0,0,0-2.51,4.87c-.71,2.22-1.41,4.12-4.29,3.66v4.27c2.37-.39,2.6.91,2.69,2.77.31,6.53,1.82,12.68,6.82,17.37,2.47,2.32,5.34,3.53,8.88,2.52v-4.44c-3.8,1-6.41-.91-7.77-3.89a58.06,58.06,0,0,1-3.39-10.89c-.56-2.34.35-3,2.58-1.87,2.92,1.45,5.68,3.24,8.45,4.85.73-5,.54-5.48-3.92-7.71a30.75,30.75,0,0,0-4.84-2c-1.44-.43-2.06-1.25-1.3-2.47,1.59-2.56,2.94-5.54,5.19-7.38,7.42-6.1,16.42-3.2,19.29,5.91.5,1.59.91,3.2,1.34,4.81,1,3.87,1.32,4,5.41,3-.49-1.85-1.05-3.69-1.44-5.56a15.86,15.86,0,0,1-.07-2.93,12.54,12.54,0,0,1,2.55,1.32,18.19,18.19,0,0,0,9.88,4.51c1.37.16,2.75.25,4.21.38l.18,2.57h4.45c-.88-4.45,2.13-6.56,5.09-8.59.73-.51,1.89-.41,2.85-.58a12.64,12.64,0,0,1-.39,2.63c-.78,2.11-1.7,4.18-2.51,6.13,5,2.71,5.09-2.55,7.44-4.6,1.12,1.68,1.76,3.45,3,4.3s3.15.77,4.77,1.1l.47-.72c-1.57-2.47-3.12-5-4.73-7.42-1.27-1.94-.06-5,2.24-5,5.43-.08,10.87-.1,16.28.22,2.84.17,5.54,1.33,6.67,4.34a7.43,7.43,0,0,1-.11,2.72l-2.31-1.18c-1-.5-2.06-1.61-2.87-1.43-3.45.75-6.1,4.29-6.4,8.14,1.66-.3,3.66,1.1,4.79-1.27,1-2.19,2-1.47,3.28-.1a4.87,4.87,0,0,0,2.68,1.37c1.36.23,2.8,0,4.19.08,2.56.2,4.81-.18,6.67-2.24.4-.45,1.8-.24,2.65,0,2.22.65,4.38,2,6.6,2.12,7.71.27,15.42.11,23.14.09a17,17,0,0,0,2.11-.29c-3.41-2.46-3.27-2.31-.4-5a19.81,19.81,0,0,0,4.53-6c1-2.14,2.14-3.06,4.4-3.29a7.08,7.08,0,0,1,6,2,8.38,8.38,0,0,0,8,2.15,9.74,9.74,0,0,1,3.61.05c.48.08.84.88,1.26,1.36a6.17,6.17,0,0,1-1.42.9,71.4,71.4,0,0,0-7,2.07,13.35,13.35,0,0,0-6.75,6.4,56.45,56.45,0,0,0,6.55-1.11c2.55-.78,4.93-2.21,7.51-2.79,4.48-1,4.66-.74,6,3.31h4c-.77-3,.53-3.56,3.2-3.83,3.5-.37,7.33-1,10.25-2.75A19.39,19.39,0,0,1,401,81.66c1.75,0,3.49-.33,5.24-.33a13.93,13.93,0,0,1,2.85.62L401.82,91c3.21.43,5.34.82,7-1.78.88-1.38,2.59-2.3,4-3.25,1.76-1.15,2.64-.18,2.7,1.58a21.45,21.45,0,0,1-.45,3.53c4.27.52,4.33.53,4.9-3.58.26-1.93,1.31-1.33,2.44-1.05,2.95.71,6.19,2.44,8.82,1.78a37,37,0,0,1,14-1c3.64.46,3.71-.13,2.32,3.21a1.09,1.09,0,0,0,0,.51c4.43,2.2,5.58-2.11,8-4.2,2.07,2.37,3,6.35,7.61,4-1.05-1.89-2-3.91-3.27-5.78-1.1-1.68-.49-2.56,1.18-2.67a16.17,16.17,0,0,1,4.9.42,57.2,57.2,0,0,1,5.7,2,10.24,10.24,0,0,0,9.33-.75,2.39,2.39,0,0,1,2.08-.18c6,4,11.36,2.24,16.31-1.89a4.27,4.27,0,0,1,4.49-1c4.82,1.62,9.63,3.29,14.38,4.91.77-4,.64-4.42-3.42-6.18a54.83,54.83,0,0,0-6.69-2.27c-3.58-1-3.59-1-2.67-4.73-1.73.3-4,0-4.69,1-1.38,1.79-2.67,1.74-4.27,1-4.31-1.9-8.83-1.85-13.39-1.76-3.56.07-3.89.34-3.84,3.79,0,3.86-1.48,5.12-5.27,4.12-4.76-1.25-9.48-2.63-14.53-4,.05-.79.16-2.2.26-3.69h-4.06a29.6,29.6,0,0,1-1.81,4.82,3.17,3.17,0,0,1-2.48,1.19,127.46,127.46,0,0,1-13.26-1.51,28.54,28.54,0,0,1-9.51-3.17A9.49,9.49,0,0,0,422,72.94c2.43,5.56,7.47,7.24,12.78,9.11a6,6,0,0,1-7.08,1.46c-4.66-1.87-9.82-2.3-14.18-5.12A11.79,11.79,0,0,0,407.93,77c-2.69-.16-5.42.2-8.13.15-.72,0-1.95-.61-2.06-1.12-.78-3.74-.76-3.79-4.48-2.9,0,.4,0,.83-.06,1.26-.2,2.73-1.09,3.24-3.5,2-.6-.32-1.38-.73-1.6-1.29-1.13-2.84-3.32-2.51-6.47-2,1.59,2.31,2.79,4.37,4.31,6.16s1.46,2.38-.67,2.76a73.18,73.18,0,0,1-9.11.9,2.6,2.6,0,0,1-1.81-1.17c-2.94-4.42-6.92-6.15-12.2-5.28a5,5,0,0,1-3.81-1c-4.79-4.64-10.67-2.06-16-2.68-.16,0-.44,0-.48.15-1.17,2.75-3.92,2.34-6.07,2.75-1.26.24-3.43-.26-4-1.16-1.5-2.43-3.31-1.82-5.32-1.57a4.91,4.91,0,0,0,0,1c1.16,4.58,4.14,6.4,10.06,6.26a7.87,7.87,0,0,1,2.11.53c-.3.58-.45,1.35-.92,1.71-7.42,5.74-17.49,7.46-25.9,3.13a3.7,3.7,0,0,1,.06-6.52c2.47-1.36,3.39-3.33,2.77-6.3h-10c-3.94,0-3.91,0-4.16,4a6.8,6.8,0,0,1-.67,1.8l-1.8-.85c-2.51-1.14-4.95-2.48-7.54-3.36-4.79-1.63-9.88.77-14.91-1.34-2.85-1.2-6.62-.21-10.42-.21a21.37,21.37,0,0,1,1.48,2.12c.38.75.63,1.57.94,2.36-.92.14-1.92.6-2.74.39A8.44,8.44,0,0,0,257.34,79ZM500.07,263c4.5-1,4.4-1,3.58,3.49-1.48,8.13-2.35,16.29-.66,24.52a5.42,5.42,0,0,1-.15,2.56,64.78,64.78,0,0,0-3,20.65c.23,6.65-.06,13.32.12,20,.06,2.11.36,4.62,1.54,6.22,2.36,3.17,1.74,6.84,2.62,10.23.1.39-.27.9-.57,1.8l-3.38-2.7c-.91,3.7-.26,6.5,3.22,8.27a24.7,24.7,0,0,1,4.11,2.81,5.69,5.69,0,0,1,1,1.77,7.57,7.57,0,0,1-2.07,0c-2.06-.56-4.09-1.25-6.41-2v4.67a23.89,23.89,0,0,1,2.41.57c3.7,1.24,6.46,3.39,7.39,7.43a32.73,32.73,0,0,0,1.47,4l.74,0c-2,5.48-6.36,7.81-12,8.23v4.23c6.65.51,13.52-4,16-10.29.29-.73.42-1.69,1-2.11,2.2-1.7,2.11-3.29.37-5.31-.43-.5,0-1.83.24-2.76.06-.31.67-.48.78-.81.82-2.33,0-5.61-2.17-6.9-4.85-2.85-6.25-7.72-7.82-12.53-.67-2.06.09-3.08,2.29-2.66a8.52,8.52,0,0,1,2.35.9c1.68.87,3.32,1.81,5.37,3,0-1.87.45-3.42-.1-4.4a3.69,3.69,0,0,1-.07-3.73c1.18-3,.26-6.45-2-7.36s-2.09-2.06-1.31-3.81c2.13-4.8,4-9.58,3.66-15.1-.39-7-4.73-11-11.78-10.1-1.28.17-2.13,0-1.74-1.61.17-.67.2-1.38.35-2.07.58-2.7,1-2.83,3.06-1.05a14.61,14.61,0,0,0,9.89,3.7v-4.27c-4-.44-7.18-2.1-9.23-5.7-.91-1.6-.89-2.92.62-3.82,2.68-1.59,5.49-3,8.25-4.42.48-.39.5-1.34.47-2.3a5.39,5.39,0,0,0-.2-.94c-3.47-.46-5-.1-9.21,2.34-1.2.69-2.23,1.06-2.29-.83-.24-7.92.23-15.75,3.05-23.28.53-1.4,1.19-1.62,2.58-1,1.84.81,3.81,1.3,5.73,1.93.9-3.1.42-4.88-2.59-5.46-2.17-.42-3-1.62-1.38-3.67,5.32-6.74,4.1-14.7,4.22-22.76-2.25,1.08-4.07,1.37-6.36-.08-4.81-3-10.15-.53-11.53,5.12-1.49,6.14,0,11.79,3.24,17.05,1.67,2.69,1.78,3.23-1.09,4.53S499.51,260.24,500.07,263Zm18.24-149.79c-4.2,1.79-6.51,4.75-6.81,8.87a33.63,33.63,0,0,0,.76,8c.24,1.36,0,1.88-1.33,2.17-3.68.76-7-1.64-6.65-5.8.27-3.55,1.67-7,2.75-10.51.7-2.26,2.39-3.26,4.81-3.69,6.44-1.15,6.58-1.45,6.55-7.84,0-2.36.6-5.12-.4-7-2.52-4.68-6.22-8.49-11.53-10.18-4.68-1.49-9.16.08-11.48,4,.65,0,1.23.14,1.82.14,2.48,0,5-.4,7.43,0,4.44.8,7.19,4.11,9.53,7.68.28.42-.11,1.62-.56,2.13-1.1,1.23-2.49,2.2-3.63,3.41-3.93,4.16-3.9,4.18-9.14,1.82-.1,0-.29.1-.5.19.06,2.28-1,5,2.65,5.77a3.49,3.49,0,0,1,0,2.2c-3.05,6.55-4.47,13.08,0,19.86-3.47,1.31-2.93,3.94-2.57,6.83,1.31-.75,2.35-1.38,3.42-1.95,4.38-2.34,7.37-.92,8.46,4.08a13.08,13.08,0,0,1-2.47,11.43c-2.41,3-5.39,5.45-8.09,8.18-.58.58-1.39,1.27-1.44,2-.18,2.48-.07,5-.07,7.78.57-.41.76-.56,1-.69l3.54-2.36a27.09,27.09,0,0,1,0,4.13c-1.46,9.43.84,18.81,10,22.17,2.89,1,3.2,3.39,1.42,6a10.18,10.18,0,0,1-8,4.81c-3,.19-6.41,1.13-7.8-3.3-.07,3.15-.76,6.51.52,8.74a18.68,18.68,0,0,0,12.83,9.25c4.5.88,5.35.06,5.08-4.37,0-.15-.16-.29-.25-.43-5.19,1-10.41-1.23-11.4-5,1-.19,2-.39,3-.56,6.05-1.05,8.68-4.11,8.69-10.15a28.77,28.77,0,0,1,0-3.94c.45-3-.65-4.91-3.6-6a9.07,9.07,0,0,1-5.69-6.44,22.42,22.42,0,0,1,.31-12.93c.18-.6.88-1.56,1.18-1.5a3.73,3.73,0,0,1,1.81,1.25c.32.35.24,1.18.59,1.4,1.36.88,2.83,1.61,4.26,2.4a18.72,18.72,0,0,0,1-3.32c.06-.51-.61-1.14-1-1.68-.61-.83-1.35-1.58-1.89-2.46-.72-1.17-.26-1.84,1.09-1.82a11.9,11.9,0,0,1,1.74.29v-4.71l-8.53.43c1.09-1.42,1.64-2.18,2.23-2.9a23.45,23.45,0,0,0,4.72-10.4c.5-2.44-1.6-5.52,1.7-7.3-.29-3.33-.13-6.79-1-10-1.07-3.91-3.1-7.79-.49-11.53C518.44,117.76,518.54,115.81,518.31,113.17ZM196,352.83c-.42,2.41-.45,4.54,2,6.36,1.21.9,1.78,2.92,2.21,4.54a30.09,30.09,0,0,1,.39,5c.42,4.7,3.33,7.56,7.94,7.86,5.06.32,6.33-1.08,5.57-6.34-.5.27-.93.52-1.37.75-4.93,2.56-7.69.89-7.88-4.62a27.31,27.31,0,0,0-1-6.43c-.59-2.08.12-2.81,1.93-2.2,2.89,1,5.66,2.29,8.33,3.4.53-5.54.94-5.06-4.79-7.29a23.81,23.81,0,0,0-2.8-.68c-1.62-.43-4.45-6.39-3.62-7.77.27-.45,1-.65,1.48-.94a40.56,40.56,0,0,0,5.42-3.11c3-2.35,5-5.17,4.58-9.38a65.19,65.19,0,0,1,0-10,7.11,7.11,0,0,0-2-5.76c-5.32-5.24-10.74-10.37-16.3-15.72-1,4.13-.32,7.09,3.08,9.27a41.22,41.22,0,0,1,5.62,4.72,20.69,20.69,0,0,1,2.17,2.8,27.61,27.61,0,0,1-3.22,1.17c-5.62,1.3-8.94,5.79-7.52,10.31h2.61a18.84,18.84,0,0,1,1-2.21,7.6,7.6,0,0,1,6.46-3.89c2.23-.07,4.18,1,4.73,3.05s.18,4.06,0,6.08c-.13,1.4-1,2-2.59,1.87-4-.31-6.72,1.82-8.93,5a24.8,24.8,0,0,1-3.14,3.09l-.52-.39v3.88c3.36-.1,2.37,2.85,3.18,4.58a16.73,16.73,0,0,1,.84,3.65Zm.38-137.48-1,.47c.56,1.43.76,3.72,1.75,4.14,6,2.55,8.63,7.36,9.69,13.39.53,3,.59,5.73-3,7a5.06,5.06,0,0,0-1.91,1.38c-1.6,1.73-3.44,2.59-5.88,1.65v14a78.22,78.22,0,0,1,4.71-7.92c.6-.81,2.47-.66,3.76-1,.13.91.33,1.81.37,2.73a7,7,0,0,1-.31,1.53c-1.29,7.31.44,13.57,6.47,18.27a24.94,24.94,0,0,0,3,1.76l.73-.45c-.48-1.74-.4-4.12-1.53-5.13-6.27-5.6-5.13-12.55-2.59-19.37a1.75,1.75,0,0,1,1.07-1c2.94-.45,2.76-2.57,2.66-4.71-.06-1.19,0-2.39,0-3.59,0-2.11,0-4.21,0-6.31v-6a17.14,17.14,0,0,0-1.51,3.5,5,5,0,0,1-1.09,1.28,7.65,7.65,0,0,1-1.1-1.26,13.63,13.63,0,0,1-.57-1.74C207.71,221.34,203.35,216.88,196.33,215.35ZM196,376.82c-.49,3.18-.38,5.5,2.51,7.45,2.39,1.61,4.21,4.12,6.07,6.4.57.7.48,1.94.69,2.93a20.37,20.37,0,0,1-2.69.18c-2.63-.17-5.69.47-6.35,2.7-.86,2.93-.21,6.34,0,9.54,0,.43,1.23.89,2,1.16a8.32,8.32,0,0,0,9.15-2.16c1.35-1.32,2.33-1.22,2.88.52a64.14,64.14,0,0,1,2.38,8.79c.26,1.6-.4,3.35-.64,5-1.41-.52-2.83-1-4.24-1.56-.57-.22-1.11-.52-1.67-.75-3.23-1.3-6.5-2.43-10.09-1.84v4.15c7.05,0,12.39,4,18.39,7.37,0-7.13.09-13.85-.06-20.55a9.87,9.87,0,0,0-1.44-4.86,14.59,14.59,0,0,1-2.46-6.67C209.49,385.76,202.69,381.49,196,376.82Zm322.36,46.23c-3.39-1.35-6.73-2.27-9.64-3.93-9-5.18-9.43-5.82-4.22-16.26.72-1.45,1.69-2.1,3.38-1.54,2.39.79,4.86,1.36,7.25,2.19,2.64.91,3.26.55,3.28-2.33s0-5.6,0-8.4-.89-3.74-3.47-2.7a103.32,103.32,0,0,0-10.1,5.29,11.62,11.62,0,0,1-2.66,1.42c-1.76.39-2.36,1.19-2.33,3,.11,7.79,0,15.58,0,23.37,0,6.44,5.08,10.37,11.19,8.9-1.94-2.06-4-4.14-5.94-6.38a12.87,12.87,0,0,1-1.45-3.11,14.59,14.59,0,0,1,3.2.71c3.61,1.7,7.19,3.43,11.46,3.44ZM214.19,303.82c-4.91-.95-6.82-3.28-6.11-7.27.79-4.43,1.8-5.2,6.53-4.47-.37-1.68-.66-3.18-1-4.66-.21-.85-1-1.79-.76-2.49,2-6.76-2.73-13.08-9.12-14.44a53.27,53.27,0,0,0-7.67-.55c-.89,6.31-.81,12.2,5.11,15.8,3.85,2.35,4.67,4.51,3,9.05-2.67,7,2.75,13.56,10.09,13Zm-3.72-148.24c-2.84,1.54-5.28,2.67-7.52,4.11-3.35,2.17-5.13,5.29-4.41,9.37s3.28,7.2,7.3,8.05a14,14,0,0,0,7.73-1c.8-.32.53-3.28.73-5,0-.12-.16-.26-.34-.52-.34.27-.67.52-1,.79-1.91,1.65-4,2.57-6.48,1.4a5.69,5.69,0,0,1-3.66-5c-.09-2.65,1.87-4,3.94-5.09,2.46-1.26,5-2.38,7.55-3.59a19.59,19.59,0,0,1,0-3.43c.46-2.49-.82-3.83-2.78-4.95A20.9,20.9,0,0,0,199.75,148c-4.13.22-4.45.61-3.67,5C201,152.06,205.82,151.85,210.47,155.58Zm18.18-64.3c-.8-2.9-1.4-5.44-2.21-7.91-1.81-5.49-4.54-7.37-9.83-7-5,.38-9.26,3.95-10.1,8.23,3.43,2.1,6.75,4.14,10.08,6.15a3.16,3.16,0,0,0,1.44.48C221.42,91.3,224.82,91.28,228.65,91.28Zm-14.46,43.45c.32-5.13.28-5.06-3.72-7.09a3.36,3.36,0,0,1-1.36-2.39c-.65-7-6.34-13.58-13.11-15-.65,2.59-.31,4.37,2.42,6a15.45,15.45,0,0,1,5.22,6c1.92,3.5,1.29,4.37-2.55,5.17-5.32,1.11-5.32,1.11-5.32,6.4,0,.88.06,1.76,0,2.63-.16,1.75.77,2.08,2.25,1.91a12.49,12.49,0,0,0,8-4.06c2.5-2.72,3-2.82,6.21-.86C212.81,133.77,213.36,134.17,214.19,134.73ZM195.86,195c3.61-2.58,5.39-3,6.76-1.67,2.24,2.15,2.66,6.12.9,8.42-2,2.56-4.18,2.91-7.63,1.11,0,.63-.1,1.22-.11,1.82-.06,3.53.48,4.05,4,3.89,4.77-.22,8.84-4.38,9.32-9.44a8.53,8.53,0,0,1,.85-2.22,8.22,8.22,0,0,1,1.86,1.58c.82,1.28,1.43,2.71,2.13,4.08.38-1.47.15-3,.42-4.34.8-4-1.38-6.46-4.59-7.88-4.36-1.93-8.93-3.38-13.42-5-.1,0-.28.14-.52.27ZM206,155.38a13,13,0,0,0-9-.33,2.46,2.46,0,0,0-1.18,1.92c-.08,8-.1,16.09,0,24.13a3,3,0,0,0,1.55,2.15c5.57,2.33,11.2,4.5,16.78,6.71V178.71c-8.76,1.85-14.48-.49-17.08-6.94C194.61,165.55,197.09,160.89,206,155.38ZM518.29,406.63c-1.63-.53-3.09-.93-4.49-1.48-7.33-2.88-9-2-10.3,5.81a2.86,2.86,0,0,0,.3,2.13,27.51,27.51,0,0,0,14.49,7.32ZM501.71,174.38c-.55,1.41-1.21,2.4-1.27,3.42-.28,4.51-.79,9.07-.44,13.55.32,4,1.6,8,2.58,11.93a2.31,2.31,0,0,0,1.51,1.46c3.1.35,6.08.09,8.58-2.18,2.78-2.51,2.71-4-.61-5.52a16.1,16.1,0,0,1-9.56-12.58C502,181.33,502,178.11,501.71,174.38ZM195.92,146.43a24.19,24.19,0,0,1,18.41,3.41c0-3.42,0-6.28,0-9.15a6.41,6.41,0,0,0-4.39-6.13,1.79,1.79,0,0,0-1.57.26,15.32,15.32,0,0,1-12.45,5.67Zm15.2,54.85c-3,7.21-7.84,10.42-15.22,9.11v2.74c7.33,1.42,12.49,5.61,15.79,13.06C213.41,217.5,214.1,209.64,211.12,201.28ZM317,72.86c.14,3.58-1,6.2-4.05,8.09-1.42.89-1.27,2.48.54,3.21,6.89,2.76,13.54,2.36,20.34-1.67-5.77-1-8.91-4.15-9.61-9.63ZM508.78,282.68l9.43-2.21v-15.9l-6.66-1.92A55.29,55.29,0,0,0,508.78,282.68Zm-8.89-121.82,1.05.68c2.21-2.47,4.51-4.86,6.58-7.42a11.79,11.79,0,0,0,2.66-8.82c-.54-5.14-2.67-6.2-6.92-3.42-1.3.85-3.14,2.15-3.22,3.35C499.68,150.42,499.89,155.64,499.89,160.86Zm-285,271.46c-.67-1.52-.85-3.06-1.67-3.58a92.31,92.31,0,0,0-10.5-5.88c-2-.94-4.39-1.1-6.75-1.65v11.11Zm-.65-54.65c-1.05.26-1.79.48-2.55.63-7.1,1.44-12.64-2.52-13.19-9.43a38.89,38.89,0,0,0-.35-5,19.55,19.55,0,0,0-1.59-3.73l-.76.27a32.09,32.09,0,0,1,0,5.19c-1,6,1,10,6.42,13.23a20.62,20.62,0,0,1,10.53,17.74c0,.78.74,1.53,1.14,2.29l.39-.19ZM462,83.74c1,2.14,2,3.54,2.37,5.09.53,2.21,1.77,2.52,3.76,2.49,6.28-.12,12.59-.27,18.86,0,3.78.19,6.53-.75,8.25-4.48-4.28,1.61-8.4,1.62-12.34-.81a1.71,1.71,0,0,0-1.45,0c-4.44,2.6-8.75,1.31-13.09-.31C466.46,85,464.48,84.5,462,83.74ZM195.81,222c0,6.19-.07,12.1.05,18,0,1.88,1.78,1.88,2.95,1.45,5.53-2.08,7-5.28,5.16-11a15.31,15.31,0,0,0-.83-2.2A11.15,11.15,0,0,0,195.81,222ZM500,231c5.08-4.55,8.11-4.93,13.8-2.08a3.87,3.87,0,0,0,2.14.22c3.78-.55,2.15-3.33,2.3-4.77-3.51-.83-6.95-1.14-9.93-2.49s-5.51-3.76-8.31-5.75ZM341.46,88.83c.54.42,1.29,1.53,2.18,1.64,2.37.31,5.38,1.11,7.07,0,2.86-1.83,4.91-5,7.18-7.4L353,79.66c-2-1.4-4.77-1.12-5.79.48C345.37,83,343.48,85.78,341.46,88.83ZM500,383.19a9.75,9.75,0,0,0,8.82-4.13c-1.24-5.54-1.68-11.28-8.82-11.32ZM404.49,83.47c-2.92.18-5.84.35-8.76.57a2.3,2.3,0,0,0-1.16.54c-4.06,3.25-8.88,4.35-13.89,5a5.65,5.65,0,0,0-1.64.8c.59.31,1.17.9,1.76.9,5.95.07,11.9.06,17.85,0a2.3,2.3,0,0,0,1.73-.74C401.81,88.25,403.09,85.9,404.49,83.47ZM512.37,99.18c-2.86-2.1-5.12-4.16-7.73-5.55A3.06,3.06,0,0,0,499.91,96c-.12,2.08-.51,4.35.13,6.22.49,1.43,2.29,2.61,3.77,3.38.65.34,2.16-.38,3-1C508.51,103.11,510.05,101.43,512.37,99.18ZM289.58,80.63c-5.27,0-10.53,0-15.79.09a2.67,2.67,0,0,0-.54,2.07c1,1.94,2.5,3.63,3.3,5.62,1.1,2.73,2.83,3.45,5.6,2.6A15.14,15.14,0,0,1,289.58,80.63Zm93.74-.12c-1.09-2.43-1.88-4.45-2.92-6.34a2.9,2.9,0,0,0-2-1.35c-3.58-.14-7.16-.06-10.75-.06H358.9l-.08,1.06a15.2,15.2,0,0,0,3.91.5,12.83,12.83,0,0,1,12.64,5.26c.44.56,1.16,1.27,1.77,1.28C379.2,80.89,381.26,80.65,383.32,80.51ZM518.25,190.19V178L511,175C509.37,182,511.12,188.57,518.25,190.19ZM195.81,283.71c0,3.52.23,6.65-.06,9.73-.47,5.15,3.47,7.12,6.48,9.88-1.84-4.63-.58-8.95,1-13Zm.19,54.93.72.31,1.43-2c2.12-3,4.92-5.21,8.63-5.3,3.06-.06,2.88-1.93,2.84-3.81a3.18,3.18,0,0,0-3.77-3.08c-2.22.37-4.21,1.53-4.52,3.8s-1.43,2.28-3,2.31c-.76,0-1.52.11-2.31.18Zm13,67.88c-4.43,3.5-8.53,4.07-13,2v3.65l14.94,4.19Zm-3.79-59.6c.2,5.72,5.81,4.38,8.9,6.84V340.63ZM400,72.76c-.47,1.83.1,2.34,1.75,2.22,4.73-.33,9.37-.24,13.8,2,2.8,1.42,5.86,2.32,8.95,3.51-1.69-2.58-3.13-4.83-4.65-7a1.77,1.77,0,0,0-1.25-.68C412.45,72.75,406.26,72.76,400,72.76ZM205.6,268.41c-4.06-5.49-3.9-11.49-3.12-17.64a20.39,20.39,0,0,0-4.72,17Zm-.37-174.15c.35,4.37,1.38,8.35,4.67,11.35a3.46,3.46,0,0,0,2.95.8,3.67,3.67,0,0,0,1.42-2.74C214.57,99.82,210.65,95.75,205.23,94.26Zm256.56-19a34.45,34.45,0,0,1,4,.66c3,.87,6,1.87,9,2.81,1.74.55,2.68.15,2.52-1.93a31.32,31.32,0,0,1,.19-3.92h-15.4C462,73.65,461.88,74.4,461.79,75.24Zm-8.43-2.35H430.64c6.68,4.14,14.45,1.68,21.62,4.19C452.67,75.53,453,74.3,453.36,72.89Zm-240.42,89c-2.12,1.05-4.11,1.91-6,3-1.61.92-2.81,2.18-1.55,4.25a3.62,3.62,0,0,0,5.15,1.44C213.41,169,214.46,165.52,212.94,161.89Zm-5.66-47.3a72.17,72.17,0,0,1,3.49,8.79c.55,2.07,1.3,3.19,3.39,3.35v-11Zm-.71,245.3c.16,2.89.21,5.65.52,8.38.07.61,1.17,1.68,1.56,1.59,1.44-.36,3.16-.79,4-1.82.65-.77.54-2.68.08-3.79C211.68,361.66,209.3,360.55,206.57,359.89Zm311.68-70.15a7.31,7.31,0,0,0-6.74,2.22,2.25,2.25,0,0,0-.49,1.78c.81,2.62,4.4,4.54,7.23,4ZM214.19,247.92c-3.07,1.9-3,4.84-3.39,7.37-.6,3.65.16,7,3.39,9.65ZM510.24,348.3c1.87,4.9,2.87,9.67,8.15,11.83,0-2.3.08-4.4,0-6.49a2.5,2.5,0,0,0-1.05-1.76C515.19,350.69,513,349.67,510.24,348.3ZM195.92,72.92v10.8c.42,0,.86.16.91.07,2.12-3.61,4.2-7.23,6.3-10.87Zm51.46,8.62c-1-4.64-5.68-8.85-9.33-8.48C238.13,77.65,242.5,81.62,247.38,81.54Zm270.73,12c.91-2.92-.11-4.85-2.25-5.85-3.67-1.71-7.52-3-11.27-4.59-2.44-1-4,.07-5.53,2.09C507.53,83.29,513.08,87.62,518.11,93.56Zm.18-15V72.77c-3.17,0-6.22-.09-9.26.06-.66,0-1.28.89-2.22,1.58Zm-5.84,36-.48-.45c-.85.57-2.1.95-2.48,1.74a31.33,31.33,0,0,0-3.05,8c-.31,1.83.74,3.91,1.35,5.83.1.33,1,.41,1.54.6.15-.52.51-1.09.41-1.57C508.64,123.67,509.07,118.88,512.45,114.6Zm-310,10.22a11.75,11.75,0,0,0-6.51-7.71v9.62Zm-6.52,195.42,7.49-4.33-7.49-6.29Zm225.88-229c7.47,0,14.61,0,21.76,0,.65,0,1.29-.64,1.94-1a24.28,24.28,0,0,0-5.69-1.47c-.81-.12-1.84-.42-2.45-.07-4.67,2.69-9.35,2.16-14.1.36a10.5,10.5,0,0,0-1.09-.28C422.07,89.6,422,90.26,421.82,91.27Zm-226,1.87c0,4.51,0,9,.05,13.53a2.09,2.09,0,0,0,1.09,1.42c1.59.81,3.26,1.45,5.47,2.41C198.1,105.09,197,99.16,195.82,93.14Zm59.47-16L264,74.68c-.56-.57-1.18-1.76-1.88-1.82-3-.21-6-.09-9.27-.09ZM196.9,384.67l-.83.54v8l7.28-2.14C201,388.72,199,386.7,196.9,384.67Zm.4-184.8c.37.41,1,1.76,2.09,2.13,1.36.49,3.56-2,3.17-3.7-.3-1.26-1.13-2.93-2.16-3.36C199,194.34,197.27,196.72,197.3,199.87Zm13.4,93.63c-.09,2.31-.54,4.37-.09,6.2.23.94,2.07,1.48,3.46,2.38C214.83,294.75,214.82,294.73,210.7,293.5Zm308.21-84.28-8.22,4.2c2.21,1.35,4.48,2.76,6.61.88C518.3,213.41,518.28,211.36,518.91,209.22Zm-.57,220-8.27-1.93c2.56,2,3.83,6.15,8.27,4.89Zm-.2-41.82v-6.49l-6.23,7.64ZM248.34,91.27l-11.78-4.06c.85,4.06.85,4.06,4.85,4.06Zm269.85,68.28v-7.12l-3.46,6.95Zm-11.6,231.94-.21-.34L500,392.22v3.69Zm-5-126.21-.43-.46c-.43.54-1.21,1.07-1.23,1.63-.11,3.4-.06,6.81-.06,10.21h.24Q500.86,271,501.6,265.28ZM209.39,309.6l4.74,5v-4.4Zm161-218.49c-.71-1.94-4.24-1.85-6.72,0ZM502.55,254.75l-2.5-4.14v5.59ZM518.28,251l-.45-.07c-.69,1.25-1.38,2.49-2.19,4l2.64.61Zm-17.71,36-.57,0v7.35h.57Z" transform="translate(-135.42 -63.87)"/><path d="M240.7,121.93c1.19.28,2.12.4,3,.7q44,15.19,88,30.38c1.89.65,2.3,1.63,2.29,3.44q-.08,32.34,0,64.67,0,93.6.05,187.2c0,2.4-.42,3.46-3.18,3.79-20.26,2.4-40.48,5-60.71,7.6-8.86,1.12-17.72,2.17-26.57,3.35-2.27.3-3-.25-3-2.7q.09-147.75.06-295.52C240.55,124,240.64,123.14,240.7,121.93Zm91.17,287.91c.07-.88.18-1.57.18-2.25q0-125,0-250a2.64,2.64,0,0,0-2.11-3q-42.78-14.7-85.52-29.52a10.15,10.15,0,0,0-1.68-.27V421Z" transform="translate(-135.42 -63.87)"/><path d="M473.4,121.86v301.4c-4.24-.48-8.3-.91-12.34-1.41l-57.82-7.28c-6.95-.87-13.89-1.78-20.84-2.59-1.66-.2-2.33-.94-2.2-2.56.06-.7,0-1.4,0-2.1q0-124.89-.06-249.76c0-2.8.76-4,3.54-5,28.62-9.77,57.18-19.72,85.76-29.61C470.65,122.55,471.89,122.28,473.4,121.86Zm-91.22,288L471.49,421V124.64c-.77.22-1.36.35-1.93.54q-42.51,14.65-85.05,29.28c-2,.68-2.37,1.7-2.37,3.61q.06,124.35,0,248.72Z" transform="translate(-135.42 -63.87)"/><path d="M485.5,75.09l9.05,3.84A6.21,6.21,0,0,1,487.29,81C484.43,79.91,485.12,77.74,485.5,75.09Z" transform="translate(-135.42 -63.87)"/><path d="M514.54,318.67c-.46,1.43-1.21,3.92-2.06,6.38-1,2.87-2.06,5.72-3.1,8.58-.11.32-.11.81-.33,1-1.2.81-2.46,1.55-3.69,2.31a17,17,0,0,1-1.26-3.47c-.76-5.25-1.38-10.52-2.05-15.79-.33-2.58,4.3-7.69,7.05-7.78C512.1,309.77,514.75,313.46,514.54,318.67ZM506.17,334c.67-.49,1-.59,1-.78,1.69-4.66,3.52-9.29,4.93-14a8.43,8.43,0,0,0-.42-5c-1-2.64-2.83-2.86-4.83-.92s-3.13,3.84-2.26,6.9c.8,2.81.76,5.86,1.07,8.8C505.86,330.48,506,332,506.17,334Z" transform="translate(-135.42 -63.87)"/><path d="M506.82,248.54a8.29,8.29,0,0,1-1.37-2.58,56.12,56.12,0,0,1-.65-9,3.05,3.05,0,0,1,3.67-3.18c2.21.28,2.57,1.25,1.91,3.37-.87,2.81-1.39,5.74-2.06,8.61-.21.88-.41,1.77-.61,2.65Z" transform="translate(-135.42 -63.87)"/><path d="M200.65,403.63c-.78-.82-2.22-1.65-2.21-2.45a2.87,2.87,0,0,1,3.4-2.81,5,5,0,0,1,3.32,1.8C205.75,401.1,203,403.11,200.65,403.63Z" transform="translate(-135.42 -63.87)"/><path d="M517.38,396.77c-.9.89-1.61,2-1.92,1.85a29.31,29.31,0,0,1-3.93-1.95,17.11,17.11,0,0,1,3.66-1.92C515.63,394.63,516.43,395.86,517.38,396.77Z" transform="translate(-135.42 -63.87)"/><path d="M208.66,282.4l-.73,2c-.9-.35-2-.48-2.66-1.11-2.15-2.12-4.17-4.38-6.15-6.67-.87-1-.76-1.94.77-2.23C203.85,273.65,208.71,277.73,208.66,282.4Zm-2.18-.4c-.48-3.39-1.82-4.65-5.1-4.89Z" transform="translate(-135.42 -63.87)"/><path d="M260.1,275.27V153c0-3.92,0-3.94,3.81-2.63,15.94,5.52,31.88,11.07,47.85,16.5,2,.69,2.62,1.65,2.62,3.75q-.09,110.43,0,220.86c0,2.23-.61,3-2.88,3.24-16.08,1.92-32.13,4-48.19,6.07-3,.38-3.21.21-3.21-3Zm52,117.25c.06-.87.14-1.56.14-2.24q0-109.35,0-218.71c0-1.82-.6-2.55-2.28-3.11-10.61-3.58-21.17-7.28-31.75-10.93l-15.92-5.44V398.78Z" transform="translate(-135.42 -63.87)"/><path d="M454,275.25v122.5c0,3.45-.06,3.41-3.6,2.95-14.67-1.88-29.34-3.76-44-5.51-6.46-.77-6.47-.63-6.47-7.11q0-108.3-.08-216.61c0-2.89.94-4.06,3.56-4.94,15.73-5.32,31.41-10.81,47.1-16.24,3.42-1.19,3.52-1.12,3.52,2.46v122.5Zm-2.1-123.13c-1,.33-1.86.57-2.68.85-15,5.16-29.9,10.37-44.89,15.43-2,.67-2.43,1.61-2.43,3.54q.08,108.69,0,217.39v3.18l50,6.28Z" transform="translate(-135.42 -63.87)"/><path d="M263.38,275.52V158.27c0-4.62,0-4.62,4.24-3.15,13.47,4.65,26.93,9.35,40.42,13.91,2.22.75,3.11,1.69,3.11,4.23q-.13,107.4,0,214.79c0,2.71-.84,3.6-3.4,3.9q-20.87,2.48-41.69,5.24c-2.54.33-2.7-.9-2.69-2.84q0-34.44,0-68.88Q263.39,300.5,263.38,275.52Zm2.2-118.7V395.08L309,389.63V387q0-106.49.05-212.95c0-1.94-.65-2.72-2.41-3.31-12.83-4.36-25.62-8.82-38.43-13.23C267.42,157.23,266.59,157.08,265.58,156.82Z" transform="translate(-135.42 -63.87)"/><path d="M450.85,275.75V394.06c0,3.33-.17,3.39-3.45,3q-20.06-2.58-40.12-5c-4.12-.5-4.13-.42-4.13-4.45q0-107-.06-214c0-2.65.8-3.74,3.3-4.58,13.76-4.61,27.45-9.43,41.17-14.16,3-1,3.28-.83,3.28,2.38Q450.86,216.48,450.85,275.75Zm-2.17-119c-1.12.32-1.95.51-2.76.78-12.73,4.37-25.44,8.82-38.21,13.07-2.22.74-2.68,1.85-2.67,4,.07,21.82,0,43.64,0,65.46q0,73.35,0,146.69c0,2.26.5,3.08,3,3.34,9.13.95,18.23,2.25,27.35,3.4,4.39.55,8.78,1.05,13.33,1.59Z" transform="translate(-135.42 -63.87)"/></g></svg>